mtllib ../materials/wall.mtl

v 0.70048300 2.00000000 0.70028800
v 0.68525900 2.00000000 0.77671500
v 0.64190400 2.00000000 0.84150600
v 0.57701900 2.00000000 0.88479800
v 0.50000000 2.00000000 0.90000000
v 0.50000000 2.00000000 0.50057700
v 0.70048300 0.00000000 0.70028800
v 0.68525900 0.00000000 0.77671500
v 0.64190400 0.00000000 0.84150600
v 0.57701900 0.00000000 0.88479800
v 0.50000000 0.00000000 0.90000000
v 0.50000000 0.00000000 0.50057700
v 0.50000000 2.00000000 0.70028800
v 0.50000000 0.00000000 0.70028800
v 0.77698300 2.00000000 0.68490200
v 0.84176300 2.00000000 0.64145400
v 0.88496100 2.00000000 0.57656000
v 0.90000000 2.00000000 0.49961500
v 0.77698300 0.00000000 0.68490200
v 0.84176300 0.00000000 0.64145400
v 0.88496100 0.00000000 0.57656000
v 0.90000000 0.00000000 0.49961500
v 0.70000000 2.00000000 0.50009600
v 0.70000000 0.00000000 0.50009600
v 0.29951700 2.00000000 0.70028800
v 0.31474100 2.00000000 0.77671500
v 0.35809600 2.00000000 0.84150600
v 0.42298100 2.00000000 0.88479800
v 0.29951700 0.00000000 0.70028800
v 0.31474100 0.00000000 0.77671500
v 0.35809600 0.00000000 0.84150600
v 0.42298100 0.00000000 0.88479800
v 0.22301700 2.00000000 0.68490200
v 0.15823700 2.00000000 0.64145400
v 0.11503900 2.00000000 0.57656000
v 0.10000000 2.00000000 0.49961500
v 0.22301700 0.00000000 0.68490200
v 0.15823700 0.00000000 0.64145400
v 0.11503900 0.00000000 0.57656000
v 0.10000000 0.00000000 0.49961500
v 0.30000000 2.00000000 0.50009600
v 0.30000000 0.00000000 0.50009600
v 0.70048300 2.00000000 0.29971200
v 0.68525900 2.00000000 0.22328500
v 0.64190400 2.00000000 0.15849400
v 0.57701900 2.00000000 0.11520200
v 0.50000000 2.00000000 0.10000000
v 0.70048300 0.00000000 0.29971200
v 0.68525900 0.00000000 0.22328500
v 0.64190400 0.00000000 0.15849400
v 0.57701900 0.00000000 0.11520200
v 0.50000000 0.00000000 0.10000000
v 0.50000000 2.00000000 0.29971200
v 0.50000000 0.00000000 0.29971200
v 0.77698300 2.00000000 0.31509800
v 0.84176300 2.00000000 0.35854600
v 0.88496100 2.00000000 0.42344000
v 0.77698300 0.00000000 0.31509800
v 0.84176300 0.00000000 0.35854600
v 0.88496100 0.00000000 0.42344000
v 0.29951700 2.00000000 0.29971200
v 0.31474100 2.00000000 0.22328500
v 0.35809600 2.00000000 0.15849400
v 0.42298100 2.00000000 0.11520200
v 0.29951700 0.00000000 0.29971200
v 0.31474100 0.00000000 0.22328500
v 0.35809600 0.00000000 0.15849400
v 0.42298100 0.00000000 0.11520200
v 0.22301700 2.00000000 0.31509800
v 0.15823700 2.00000000 0.35854600
v 0.11503900 2.00000000 0.42344000
v 0.22301700 0.00000000 0.31509800
v 0.15823700 0.00000000 0.35854600
v 0.11503900 0.00000000 0.42344000
vt 0.16020000 0.64070000
vt 0.16020000 0.80090000
vt 0.16020000 0.96110000
vt 0.22150000 0.65290000
vt 0.25000000 0.00000000
vt 0.25000000 0.64070000
vt 0.27340000 0.68760000
vt 0.30820000 0.73960000
vt 0.31250000 0.00000000
vt 0.31250000 0.64070000
vt 0.32040000 0.80090000
vt 0.33260000 0.73960000
vt 0.36730000 0.68760000
vt 0.37500000 0.00000000
vt 0.37500000 0.64070000
vt 0.41920000 0.65290000
vt 0.43750000 0.00000000
vt 0.43750000 0.64070000
vt 0.48050000 0.64070000
vt 0.48050000 0.80090000
vt 0.48050000 0.96110000
vt 0.50000000 0.00000000
vt 0.50000000 0.64070000
vn 0.00000000 1.00000000 0.00000000
vn 0.00000000 -1.00000000 0.00000000
vn 0.00000000 1.00000000 0.00000000
vn 0.00000000 -1.00000000 0.00000000
vn 0.00000000 1.00000000 0.00000000
vn 0.00000000 -1.00000000 0.00000000
vn 0.00000000 1.00000000 0.00000000
vn 0.00000000 -1.00000000 0.00000000
vn 0.00000000 1.00000000 0.00000000
vn 0.00000000 -1.00000000 0.00000000
vn 0.00000000 1.00000000 0.00000000
vn 0.00000000 1.00000000 0.00000000
vn 0.98073190 0.00000000 0.19535848
vn 0.00000000 1.00000000 0.00000000
vn 0.19717574 0.00000000 0.98036816
vn 0.00000000 1.00000000 0.00000000
vn 0.00000000 1.00000000 0.00000000
vn 0.92369847 0.00000000 0.38312027
vn 0.92369847 0.00000000 0.38312027
vn 0.00000000 1.00000000 0.00000000
vn 0.70663235 0.00000000 0.70758090
vn 0.70663235 0.00000000 0.70758090
vn 0.00000000 1.00000000 0.00000000
vn 0.38169294 0.00000000 0.92428918
vn 0.38169294 0.00000000 0.92428918
vn 0.00000000 1.00000000 0.00000000
vn 7.0727680e-17 0.00000000 1.00000000
vn 7.0727680e-17 0.00000000 1.00000000
vn 0.00000000 1.00000000 0.00000000
vn 0.98073190 0.00000000 0.19535848
vn 0.00000000 -1.00000000 0.00000000
vn 0.19717574 0.00000000 0.98036816
vn 0.00000000 -1.00000000 0.00000000
vn 0.00000000 -1.00000000 0.00000000
vn 0.00000000 -1.00000000 0.00000000
vn 0.92369847 0.00000000 0.38312027
vn 0.92369847 0.00000000 0.38312027
vn 0.00000000 -1.00000000 0.00000000
vn 0.70663235 0.00000000 0.70758090
vn 0.70663235 0.00000000 0.70758090
vn 0.00000000 -1.00000000 0.00000000
vn 0.38169294 0.00000000 0.92428918
vn 0.38169294 0.00000000 0.92428918
vn 0.00000000 -1.00000000 0.00000000
vn 7.0727680e-17 0.00000000 1.00000000
vn 7.0727680e-17 0.00000000 1.00000000
vn 0.00000000 -1.00000000 0.00000000
vn 0.00000000 -1.00000000 0.00000000
vn 0.38446968 0.00000000 0.92313762
vn 0.00000000 1.00000000 0.00000000
vn 0.38446968 0.00000000 0.92313762
vn 0.00000000 1.00000000 0.00000000
vn 0.70833533 0.00000000 0.70587609
vn 0.70833533 0.00000000 0.70587609
vn 0.00000000 1.00000000 0.00000000
vn 0.92484624 0.00000000 0.38034121
vn 0.92484624 0.00000000 0.38034121
vn 0.00000000 1.00000000 0.00000000
vn 0.99999955 0.00000000 -9.5113727e-4
vn 0.00000000 1.00000000 0.00000000
vn 0.99999955 0.00000000 -9.5113727e-4
vn 0.38446968 0.00000000 0.92313762
vn 0.00000000 -1.00000000 0.00000000
vn 0.38446968 0.00000000 0.92313762
vn 0.00000000 -1.00000000 0.00000000
vn 0.70833533 0.00000000 0.70587609
vn 0.70833533 0.00000000 0.70587609
vn 0.00000000 -1.00000000 0.00000000
vn 0.92484624 0.00000000 0.38034121
vn 0.92484624 0.00000000 0.38034121
vn 0.00000000 -1.00000000 0.00000000
vn 0.99999955 0.00000000 -9.5113727e-4
vn 0.99999955 0.00000000 -9.5113727e-4
vn 0.00000000 -1.00000000 0.00000000
vn 0.00000000 1.00000000 0.00000000
vn 0.00000000 1.00000000 0.00000000
vn 0.00000000 1.00000000 0.00000000
vn -0.98073190 0.00000000 0.19535848
vn -0.19717574 0.00000000 0.98036816
vn 0.00000000 1.00000000 0.00000000
vn 0.00000000 1.00000000 0.00000000
vn -0.92369847 0.00000000 0.38312027
vn -0.92369847 0.00000000 0.38312027
vn 0.00000000 1.00000000 0.00000000
vn -0.70663235 0.00000000 0.70758090
vn -0.70663235 0.00000000 0.70758090
vn -0.38169294 0.00000000 0.92428918
vn 0.00000000 1.00000000 0.00000000
vn -0.38169294 0.00000000 0.92428918
vn 0.00000000 -1.00000000 0.00000000
vn 0.00000000 -1.00000000 0.00000000
vn -0.98073190 0.00000000 0.19535848
vn -0.19717574 0.00000000 0.98036816
vn 0.00000000 -1.00000000 0.00000000
vn 0.00000000 -1.00000000 0.00000000
vn 0.00000000 -1.00000000 0.00000000
vn -0.92369847 0.00000000 0.38312027
vn -0.92369847 0.00000000 0.38312027
vn 0.00000000 -1.00000000 0.00000000
vn -0.70663235 0.00000000 0.70758090
vn -0.70663235 0.00000000 0.70758090
vn -0.38169294 0.00000000 0.92428918
vn 0.00000000 -1.00000000 0.00000000
vn -0.38169294 0.00000000 0.92428918
vn -0.38446968 0.00000000 0.92313762
vn 0.00000000 1.00000000 0.00000000
vn -0.38446968 0.00000000 0.92313762
vn 0.00000000 1.00000000 0.00000000
vn -0.70833533 0.00000000 0.70587609
vn -0.70833533 0.00000000 0.70587609
vn 0.00000000 1.00000000 0.00000000
vn -0.92484624 0.00000000 0.38034121
vn -0.92484624 0.00000000 0.38034121
vn 0.00000000 1.00000000 0.00000000
vn -0.99999955 0.00000000 -9.5113727e-4
vn -0.99999955 0.00000000 -9.5113727e-4
vn 0.00000000 1.00000000 0.00000000
vn -0.38446968 0.00000000 0.92313762
vn -0.38446968 0.00000000 0.92313762
vn 0.00000000 -1.00000000 0.00000000
vn -0.70833533 0.00000000 0.70587609
vn -0.70833533 0.00000000 0.70587609
vn 0.00000000 -1.00000000 0.00000000
vn -0.92484624 0.00000000 0.38034121
vn -0.92484624 0.00000000 0.38034121
vn 0.00000000 -1.00000000 0.00000000
vn -0.99999955 0.00000000 -9.5113727e-4
vn -0.99999955 0.00000000 -9.5113727e-4
vn 0.00000000 -1.00000000 0.00000000
vn 0.00000000 -1.00000000 0.00000000
vn 0.00000000 1.00000000 0.00000000
vn 0.00000000 1.00000000 0.00000000
vn 0.98073190 0.00000000 -0.19535848
vn 0.00000000 1.00000000 0.00000000
vn 0.19717574 0.00000000 -0.98036816
vn 0.00000000 1.00000000 0.00000000
vn 0.92369847 0.00000000 -0.38312027
vn 0.00000000 1.00000000 0.00000000
vn 0.92369847 0.00000000 -0.38312027
vn 0.00000000 1.00000000 0.00000000
vn 0.70663235 0.00000000 -0.70758090
vn 0.70663235 0.00000000 -0.70758090
vn 0.00000000 1.00000000 0.00000000
vn 0.38169294 0.00000000 -0.92428918
vn 0.38169294 0.00000000 -0.92428918
vn 0.00000000 1.00000000 0.00000000
vn 7.0727680e-17 0.00000000 -1.00000000
vn 0.00000000 1.00000000 0.00000000
vn 7.0727680e-17 0.00000000 -1.00000000
vn 0.00000000 -1.00000000 0.00000000
vn 0.00000000 -1.00000000 0.00000000
vn 0.00000000 -1.00000000 0.00000000
vn 0.98073190 0.00000000 -0.19535848
vn 0.19717574 0.00000000 -0.98036816
vn 0.00000000 -1.00000000 0.00000000
vn 0.92369847 0.00000000 -0.38312027
vn 0.92369847 0.00000000 -0.38312027
vn 0.00000000 -1.00000000 0.00000000
vn 0.70663235 0.00000000 -0.70758090
vn 0.70663235 0.00000000 -0.70758090
vn 0.00000000 -1.00000000 0.00000000
vn 0.38169294 0.00000000 -0.92428918
vn 0.38169294 0.00000000 -0.92428918
vn 0.00000000 -1.00000000 0.00000000
vn 7.0727680e-17 0.00000000 -1.00000000
vn 0.00000000 -1.00000000 0.00000000
vn 7.0727680e-17 0.00000000 -1.00000000
vn 0.00000000 -1.00000000 0.00000000
vn 0.00000000 1.00000000 0.00000000
vn 0.38446968 0.00000000 -0.92313762
vn 0.38446968 0.00000000 -0.92313762
vn 0.00000000 1.00000000 0.00000000
vn 0.70833533 0.00000000 -0.70587609
vn 0.70833533 0.00000000 -0.70587609
vn 0.00000000 1.00000000 0.00000000
vn 0.92448406 0.00000000 -0.38122069
vn 0.92448406 0.00000000 -0.38122069
vn 0.00000000 -1.00000000 0.00000000
vn 0.38446968 0.00000000 -0.92313762
vn 0.38446968 0.00000000 -0.92313762
vn 0.00000000 -1.00000000 0.00000000
vn 0.70833533 0.00000000 -0.70587609
vn 0.70833533 0.00000000 -0.70587609
vn 0.92448406 0.00000000 -0.38122069
vn 0.00000000 -1.00000000 0.00000000
vn 0.92448406 0.00000000 -0.38122069
vn 0.00000000 1.00000000 0.00000000
vn 0.00000000 1.00000000 0.00000000
vn 0.00000000 1.00000000 0.00000000
vn 0.00000000 1.00000000 0.00000000
vn -0.98073190 0.00000000 -0.19535848
vn -0.19717574 0.00000000 -0.98036816
vn 0.00000000 1.00000000 0.00000000
vn -0.92369847 0.00000000 -0.38312027
vn -0.92369847 0.00000000 -0.38312027
vn 0.00000000 1.00000000 0.00000000
vn -0.70663235 0.00000000 -0.70758090
vn -0.70663235 0.00000000 -0.70758090
vn 0.00000000 1.00000000 0.00000000
vn -0.38169294 0.00000000 -0.92428918
vn -0.38169294 0.00000000 -0.92428918
vn 0.00000000 -1.00000000 0.00000000
vn 0.00000000 -1.00000000 0.00000000
vn 0.00000000 -1.00000000 0.00000000
vn 0.00000000 -1.00000000 0.00000000
vn -0.98073190 0.00000000 -0.19535848
vn -0.19717574 0.00000000 -0.98036816
vn 0.00000000 -1.00000000 0.00000000
vn -0.92369847 0.00000000 -0.38312027
vn -0.92369847 0.00000000 -0.38312027
vn 0.00000000 -1.00000000 0.00000000
vn -0.70663235 0.00000000 -0.70758090
vn -0.70663235 0.00000000 -0.70758090
vn -0.38169294 0.00000000 -0.92428918
vn 0.00000000 -1.00000000 0.00000000
vn -0.38169294 0.00000000 -0.92428918
vn 0.00000000 1.00000000 0.00000000
vn -0.38446968 0.00000000 -0.92313762
vn -0.38446968 0.00000000 -0.92313762
vn 0.00000000 1.00000000 0.00000000
vn -0.70833533 0.00000000 -0.70587609
vn -0.70833533 0.00000000 -0.70587609
vn -0.92448406 0.00000000 -0.38122069
vn 0.00000000 1.00000000 0.00000000
vn -0.92448406 0.00000000 -0.38122069
vn 0.00000000 -1.00000000 0.00000000
vn -0.38446968 0.00000000 -0.92313762
vn -0.38446968 0.00000000 -0.92313762
vn 0.00000000 -1.00000000 0.00000000
vn -0.70833533 0.00000000 -0.70587609
vn -0.70833533 0.00000000 -0.70587609
vn -0.92448406 0.00000000 -0.38122069
vn 0.00000000 -1.00000000 0.00000000
vn -0.92448406 0.00000000 -0.38122069

usemtl Material/RockyWall
s 1
f 2/18/18 8/17/36 7/22/30 1/23/13
f 3/15/21 9/14/39 8/17/37 2/18/19
f 4/10/24 10/9/42 9/14/40 3/15/22
f 5/6/27 11/5/45 10/9/43 4/10/25
f 5/6/28 28/10/87 32/9/102 11/5/46
f 25/23/78 29/22/92 30/17/97 26/18/82
f 26/18/83 30/17/98 31/14/100 27/15/85
f 27/15/86 31/14/101 32/9/104 28/10/89
f 43/23/133 48/22/153 49/17/156 44/18/137
f 44/18/139 49/17/157 50/14/159 45/15/141
f 45/15/142 50/14/160 51/9/162 46/10/144
f 46/10/145 51/9/163 52/5/165 47/6/147
f 52/5/167 68/9/214 64/10/200 47/6/149
f 62/18/194 66/17/209 65/22/206 61/23/191
f 63/15/197 67/14/212 66/17/210 62/18/195
f 64/10/201 68/9/216 67/14/213 63/15/198
s 2
f 7/22/32 19/17/62 15/18/49 1/23/15
f 15/18/51 19/17/64 20/14/66 16/15/53
f 16/15/54 20/14/67 21/9/69 17/10/56
f 17/10/57 21/9/70 22/5/72 18/6/59
f 22/5/73 60/9/184 57/10/176 18/6/61
f 25/23/79 33/18/105 37/17/118 29/22/93
f 34/15/109 38/14/121 37/17/119 33/18/107
f 35/10/112 39/9/124 38/14/122 34/15/110
f 36/6/115 40/5/127 39/9/125 35/10/113
f 36/6/116 71/10/223 74/9/232 40/5/128
f 43/23/135 55/18/170 58/17/179 48/22/154
f 56/15/173 59/14/182 58/17/180 55/18/171
f 57/10/177 60/9/186 59/14/183 56/15/174
f 65/22/207 72/17/227 69/18/218 61/23/192
f 69/18/219 72/17/228 73/14/230 70/15/221
f 70/15/222 73/14/231 74/9/234 71/10/225
s 3
f 1/11/11 13/2/3 5/1/26 4/4/23 3/7/20 2/8/17
f 1/11/12 23/2/5 6/3/1
f 6/3/1 13/2/3 1/11/14
f 6/3/1 25/11/75 13/2/3
f 6/3/1 41/2/7 25/11/76
f 6/3/1 61/11/187 41/2/7
f 7/11/31 14/20/4 12/21/2
f 7/11/33 24/20/6 22/19/71 21/16/68 20/13/65 19/12/63
f 8/12/38 9/13/41 10/16/44 11/19/47 14/20/4 7/11/34
f 11/19/48 32/16/103 31/13/99 30/12/96 29/11/90 14/20/4
f 12/21/2 24/20/6 7/11/35
f 12/21/2 48/11/150 24/20/6
f 12/21/2 54/20/10 48/11/151
f 12/21/2 65/11/202 54/20/10
f 13/2/3 25/11/77 26/8/81 27/7/84 28/4/88 5/1/29
f 14/20/4 29/11/91 12/21/2
f 15/8/50 16/7/52 17/4/55 18/1/58 23/2/5 1/11/16
f 18/1/60 57/4/175 56/7/172 55/8/169 43/11/131 23/2/5
f 23/2/5 43/11/132 6/3/1
f 24/20/6 48/11/152 58/12/178 59/13/181 60/16/185 22/19/74
f 25/11/80 41/2/7 36/1/114 35/4/111 34/7/108 33/8/106
f 29/11/94 42/20/8 12/21/2
f 37/12/120 38/13/123 39/16/126 40/19/129 42/20/8 29/11/95
f 40/19/130 74/16/233 73/13/229 72/12/226 65/11/203 42/20/8
f 41/2/7 61/11/188 69/8/217 70/7/220 71/4/224 36/1/117
f 42/20/8 65/11/204 12/21/2
f 43/11/134 53/2/9 6/3/1
f 44/8/138 45/7/140 46/4/143 47/1/146 53/2/9 43/11/136
f 47/1/148 64/4/199 63/7/196 62/8/193 61/11/189 53/2/9
f 48/11/155 54/20/10 52/19/166 51/16/164 50/13/161 49/12/158
f 53/2/9 61/11/190 6/3/1
f 54/20/10 65/11/205 66/12/208 67/13/211 68/16/215 52/19/168
