mtllib ../materials/wall.mtl

v 0.50120524 2.00000000 0.50000000
v 0.46314524 2.00000000 0.69134200
v 0.35475824 2.00000000 0.85355300
v 0.19473177 2.00000000 0.96194000
v 0.0000000e+0 2.00000000 1.00000000
v 0.0000000e+0 2.00000000 0.0000000e+0
v 0.50120524 0.0000000e+0 0.50000000
v 0.46314524 0.0000000e+0 0.69134200
v 0.35475824 0.0000000e+0 0.85355300
v 0.19473177 0.0000000e+0 0.96194000
v 0.0000000e+0 0.0000000e+0 1.00000000
v 0.0000000e+0 0.0000000e+0 0.0000000e+0
v 0.0000000e+0 2.00000000 0.50000000
v 0.0000000e+0 0.0000000e+0 0.50000000
v 4.7006005e-2 2.00000000 1.00000000
v 4.7006005e-2 0.0000000e+0 1.00000000
v 0.69245505 2.00000000 0.46147944
v 0.85440463 2.00000000 0.35270222
v 0.96240604 2.00000000 0.19241527
v 0.99999710 2.00000000 -2.4075748e-3
v 0.69245505 -4.4408921e-16 0.46147944
v 0.85440463 -4.4408921e-16 0.35270222
v 0.96240604 -4.4408921e-16 0.19241527
v 0.99999710 -4.4408921e-16 -2.4075748e-3
v 0.49999855 2.00000000 -1.2037874e-3
v 0.49999855 -4.4408921e-16 -1.2037874e-3
v 1.00011027 2.00000000 4.4598294e-2
v 1.00011027 -4.4408921e-16 4.4598294e-2
vt 0.0000000e+0 7.2164497e-16
vt 0.0000000e+0 0.84127209
vt 1.3877788e-16 0.70106008
vt 2.2204460e-16 0.56084806
vt 1.8457458e-15 0.56084806
vt 1.3181613e-2 7.2164497e-16
vt 1.3181613e-2 0.56084806
vt 1.3181613e-2 0.56084806
vt 5.4607469e-2 0.57152100
vt 5.5960266e-2 9.9920072e-16
vt 5.5960266e-2 0.56084806
vt 9.9482735e-2 0.60191532
vt 0.11015994 2.7755576e-16
vt 0.11015994 0.56084806
vt 0.12987705 0.64740318
vt 0.14021161 0.84160966
vt 0.14054999 0.70106008
vt 0.16486789 0.0000000e+0
vt 0.16486789 0.56084806
vt 0.19418104 0.71186217
vt 0.21957597 1.1102230e-16
vt 0.21957597 0.56084806
vt 0.21957597 0.56084806
vt 0.21957597 3.8857806e-16
vt 0.23959559 0.74236591
vt 0.26988178 0.78731423
vt 0.27428405 1.6653345e-16
vt 0.27428405 0.56084806
vt 0.28042322 0.84194723
vt 0.28045495 0.82876566
vt 0.28045495 0.82876566
vt 0.28048669 0.84194723
vt 0.29102813 0.78731423
vt 0.32131432 0.74236591
vt 0.32899200 4.4408921e-16
vt 0.32899200 0.56084806
vt 0.36672887 0.71186217
vt 0.38319167 3.3306691e-16
vt 0.38319167 0.56084806
vt 0.42035991 0.70106008
vt 0.42069830 0.84160966
vt 0.42597033 0.0000000e+0
vt 0.42597033 0.56084806
vt 0.43103285 0.64740318
vt 0.43915194 2.2204460e-16
vt 0.43915194 1.1102230e-16
vt 0.43915194 0.56084806
vt 0.43915194 0.56084806
vt 0.46142717 0.60191532
vt 0.50630244 0.57152100
vt 0.54772829 0.56084806
vt 0.56090991 0.56084806
vt 0.56090991 0.84127209
vt 0.56090991 0.70106008
vt 0.57936395 0.0000000e+0
vt 0.57936395 0.56084806
vt 0.71957597 1.1102230e-16
vt 0.71957597 0.56084806
vt 0.71957597 0.56084806
vt 0.71957597 0.0000000e+0
vt 0.85978798 0.56084806
vt 0.85978798 0.0000000e+0
vt 1.00000000 0.56084806
vt 1.00000000 5.5511151e-17
vn 0.98078557 0.0000000e+0 0.19508889
vn -3.5460540e-16 1.00000000 7.1914615e-17
vn -3.5460540e-16 1.00000000 7.1914615e-17
vn 0.19744964 0.0000000e+0 0.98031303
vn -3.5460540e-16 1.00000000 7.1914615e-17
vn -3.5460540e-16 1.00000000 7.1914615e-17
vn 0.92387894 0.0000000e+0 0.38268487
vn 0.92387894 0.0000000e+0 0.38268487
vn 0.0000000e+0 1.00000000 -2.8765846e-16
vn 0.70932342 0.0000000e+0 0.70488318
vn 0.70932342 0.0000000e+0 0.70488318
vn 0.0000000e+0 1.00000000 -2.8765846e-16
vn 0.41117640 0.0000000e+0 0.91155579
vn 0.41117640 0.0000000e+0 0.91155579
vn 0.0000000e+0 1.00000000 -2.8765846e-16
vn 0.0000000e+0 0.0000000e+0 1.00000000
vn 0.0000000e+0 1.00000000 -2.8765846e-16
vn -1.00000000 0.0000000e+0 0.0000000e+0
vn -4.4302132e-16 1.00000000 0.0000000e+0
vn -1.00000000 0.0000000e+0 0.0000000e+0
vn -4.4302132e-16 1.00000000 0.0000000e+0
vn -2.4075748e-3 0.0000000e+0 -0.99999710
vn 0.98078557 0.0000000e+0 0.19508889
vn -3.5460540e-16 -1.00000000 2.7740635e-16
vn -3.5460540e-16 -1.00000000 2.7740635e-16
vn 0.19744964 0.0000000e+0 0.98031303
vn -3.5460540e-16 -1.00000000 2.7740635e-16
vn -3.5460540e-16 -1.00000000 2.7740635e-16
vn 0.92387894 0.0000000e+0 0.38268487
vn 0.92387894 0.0000000e+0 0.38268487
vn 0.0000000e+0 -1.00000000 0.0000000e+0
vn 0.70932342 0.0000000e+0 0.70488318
vn 0.70932342 0.0000000e+0 0.70488318
vn 0.0000000e+0 -1.00000000 0.0000000e+0
vn 0.41117640 0.0000000e+0 0.91155579
vn 0.41117640 0.0000000e+0 0.91155579
vn 0.0000000e+0 -1.00000000 0.0000000e+0
vn 0.0000000e+0 0.0000000e+0 1.00000000
vn 0.0000000e+0 -1.00000000 0.0000000e+0
vn -1.00000000 0.0000000e+0 0.0000000e+0
vn -4.4302132e-16 -1.00000000 4.4408921e-16
vn -1.00000000 0.0000000e+0 0.0000000e+0
vn -4.4302132e-16 -1.00000000 4.4408921e-16
vn -2.4075748e-3 0.0000000e+0 -0.99999710
vn 0.0000000e+0 1.00000000 -1.4382923e-16
vn 0.0000000e+0 1.00000000 -1.4382923e-16
vn -1.00000000 0.0000000e+0 0.0000000e+0
vn -1.00000000 0.0000000e+0 0.0000000e+0
vn 0.0000000e+0 -1.00000000 0.0000000e+0
vn 0.0000000e+0 -1.00000000 0.0000000e+0
vn -1.00000000 0.0000000e+0 0.0000000e+0
vn -1.00000000 0.0000000e+0 0.0000000e+0
vn 0.12574415 0.0000000e+0 0.99206270
vn 0.12574415 0.0000000e+0 0.99206270
vn 0.0000000e+0 1.00000000 -2.8765846e-16
vn 0.12574415 0.0000000e+0 0.99206270
vn 0.12574415 0.0000000e+0 0.99206270
vn 0.0000000e+0 -1.00000000 0.0000000e+0
vn 0.38490807 0.0000000e+0 0.92295491
vn 0.38490807 0.0000000e+0 0.92295491
vn -5.3237898e-16 1.00000000 5.7531692e-16
vn 0.70658888 0.0000000e+0 0.70762430
vn 0.70658888 0.0000000e+0 0.70762430
vn -5.3237898e-16 1.00000000 5.7531692e-16
vn 0.91254309 0.0000000e+0 0.40898057
vn 0.91254309 0.0000000e+0 0.40898057
vn -5.3237898e-16 1.00000000 5.7531692e-16
vn 0.99999710 0.0000000e+0 -2.4075748e-3
vn -5.3237898e-16 1.00000000 5.7531692e-16
vn -2.4075748e-3 0.0000000e+0 -0.99999710
vn 0.38490807 0.0000000e+0 0.92295491
vn 0.38490807 0.0000000e+0 0.92295491
vn -5.3237898e-16 -1.00000000 2.2144697e-16
vn 0.70658888 0.0000000e+0 0.70762430
vn 0.70658888 0.0000000e+0 0.70762430
vn -5.3237898e-16 -1.00000000 2.2144697e-16
vn 0.91254309 0.0000000e+0 0.40898057
vn 0.91254309 0.0000000e+0 0.40898057
vn -5.3237898e-16 -1.00000000 2.2144697e-16
vn 0.99999710 0.0000000e+0 -2.4075748e-3
vn -5.3237898e-16 -1.00000000 2.2144697e-16
vn -2.4075748e-3 0.0000000e+0 -0.99999710
vn -7.0921081e-16 1.00000000 2.8765846e-16
vn -7.0921081e-16 1.00000000 2.8765846e-16
vn -2.4075748e-3 0.0000000e+0 -0.99999710
vn -2.4075748e-3 0.0000000e+0 -0.99999710
vn -7.0921081e-16 -1.00000000 5.5481269e-16
vn -7.0921081e-16 -1.00000000 5.5481269e-16
vn -2.4075748e-3 0.0000000e+0 -0.99999710
vn -2.4075748e-3 0.0000000e+0 -0.99999710
vn 0.99236257 0.0000000e+0 0.12335532
vn 0.99236257 0.0000000e+0 0.12335532
vn -5.3237898e-16 1.00000000 5.7531692e-16
vn 0.99236257 0.0000000e+0 0.12335532
vn 0.99236257 0.0000000e+0 0.12335532
vn -5.3237898e-16 -1.00000000 2.2144697e-16

usemtl Material/RockyWall
f 5/63/18 13/61/47 14/62/51 11/64/40
f 7/24/26 21/27/71 17/28/59 1/23/4
f 12/60/42 14/62/52 13/61/48 6/58/20
f 17/28/60 21/27/72 22/35/74 18/36/62
f 18/36/63 22/35/75 23/38/77 19/39/65
f 20/47/68 27/43/92 28/42/95 24/45/80
f 23/38/78 28/42/94 27/43/91 19/39/66
s 2
f 1/17/2 13/3/45 5/4/17 15/7/55 4/9/15 3/12/12 2/15/9
f 1/17/6 25/16/84 6/2/21
f 6/2/19 13/3/46 1/17/3
f 7/40/24 14/54/49 12/53/41
f 7/40/28 26/41/88 24/32/81 28/31/96 23/33/79 22/34/76 21/37/73
f 8/44/31 9/49/34 10/50/37 16/51/58 11/52/39 14/54/50 7/40/25
f 12/53/43 26/41/87 7/40/27
f 17/20/61 18/25/64 19/26/67 27/30/93 20/29/69 25/16/83 1/17/5
s 3
f 2/19/7 8/18/29 7/21/23 1/22/1
f 3/14/10 9/13/32 8/18/30 2/19/8
f 4/11/13 10/10/35 9/13/33 3/14/11
f 4/11/14 15/8/53 16/6/56 10/10/36
f 6/59/22 25/56/86 26/55/90 12/57/44
f 11/1/38 16/6/57 15/8/54 5/5/16
f 24/46/82 26/55/89 25/56/85 20/48/70
