mtllib SpiralStairsR1m.mtl

v 0.00000000 1.83333333 1.00000000
v 1.00000000 2.00000000 1.00000000
v 0.00000000 2.00000000 1.00000000
v 0.92388000 1.83333333 0.61731700
v 1.00000000 1.83333333 1.00000000
v 0.92388000 2.00000000 0.61731700

vt 0.24167248 0.14159204
vt 0.25144761 0.23312734
vt 0.26317085 0.27066111
vt 0.46405032 0.23504030
vt 0.46405032 0.27436228
vt 0.47664988 0.16278803
vt 0.48837312 0.20032180
vt 0.52867629 0.16131194
vt 0.52867629 0.20063393
vt 0.55610608 0.23504030
vt 0.55610608 0.27436228
vt 0.74664864 0.29092088
vt 0.76460774 0.16131194
vt 0.76460774 0.20063393

vn 0.00000000 1.00000000 0.00000000
vn 0.00000000 1.00000000 0.00000000
vn 0.00000000 1.00000000 0.00000000

vn 0.00000000 -1.00000000 0.00000000
vn 0.00000000 -1.00000000 0.00000000
vn 0.00000000 -1.00000000 0.00000000

vn 0.00000000 0.00000000 1.0000000e+0
vn 0.00000000 0.00000000 1.0000000e+0
vn 0.00000000 0.00000000 1.0000000e+0
vn 0.00000000 0.00000000 1.0000000e+0

vn 0.98078547 0.00000000 -0.19508938
vn 0.98078547 0.00000000 -0.19508938
vn 0.98078547 0.00000000 -0.19508938
vn 0.98078547 0.00000000 -0.19508938

vn -0.38268290 0.0000000e0 -0.92387975
vn -0.38268290 0.0000000e0 -0.92387975
vn -0.38268290 0.0000000e0 -0.92387975
vn -0.38268290 0.0000000e0 -0.92387975

usemtl SpiralStairsR1m
s 1
f 1/8/7 5/13/10 2/14/8
f 2/14/8 3/9/9 1/8/7
f 2/14/1 6/12/2 3/9/3
f 3/7/16 4/2/17 1/6/15
f 3/7/16 6/3/18 4/2/17
f 4/2/4 5/1/5 1/6/6
f 4/10/12 6/11/14 5/4/13
f 5/4/13 6/11/14 2/5/11
