mtllib SpiralStairsR1m.mtl

v 0.0000000e+0 1.33333333 0.0000000e+0
v 0.0000000e+0 1.50000000 1.00000000
v 0.0000000e+0 1.50000000 0.0000000e+0
v 0.70710700 1.33333333 0.70710700
v 0.38268300 1.33333333 0.92388000
v 0.0000000e+0 1.16666666 0.0000000e+0
v 0.0000000e+0 1.33333333 1.00000000
v 0.38268300 1.66666666 0.92388000
v 0.0000000e+0 1.66666666 0.0000000e+0
v 0.70710700 1.50000000 0.70710700
v 0.92388000 1.50000000 0.38268300
v 0.70710700 1.83333333 0.70710700
v 0.0000000e+0 1.83333333 0.0000000e+0
v 0.92388000 1.66666666 0.38268300
v 1.00000000 1.66666666 0.0000000e+0
v 0.92388000 2.00000000 0.38268300
v 0.0000000e+0 2.00000000 0.0000000e+0
v 1.00000000 1.83333333 0.0000000e+0
v 1.00000000 2.00000000 0.0000000e+0
v 0.38268300 1.50000000 0.92388000
v 0.0000000e+0 1.16666666 1.00000000
v 0.38268300 1.16666666 0.92388000
v 0.70710700 1.66666666 0.70710700
v 0.92388000 1.83333333 0.38268300

vt 0.0000000e+0 1.7809602e-6
vt 0.0000000e+0 0.11777526
vt 0.0000000e+0 0.11777526
vt 0.0000000e+0 0.15703293
vt 0.0000000e+0 0.15703293
vt 0.0000000e+0 0.19629091
vt 0.0000000e+0 0.23554858
vt 0.0000000e+0 0.23554858
vt 0.0000000e+0 0.27480626
vt 0.0000000e+0 0.27480626
vt 0.0000000e+0 0.39257929
vt 0.0000000e+0 0.50525392
vt 0.0000000e+0 0.61792855
vt 0.0000000e+0 0.82612441
vt 5.5511151e-17 7.8517578e-2
vt 8.3266727e-17 0.31406394
vt 2.2204460e-16 0.35332162
vt 2.7755576e-16 0.31406394
vt 2.3778314e-7 3.9259895e-2
vt 1.0282617e-6 7.8517578e-2
vt 2.2412264e-2 0.50525392
vt 0.20819586 0.61792855
vt 0.27202105 0.39257929
vt 0.27202105 0.65718663
vt 0.27202105 0.71344978
vt 0.27202117 0.61792855
vt 0.27202117 0.69644434
vt 0.29443332 0.39257929
vt 0.29443332 0.43183697
vt 0.29443332 0.50525392
vt 0.29443332 0.50525392
vt 0.29443332 0.54451160
vt 0.29443332 0.58376928
vt 0.29443332 0.61792855
vt 0.29443332 0.47109465
vt 0.29443332 0.31406394
vt 0.29443332 0.39257929
vt 0.29443332 0.35332162
vt 0.29443340 0.27480626
vt 0.29443340 0.27480626
vt 0.29443340 0.31406394
vt 0.29443340 0.23554858
vt 0.29443340 0.15703293
vt 0.29443340 0.19629091
vt 0.29443340 0.23554858
vt 0.29443341 0.11777526
vt 0.29443341 0.15703293
vt 0.29443341 0.11777526
vt 0.29443341 7.8517578e-2
vt 0.29443356 3.9257967e-2
vt 0.29443383 0.0000000e+0
vt 0.29443383 7.8515503e-2
vt 0.29443383 0.29443332
vt 0.38690306 0.69644439
vt 0.38690308 0.65718683
vt 0.38690333 0.69644390
vt 0.38690333 0.61792855
vt 0.38690333 0.61792888
vt 0.38690333 0.65718622
vt 0.40710846 2.2412264e-2
vt 0.40710846 2.2412264e-2
vt 0.40931570 0.39257929
vt 0.40931570 0.43183697
vt 0.40931570 0.47109465
vt 0.40931570 0.50525392
vt 0.40931570 0.54451160
vt 0.40931570 0.58376928
vt 0.50178536 0.61792855
vt 0.50178536 0.65718622
vt 0.50178536 0.69644390
vt 0.51978308 0.0000000e+0
vt 0.51978308 0.27202105
vt 0.51978308 0.33584625
vt 0.51978308 0.29443332
vt 0.61530432 0.27202105
vt 0.63245771 0.0000000e+0
vt 0.72797895 6.3825194e-2
vt 0.72797895 0.54404211
vt 0.72797895 9.5521235e-2
vt 0.79180414 0.0000000e+0
vt 1.00000000 0.20819586

vn -1.00000000 0.0000000e+0 0.0000000e+0
vn 0.0000000e+0 -1.00000000 0.0000000e+0
vn -1.00000000 0.0000000e+0 0.0000000e+0
vn 0.70710678 0.0000000e+0 -0.70710678
vn -1.00000000 0.0000000e+0 0.0000000e+0
vn 0.92387975 0.0000000e+0 -0.38268290
vn 0.92387975 0.0000000e+0 -0.38268290
vn -1.00000000 0.0000000e+0 0.0000000e+0
vn -1.00000000 0.0000000e+0 0.0000000e+0
vn 0.19508938 0.0000000e+0 0.98078547
vn 0.0000000e+0 1.00000000 0.0000000e+0
vn -1.00000000 0.0000000e+0 0.0000000e+0
vn -0.92387975 0.0000000e+0 0.38268290
vn 0.70710678 0.0000000e+0 -0.70710678
vn 0.70710678 0.0000000e+0 -0.70710678
vn 0.0000000e+0 -1.00000000 -1.1604587e-15
vn 0.38268290 0.0000000e+0 -0.92387975
vn 0.0000000e+0 1.00000000 0.0000000e+0
vn -0.92387975 0.0000000e+0 0.38268290
vn 0.0000000e+0 -1.00000000 0.0000000e+0
vn 0.70710678 0.0000000e+0 -0.70710678
vn 0.70710678 0.0000000e+0 -0.70710678
vn 0.55556990 0.0000000e+0 0.83146983
vn 0.0000000e+0 -1.00000000 0.0000000e+0
vn 0.19508938 0.0000000e+0 0.98078547
vn 0.19508938 0.0000000e+0 0.98078547
vn 0.55556990 0.0000000e+0 0.83146983
vn 0.92387975 0.0000000e+0 -0.38268290
vn 0.55556990 0.0000000e+0 0.83146983
vn 0.19508938 0.0000000e+0 0.98078547
vn -1.00000000 0.0000000e+0 0.0000000e+0
vn -1.00000000 0.0000000e+0 0.0000000e+0
vn 0.92387975 0.0000000e+0 -0.38268290
vn 0.0000000e+0 -1.00000000 0.0000000e+0
vn -1.00000000 0.0000000e+0 0.0000000e+0
vn -1.00000000 0.0000000e+0 0.0000000e+0
vn 0.19508938 0.0000000e+0 0.98078547
vn 0.19508938 0.0000000e+0 0.98078547
vn 0.19508938 0.0000000e+0 0.98078547
vn -1.00000000 0.0000000e+0 0.0000000e+0
vn -0.92387975 0.0000000e+0 0.38268290
vn -0.92387975 0.0000000e+0 0.38268290
vn 0.55556990 0.0000000e+0 0.83146983
vn 0.0000000e+0 1.00000000 0.0000000e+0
vn -0.92387975 0.0000000e+0 0.38268290
vn -0.70710678 0.0000000e+0 0.70710678
vn 0.38268290 0.0000000e+0 -0.92387975
vn 0.38268290 0.0000000e+0 -0.92387975
vn 0.0000000e+0 -1.00000000 0.0000000e+0
vn 0.0000000e+0 0.0000000e+0 -1.00000000
vn 0.0000000e+0 1.00000000 0.0000000e+0
vn -0.70710678 0.0000000e+0 0.70710678
vn 0.70710678 0.0000000e+0 -0.70710678
vn 0.0000000e+0 -1.00000000 -1.1604587e-15
vn 0.55556990 0.0000000e+0 0.83146983
vn 0.55556990 0.0000000e+0 0.83146983
vn 0.55556990 0.0000000e+0 0.83146983
vn 0.83146983 0.0000000e+0 0.55556990
vn 0.83146983 0.0000000e+0 0.55556990
vn 0.0000000e+0 -1.00000000 -1.1604587e-15
vn 0.38268290 0.0000000e+0 -0.92387975
vn 0.38268290 0.0000000e+0 -0.92387975
vn 0.83146983 0.0000000e+0 0.55556990
vn -0.70710678 0.0000000e+0 0.70710678
vn -0.70710678 0.0000000e+0 0.70710678
vn 0.83146983 0.0000000e+0 0.55556990
vn 0.0000000e+0 1.00000000 0.0000000e+0
vn -0.70710678 0.0000000e+0 0.70710678
vn -0.38268290 0.0000000e+0 0.92387975
vn 0.0000000e+0 0.0000000e+0 -1.00000000
vn 0.0000000e+0 0.0000000e+0 -1.00000000
vn 0.0000000e+0 0.0000000e+0 -1.00000000
vn 0.0000000e+0 1.00000000 0.0000000e+0
vn -0.38268290 0.0000000e+0 0.92387975
vn 0.38268290 0.0000000e+0 -0.92387975
vn 0.0000000e+0 -1.00000000 0.0000000e+0
vn 0.83146983 0.0000000e+0 0.55556990
vn 0.83146983 0.0000000e+0 0.55556990
vn 0.83146983 0.0000000e+0 0.55556990
vn 0.98078547 0.0000000e+0 0.19508938
vn 0.98078547 0.0000000e+0 0.19508938
vn 0.0000000e+0 -1.00000000 0.0000000e+0
vn 0.0000000e+0 0.0000000e+0 -1.00000000
vn 0.0000000e+0 0.0000000e+0 -1.00000000
vn 0.98078547 0.0000000e+0 0.19508938
vn -0.38268290 0.0000000e+0 0.92387975
vn -0.38268290 0.0000000e+0 0.92387975
vn 0.98078547 0.0000000e+0 0.19508938
vn 0.0000000e+0 1.00000000 0.0000000e+0
vn -0.38268290 0.0000000e+0 0.92387975
vn 0.0000000e+0 0.0000000e+0 -1.00000000
vn 0.0000000e+0 0.0000000e+0 -1.00000000
vn 0.0000000e+0 1.00000000 0.0000000e+0
vn 0.0000000e+0 0.0000000e+0 -1.00000000
vn 0.0000000e+0 0.0000000e+0 -1.00000000
vn 0.0000000e+0 0.0000000e+0 -1.00000000
vn 0.98078547 0.0000000e+0 0.19508938
vn 0.98078547 0.0000000e+0 0.19508938
vn 0.98078547 0.0000000e+0 0.19508938
vn 0.0000000e+0 0.0000000e+0 -1.00000000
vn 0.98078547 0.0000000e+0 0.19508938
vn 0.0000000e+0 1.00000000 0.0000000e+0
vn 0.98078547 0.0000000e+0 0.19508938
vn 0.19508938 0.0000000e+0 0.98078547
vn 0.0000000e+0 1.00000000 0.0000000e+0
vn 0.19508938 0.0000000e+0 0.98078547
vn 0.55556990 0.0000000e+0 0.83146983
vn -0.92387975 0.0000000e+0 0.38268290
vn 0.55556990 0.0000000e+0 0.83146983
vn 0.55556990 0.0000000e+0 0.83146983
vn 0.19508938 0.0000000e+0 0.98078547
vn -1.00000000 0.0000000e+0 0.0000000e+0
vn 0.0000000e+0 -1.00000000 0.0000000e+0
vn 0.19508938 0.0000000e+0 0.98078547
vn 0.92387975 0.0000000e+0 -0.38268290
vn 0.92387975 0.0000000e+0 -0.38268290
vn 0.0000000e+0 -1.00000000 0.0000000e+0
vn 0.19508938 0.0000000e+0 0.98078547
vn 0.55556990 0.0000000e+0 0.83146983
vn 0.0000000e+0 1.00000000 0.0000000e+0
vn 0.55556990 0.0000000e+0 0.83146983
vn 0.83146983 0.0000000e+0 0.55556990
vn -0.70710678 0.0000000e+0 0.70710678
vn 0.83146983 0.0000000e+0 0.55556990
vn 0.83146983 0.0000000e+0 0.55556990
vn 0.83146983 0.0000000e+0 0.55556990
vn 0.0000000e+0 1.00000000 0.0000000e+0
vn 0.83146983 0.0000000e+0 0.55556990
vn 0.98078547 0.0000000e+0 0.19508938
vn -0.38268290 0.0000000e+0 0.92387975
vn 0.98078547 0.0000000e+0 0.19508938
vn 0.98078547 0.0000000e+0 0.19508938

usemtl SpiralStairsR1m
s 1
f 2/51/11 20/60/105 3/53/18
f 3/81/16 11/79/60 10/80/54
f 4/73/20 5/75/24 1/78/2
f 6/74/34 22/61/117 21/71/113
f 8/76/44 23/77/120 9/72/51
f 9/34/49 15/13/82 14/21/76
f 12/22/67 24/25/127 13/14/73
f 16/23/89 19/30/102 17/12/93
s 2
f 1/44/7 22/4/116 6/43/33
f 3/47/14 4/3/21 1/46/4
f 3/47/15 10/5/53 4/3/22
f 3/10/19 20/40/108 8/41/42
f 5/6/28 22/4/115 1/44/6
f 8/41/41 9/16/45 3/10/13
f 9/15/52 23/49/123 12/48/65
f 12/48/64 13/2/68 9/15/46
f 15/68/85 18/69/98 14/57/81
f 16/56/88 24/59/131 19/70/101
f 18/69/97 24/59/129 14/57/80
f 19/70/103 24/59/132 18/69/99
s 3
f 5/55/26 20/54/106 7/24/39
f 7/24/37 20/54/104 2/27/10
f 7/24/38 21/26/111 5/55/25
f 11/65/63 14/66/78 10/31/59
f 13/6/74 24/44/130 16/45/87
f 14/66/77 23/32/122 10/31/58
f 14/66/79 24/67/128 23/32/125
f 16/45/86 17/7/90 13/6/69
f 21/26/114 22/58/118 5/55/30
f 23/32/124 24/67/126 12/33/66
s 4
f 1/19/5 7/50/36 2/52/9
f 2/52/8 3/20/12 1/19/1
f 4/62/23 10/63/56 5/28/29
f 6/1/31 7/50/35 1/19/3
f 6/1/32 21/51/112 7/50/40
f 9/39/47 11/8/61 3/42/17
f 9/39/48 14/9/75 11/8/62
f 10/63/55 20/29/107 5/28/27
f 10/63/57 23/64/121 20/29/110
f 13/38/70 15/18/83 9/36/50
f 13/38/71 18/17/94 15/18/84
f 17/37/91 18/17/95 13/38/72
f 17/37/92 19/11/100 18/17/96
f 20/29/109 23/64/119 8/35/43
