mtllib StraightStairs.mtl

v 0.0000000e+0 0.16666666 0.0000000e+0
v 1.00000000 0.16666666 0.0000000e+0
v 0.0000000e+0 0.0000000e+0 0.0000000e+0
v 1.00000000 0.0000000e+0 0.0000000e+0
v 0.0000000e+0 0.16666666 0.25000000
v 0.0000000e+0 0.0000000e+0 0.25000000
v 1.00000000 0.16666666 0.25000000
v 1.00000000 0.0000000e+0 0.25000000
v 0.0000000e+0 0.0000000e+0 0.50000000
v 0.0000000e+0 0.33333333 0.50000000
v 0.0000000e+0 0.33333333 0.25000000
v 1.00000000 0.33333333 0.50000000
v 1.00000000 0.0000000e+0 0.50000000
v 1.00000000 0.33333333 0.25000000
v 0.0000000e+0 0.50000000 0.75000000
v 0.0000000e+0 0.50000000 0.50000000
v 1.00000000 0.50000000 0.75000000
v 1.00000000 0.50000000 0.50000000
v 0.0000000e+0 0.16666667 0.75000000
v 0.0000000e+0 0.33333333 0.75000000
v 1.00000000 0.33333333 0.75000000
v 1.00000000 0.16666667 0.75000000
v 0.0000000e+0 0.16666666 0.50000000
v 1.00000000 0.16666666 0.50000000
v 0.0000000e+0 0.33333333 1.00000000
v 1.00000000 0.33333333 1.00000000
v 1.00000000 0.50000000 1.00000000
v 0.0000000e+0 0.50000000 1.00000000
v 0.0000000e+0 0.66666666 1.00000000
v 1.00000000 0.66666666 1.00000000
v 1.00000000 0.66666666 0.75000000
v 0.0000000e+0 0.66666666 0.75000000
vt 0.0000000e+0 1.5675678e-8
vt 0.0000000e+0 0.25925927
vt 0.0000000e+0 0.37037038
vt 0.0000000e+0 0.44444445
vt 0.0000000e+0 0.44444445
vt 0.0000000e+0 0.55555556
vt 0.0000000e+0 0.66666667
vt 0.0000000e+0 0.66666667
vt 0.0000000e+0 0.77777778
vt 0.0000000e+0 1.00000000
vt 5.5511151e-17 0.14814816
vt 8.3266727e-17 0.37037038
vt 3.3306691e-16 0.92592593
vt 6.6613381e-16 0.85185186
vt 2.6216221e-9 7.4074092e-2
vt 1.1927928e-8 0.14814816
vt 0.11111111 1.00000000
vt 0.11111111 0.92592593
vt 0.11111111 0.77777778
vt 0.11111111 0.85185185
vt 0.22222222 0.85185185
vt 0.22222222 0.77777778
vt 0.22222222 0.92592593
vt 0.33333333 0.85185185
vt 0.33333333 0.77777778
vt 0.33333333 0.85185185
vt 0.33333333 0.77777778
vt 0.44444444 0.55555556
vt 0.44444444 0.77777778
vt 0.44444444 0.14814816
vt 0.44444444 0.37037038
vt 0.44444444 0.44444445
vt 0.44444444 0.55555556
vt 0.44444444 0.66666667
vt 0.44444444 0.66666667
vt 0.44444444 0.37037038
vt 0.44444444 0.25925927
vt 0.44444444 0.77777778
vt 0.44444444 0.85185185
vt 0.44444444 0.92592593
vt 0.44444444 7.4074074e-2
vt 0.44444444 0.0000000e+0
vt 0.44444444 0.14814814
vt 0.44444444 0.0000000e+0
vt 0.44444444 0.11111111
vt 0.44444444 0.11111111
vt 0.44444444 0.22222222
vt 0.44444444 0.29629629
vt 0.44444444 0.37037037
vt 0.44444444 0.44444444
vt 0.44444444 0.44444444
vt 0.44444444 0.51851851
vt 0.44444444 0.22222222
vt 0.44444444 0.29629629
vt 0.44444444 0.51851851
vt 0.44444444 0.62962962
vt 0.44444444 0.70370369
vt 0.55555555 1.00000000
vt 0.55555555 0.92592593
vt 0.55555555 0.77777778
vt 0.55555555 0.85185185
vt 0.66666666 0.92592593
vt 0.66666666 1.00000000
vt 0.66666666 0.77777778
vt 0.66666666 0.92592593
vt 0.66666666 0.85185186
vt 0.66666666 0.85185186
vt 0.77777777 0.77777778
vt 0.77777777 0.92592593
vt 0.77777777 0.85185186
vt 0.77777777 0.92592593
vt 0.77777777 0.77777778
vt 0.88888888 0.85185186
vt 0.88888888 0.77777778
vt 0.88888888 0.92592593
vt 0.88888888 0.44444444
vt 0.88888888 0.51851851
vt 0.88888888 0.62962962
vt 0.88888888 0.62962962
vt 0.88888888 0.70370369
vt 0.88888888 0.0000000e+0
vt 0.88888888 0.11111111
vt 0.88888888 0.11111111
vt 0.88888888 0.22222222
vt 0.88888888 0.29629629
vt 0.88888888 0.29629629
vt 0.88888888 0.37037037
vt 0.88888888 0.37037037
vt 0.88888888 0.44444444
vt 0.88888888 0.51851851
vn 0.0000000e+0 1.00000000 0.0000000e+0
vn 0.0000000e+0 0.0000000e+0 -1.00000000
vn -1.00000000 0.0000000e+0 0.0000000e+0
vn 0.0000000e+0 1.00000000 0.0000000e+0
vn 0.0000000e+0 0.0000000e+0 -1.00000000
vn 1.00000000 0.0000000e+0 0.0000000e+0
vn 0.0000000e+0 -1.00000000 0.0000000e+0
vn 0.0000000e+0 0.0000000e+0 -1.00000000
vn -1.00000000 0.0000000e+0 0.0000000e+0
vn 0.0000000e+0 -1.00000000 0.0000000e+0
vn 0.0000000e+0 0.0000000e+0 -1.00000000
vn 1.00000000 0.0000000e+0 0.0000000e+0
vn 0.0000000e+0 1.00000000 0.0000000e+0
vn 0.0000000e+0 0.0000000e+0 -1.00000000
vn -1.00000000 0.0000000e+0 0.0000000e+0
vn -1.00000000 0.0000000e+0 0.0000000e+0
vn -1.00000000 0.0000000e+0 0.0000000e+0
vn 0.0000000e+0 -1.00000000 0.0000000e+0
vn 0.0000000e+0 -1.00000000 0.0000000e+0
vn -1.00000000 0.0000000e+0 0.0000000e+0
vn -1.00000000 0.0000000e+0 0.0000000e+0
vn 0.0000000e+0 1.00000000 0.0000000e+0
vn 0.0000000e+0 0.0000000e+0 -1.00000000
vn 1.00000000 0.0000000e+0 0.0000000e+0
vn 1.00000000 0.0000000e+0 0.0000000e+0
vn 1.00000000 0.0000000e+0 0.0000000e+0
vn 0.0000000e+0 -1.00000000 0.0000000e+0
vn 0.0000000e+0 -1.00000000 0.0000000e+0
vn 1.00000000 0.0000000e+0 0.0000000e+0
vn 1.00000000 0.0000000e+0 0.0000000e+0
vn 0.0000000e+0 -1.00000000 0.0000000e+0
vn 0.0000000e+0 0.0000000e+0 1.00000000
vn -1.00000000 0.0000000e+0 0.0000000e+0
vn 0.0000000e+0 1.00000000 0.0000000e+0
vn 0.0000000e+0 0.0000000e+0 -1.00000000
vn -1.00000000 0.0000000e+0 0.0000000e+0
vn -1.00000000 0.0000000e+0 0.0000000e+0
vn -1.00000000 0.0000000e+0 0.0000000e+0
vn 0.0000000e+0 1.00000000 0.0000000e+0
vn 0.0000000e+0 0.0000000e+0 -1.00000000
vn -1.00000000 0.0000000e+0 0.0000000e+0
vn 0.0000000e+0 1.00000000 0.0000000e+0
vn 0.0000000e+0 0.0000000e+0 -1.00000000
vn 1.00000000 0.0000000e+0 0.0000000e+0
vn 1.00000000 0.0000000e+0 0.0000000e+0
vn 1.00000000 0.0000000e+0 0.0000000e+0
vn 0.0000000e+0 -1.00000000 0.0000000e+0
vn 0.0000000e+0 0.0000000e+0 1.00000000
vn 1.00000000 0.0000000e+0 0.0000000e+0
vn 0.0000000e+0 1.00000000 0.0000000e+0
vn 0.0000000e+0 0.0000000e+0 -1.00000000
vn 1.00000000 0.0000000e+0 0.0000000e+0
vn 0.0000000e+0 1.00000000 0.0000000e+0
vn 0.0000000e+0 0.0000000e+0 -1.00000000
vn -1.00000000 0.0000000e+0 0.0000000e+0
vn -1.00000000 0.0000000e+0 0.0000000e+0
vn -1.00000000 0.0000000e+0 0.0000000e+0
vn 0.0000000e+0 1.00000000 0.0000000e+0
vn 0.0000000e+0 0.0000000e+0 -1.00000000
vn -1.00000000 0.0000000e+0 0.0000000e+0
vn 0.0000000e+0 1.00000000 0.0000000e+0
vn 0.0000000e+0 0.0000000e+0 -1.00000000
vn 1.00000000 0.0000000e+0 0.0000000e+0
vn 1.00000000 0.0000000e+0 0.0000000e+0
vn 1.00000000 0.0000000e+0 0.0000000e+0
vn 0.0000000e+0 1.00000000 0.0000000e+0
vn 0.0000000e+0 0.0000000e+0 -1.00000000
vn 1.00000000 0.0000000e+0 0.0000000e+0
vn 0.0000000e+0 -1.00000000 4.0000000e-8
vn 0.0000000e+0 0.0000000e+0 1.00000000
vn -1.00000000 0.0000000e+0 0.0000000e+0
vn 0.0000000e+0 -1.00000000 0.0000000e+0
vn 0.0000000e+0 0.0000000e+0 1.00000000
vn -1.00000000 0.0000000e+0 0.0000000e+0
vn -1.00000000 0.0000000e+0 0.0000000e+0
vn -1.00000000 0.0000000e+0 0.0000000e+0
vn 0.0000000e+0 -1.00000000 0.0000000e+0
vn 0.0000000e+0 0.0000000e+0 1.00000000
vn 1.00000000 0.0000000e+0 0.0000000e+0
vn 1.00000000 0.0000000e+0 0.0000000e+0
vn 1.00000000 0.0000000e+0 0.0000000e+0
vn 0.0000000e+0 -1.00000000 4.0000000e-8
vn 0.0000000e+0 0.0000000e+0 1.00000000
vn 1.00000000 0.0000000e+0 0.0000000e+0
vn 0.0000000e+0 -1.00000000 4.0000000e-8
vn 0.0000000e+0 0.0000000e+0 1.00000000
vn -1.00000000 0.0000000e+0 0.0000000e+0
vn -1.00000000 0.0000000e+0 0.0000000e+0
vn -1.00000000 0.0000000e+0 0.0000000e+0
vn 0.0000000e+0 -1.00000000 4.0000000e-8
vn 0.0000000e+0 0.0000000e+0 1.00000000
vn 1.00000000 0.0000000e+0 0.0000000e+0
vn 1.00000000 0.0000000e+0 0.0000000e+0
vn 1.00000000 0.0000000e+0 0.0000000e+0
vn 0.0000000e+0 -1.00000000 0.0000000e+0
vn 0.0000000e+0 0.0000000e+0 1.00000000
vn -1.00000000 0.0000000e+0 0.0000000e+0
vn 0.0000000e+0 -1.00000000 0.0000000e+0
vn 0.0000000e+0 0.0000000e+0 1.00000000
vn 1.00000000 0.0000000e+0 0.0000000e+0
vn 0.0000000e+0 0.0000000e+0 1.00000000
vn 0.0000000e+0 0.0000000e+0 1.00000000
vn 1.00000000 0.0000000e+0 0.0000000e+0
vn 1.00000000 0.0000000e+0 0.0000000e+0
vn 0.0000000e+0 0.0000000e+0 1.00000000
vn 0.0000000e+0 0.0000000e+0 1.00000000
vn -1.00000000 0.0000000e+0 0.0000000e+0
vn -1.00000000 0.0000000e+0 0.0000000e+0
vn 0.0000000e+0 1.00000000 0.0000000e+0
vn 0.0000000e+0 0.0000000e+0 1.00000000
vn -1.00000000 0.0000000e+0 0.0000000e+0
vn 0.0000000e+0 1.00000000 0.0000000e+0
vn 0.0000000e+0 0.0000000e+0 1.00000000
vn 1.00000000 0.0000000e+0 0.0000000e+0
vn 0.0000000e+0 1.00000000 0.0000000e+0
vn 0.0000000e+0 0.0000000e+0 -1.00000000
vn 1.00000000 0.0000000e+0 0.0000000e+0
vn 0.0000000e+0 1.00000000 0.0000000e+0
vn 0.0000000e+0 0.0000000e+0 -1.00000000
vn -1.00000000 0.0000000e+0 0.0000000e+0

usemtl StraightStairs
s 1
f 1/56/1 5/55/13 7/77/22 2/78/4
f 4/3/10 8/2/27 6/37/18 3/31/7
f 8/2/28 13/11/47 9/30/31 6/37/19
f 10/45/34 12/82/42 14/84/50 11/47/39
f 15/44/53 17/81/61 18/83/66 16/46/58
f 19/32/69 23/33/85 24/6/90 22/5/82
f 21/7/77 26/6/98 25/28/95 20/34/72
f 30/35/112 31/29/115 32/9/118 29/8/109
s 2
f 2/4/5 4/12/11 3/36/8 1/32/2
f 5/86/14 11/87/40 14/49/51 7/54/23
f 10/84/35 16/85/59 18/48/67 12/53/43
f 13/89/48 24/90/91 23/52/86 9/51/32
f 15/79/54 32/80/119 31/57/116 17/56/62
f 19/49/70 22/88/83 21/76/78 20/50/73
f 26/42/99 27/41/101 28/15/105 25/1/96
f 27/41/102 30/43/113 29/16/110 28/15/106
s 3
f 17/70/64 27/67/103 26/64/100 21/68/81
f 17/70/65 31/69/117 30/65/114 27/67/104
f 20/72/76 25/74/97 28/73/107 15/70/56
f 28/73/108 29/75/111 32/71/120 15/70/57
s 4
f 2/24/6 7/21/24 8/22/29 4/25/12
f 3/27/9 6/38/20 5/39/15 1/26/3
f 5/39/16 23/61/87 10/59/36 11/40/41
f 6/38/21 9/60/33 23/61/88 5/39/17
f 7/21/25 24/20/92 13/19/49 8/22/30
f 10/59/37 20/62/74 15/63/55 16/58/60
f 10/59/38 23/61/89 19/66/71 20/62/75
f 14/23/52 12/18/44 24/20/93 7/21/26
f 18/17/68 17/10/63 21/13/79 12/18/45
f 21/13/80 22/14/84 24/20/94 12/18/46
