mtllib StraightStairs.mtl

v 0.0000000e+0 1.83333333 0.0000000e+0
v 1.00000000 1.83333333 0.0000000e+0
v 1.00000000 1.83333333 0.25000000
v 0.0000000e+0 1.83333333 0.25000000
v 0.0000000e+0 2.00000000 0.25000000
v 1.00000000 2.00000000 0.25000000
v 1.00000000 2.00000000 0.0000000e+0
v 0.0000000e+0 2.00000000 0.0000000e+0
vt 0.15597619 0.10774762
vt 0.15597619 0.25060476
vt 0.15597619 0.31260476
vt 0.15597619 0.16974762
vt 0.24459365 6.0787301e-2
vt 0.24459365 0.15378730
vt 0.24517143 0.15706190
vt 0.24517143 0.25006190
vt 0.24897619 0.25060476
vt 0.24897619 0.31260476
vt 0.24897619 0.10774762
vt 0.24897619 0.16974762
vt 0.25080476 0.25262222
vt 0.25080476 0.31462222
vt 0.25152698 0.31516825
vt 0.25152698 0.37716825
vt 0.61659364 6.0787301e-2
vt 0.61659364 0.15378730
vt 0.61717142 0.15706190
vt 0.61717142 0.25006190
vt 0.62280475 0.31462222
vt 0.62280475 0.25262222
vt 0.62352698 0.37716825
vt 0.62352698 0.31516825
vn 0.0000000e+0 -1.00000000 0.0000000e+0
vn 0.0000000e+0 0.0000000e+0 -1.00000000
vn -1.00000000 0.0000000e+0 0.0000000e+0
vn 0.0000000e+0 -1.00000000 0.0000000e+0
vn 0.0000000e+0 0.0000000e+0 -1.00000000
vn 1.00000000 0.0000000e+0 0.0000000e+0
vn 0.0000000e+0 -1.00000000 0.0000000e+0
vn 0.0000000e+0 0.0000000e+0 1.00000000
vn 1.00000000 0.0000000e+0 0.0000000e+0
vn 0.0000000e+0 -1.00000000 0.0000000e+0
vn 0.0000000e+0 0.0000000e+0 1.00000000
vn -1.00000000 0.0000000e+0 0.0000000e+0
vn 0.0000000e+0 1.00000000 0.0000000e+0
vn 0.0000000e+0 0.0000000e+0 1.00000000
vn -1.00000000 0.0000000e+0 0.0000000e+0
vn 0.0000000e+0 1.00000000 0.0000000e+0
vn 0.0000000e+0 0.0000000e+0 1.00000000
vn 1.00000000 0.0000000e+0 0.0000000e+0
vn 0.0000000e+0 1.00000000 0.0000000e+0
vn 0.0000000e+0 0.0000000e+0 -1.00000000
vn 1.00000000 0.0000000e+0 0.0000000e+0
vn 0.0000000e+0 1.00000000 0.0000000e+0
vn 0.0000000e+0 0.0000000e+0 -1.00000000
vn -1.00000000 0.0000000e+0 0.0000000e+0

usemtl StraightStairs
s 1
f 2/9/6 7/10/21 6/3/18 3/2/9
f 4/11/12 5/12/15 8/4/24 1/1/3
s 2
f 1/24/2 8/23/23 7/16/20 2/15/5
f 3/22/8 6/21/17 5/14/14 4/13/11
s 3
f 2/6/4 3/5/7 4/17/10 1/18/1
f 6/19/16 7/20/19 8/8/22 5/7/13
