mtllib SpiralStairsR1m.mtl

v 1.00000000 0.0000000e+0 0.0000000e+0
v 0.0000000e+0 0.0000000e+0 0.0000000e+0
v 7.6120000e-2 0.0000000e+0 0.38268300
v 0.29289300 0.0000000e+0 0.70710700
v 0.61731700 0.0000000e+0 0.92388000
v 1.00000000 0.0000000e+0 1.00000000
v 1.00000000 0.83333300 0.0000000e+0
v 0.0000000e+0 0.83333300 0.0000000e+0
v 7.6120000e-2 0.83333300 0.38268300
v 1.00000000 1.00000000 0.0000000e+0
v 7.6120000e-2 1.00000000 0.38268300
v 0.29289300 1.00000000 0.70710700
v 1.00000000 1.16666700 0.0000000e+0
v 0.29289300 1.16666700 0.70710700
v 0.61731700 1.16666700 0.92388000
v 1.00000000 1.33333300 0.0000000e+0
v 0.61731700 1.33333300 0.92388000
v 1.00000000 1.33333300 1.00000000
vt 1.8281000e-2 0.98155100
vt 2.3394000e-2 0.26678000
vt 3.0454000e-2 0.36967700
vt 3.8403000e-2 0.88039400
vt 4.1987000e-2 0.41219700
vt 5.1478000e-2 4.8298000e-2
vt 8.7887000e-2 0.50456000
vt 9.5704000e-2 0.79463700
vt 0.11481300 0.53942900
vt 0.18146100 0.73733600
vt 0.19256500 0.60719600
vt 0.23078600 0.62910700
vt 0.28261800 0.71721500
vt 0.28261800 0.98155100
vt 0.28557300 0.30048100
vt 0.29710600 0.34300100
vt 0.30823200 0.71729900
vt 0.30823200 0.98163500
vt 0.31365700 8.1998000e-2
vt 0.32403200 0.37787100
vt 0.32855200 0.66196100
vt 0.36225300 0.39978200
vt 0.39311000 2.4487000e-2
vt 0.39311000 0.37693500
vt 0.39311000 0.41672600
vt 0.39311000 0.63700600
vt 0.41137100 0.71729900
vt 0.41137100 0.98163500
vt 0.49624900 2.4487000e-2
vt 0.49624900 0.37693500
vt 0.49624900 0.41672600
vt 0.49624900 0.63700600
vt 0.52178000 2.4487000e-2
vt 0.52178000 0.37693500
vt 0.78611600 2.4487000e-2
vt 0.78611600 0.37693500
vt 0.81164700 2.1426000e-2
vt 0.81164700 0.32981800
vt 0.91478600 2.1426000e-2
vt 0.91478600 0.32981800
vn 0.0000000e+0 -1.00000000 0.0000000e+0
vn 0.0000000e+0 -1.00000000 0.0000000e+0
vn 0.0000000e+0 -1.00000000 0.0000000e+0
vn 0.0000000e+0 -1.00000000 0.0000000e+0
vn 0.0000000e+0 0.0000000e+0 -1.00000000
vn 0.0000000e+0 0.0000000e+0 -1.00000000
vn 1.00000000 0.0000000e+0 0.0000000e+0
vn -0.98078547 0.0000000e+0 0.19508938
vn -0.98078547 0.0000000e+0 0.19508938
vn 0.0000000e+0 -1.00000000 0.0000000e+0
vn 0.0000000e+0 0.0000000e+0 -1.00000000
vn -0.98078547 0.0000000e+0 0.19508938
vn 0.0000000e+0 -1.00000000 0.0000000e+0
vn 0.0000000e+0 -1.00000000 0.0000000e+0
vn -0.83146983 0.0000000e+0 0.55556990
vn -0.83146983 0.0000000e+0 0.55556990
vn -0.55556990 0.0000000e+0 0.83146983
vn -0.55556990 0.0000000e+0 0.83146983
vn 0.0000000e+0 -1.00000000 0.0000000e+0
vn 0.0000000e+0 -1.00000000 0.0000000e+0
vn -0.83146983 0.0000000e+0 0.55556990
vn -0.55556990 0.0000000e+0 0.83146983
vn -0.19508938 0.0000000e+0 0.98078547
vn -0.19508938 0.0000000e+0 0.98078547
vn 0.0000000e+0 -1.00000000 0.0000000e+0
vn 0.0000000e+0 -1.00000000 0.0000000e+0
vn -0.19508938 0.0000000e+0 0.98078547
vn 0.0000000e+0 -1.00000000 0.0000000e+0
vn 1.00000000 0.0000000e+0 0.0000000e+0
vn 1.00000000 0.0000000e+0 0.0000000e+0
vn 0.0000000e+0 1.00000000 0.0000000e+0
vn 0.0000000e+0 0.0000000e+0 -1.00000000
vn -0.38268290 0.0000000e+0 -0.92387975
vn -0.38268290 0.0000000e+0 -0.92387975
vn -0.98078547 0.0000000e+0 0.19508938
vn 0.0000000e+0 1.00000000 0.0000000e+0
vn 0.0000000e+0 0.0000000e+0 -1.00000000
vn 0.0000000e+0 0.0000000e+0 -1.00000000
vn -0.98078547 0.0000000e+0 0.19508938
vn -0.98078547 0.0000000e+0 0.19508938
vn 0.0000000e+0 1.00000000 0.0000000e+0
vn -0.38268290 0.0000000e+0 -0.92387975
vn 0.0000000e+0 1.00000000 5.8022937e-16
vn -0.38268290 0.0000000e+0 -0.92387975
vn -0.70710678 0.0000000e+0 -0.70710678
vn -0.70710678 0.0000000e+0 -0.70710678
vn 0.0000000e+0 1.00000000 5.8022937e-16
vn -0.38268290 0.0000000e+0 -0.92387975
vn -0.38268290 0.0000000e+0 -0.92387975
vn -0.83146983 0.0000000e+0 0.55556990
vn 0.0000000e+0 1.00000000 5.8022937e-16
vn -0.70710678 0.0000000e+0 -0.70710678
vn -0.83146983 0.0000000e+0 0.55556990
vn -0.83146983 0.0000000e+0 0.55556990
vn 0.0000000e+0 1.00000000 -5.8022937e-16
vn -0.70710678 0.0000000e+0 -0.70710678
vn -0.92387975 0.0000000e+0 -0.38268290
vn -0.92387975 0.0000000e+0 -0.38268290
vn -0.55556990 0.0000000e+0 0.83146983
vn 0.0000000e+0 1.00000000 -5.8022937e-16
vn -0.70710678 0.0000000e+0 -0.70710678
vn -0.70710678 0.0000000e+0 -0.70710678
vn -0.55556990 0.0000000e+0 0.83146983
vn -0.55556990 0.0000000e+0 0.83146983
vn 0.0000000e+0 1.00000000 -5.8022937e-16
vn -0.92387975 0.0000000e+0 -0.38268290
vn 0.0000000e+0 1.00000000 0.0000000e+0
vn -0.92387975 0.0000000e+0 -0.38268290
vn 1.00000000 0.0000000e+0 0.0000000e+0
vn 1.00000000 0.0000000e+0 0.0000000e+0
vn -0.19508938 0.0000000e+0 0.98078547
vn 0.0000000e+0 1.00000000 0.0000000e+0
vn -0.92387975 0.0000000e+0 -0.38268290
vn -0.92387975 0.0000000e+0 -0.38268290
vn -0.19508938 0.0000000e+0 0.98078547
vn -0.19508938 0.0000000e+0 0.98078547
vn 0.0000000e+0 1.00000000 0.0000000e+0
vn 1.00000000 0.0000000e+0 0.0000000e+0

usemtl SpiralStairsR1m
s 1
f 1/19/6 8/2/38 7/15/32
f 2/6/11 8/2/37 1/19/5
f 4/39/18 15/38/64 14/40/59
f 5/37/22 15/38/63 4/39/17
f 7/15/34 11/5/49 10/16/44
f 9/3/42 11/5/48 7/15/33
f 10/16/46 14/9/62 13/20/56
f 12/7/52 14/9/61 10/16/45
f 17/12/72 18/21/77 16/22/67
s 2
f 2/31/9 9/26/40 8/32/35
f 3/25/12 9/26/39 2/31/8
f 5/29/24 18/24/76 17/30/71
f 6/23/27 18/24/75 5/29/23
f 11/5/47 12/7/51 10/16/43
f 14/9/60 15/11/65 13/20/55
s 3
f 1/33/7 16/34/69 6/35/29
f 3/27/16 12/18/54 11/28/50
f 4/17/21 12/18/53 3/27/15
f 8/2/36 9/3/41 7/15/31
f 16/34/70 18/36/78 6/35/30
s 4
f 1/14/1 3/4/13 2/1/10
f 1/14/2 4/8/19 3/4/14
f 1/14/3 5/10/25 4/8/20
f 1/14/4 6/13/28 5/10/26
f 13/20/58 17/12/74 16/22/68
f 15/11/66 17/12/73 13/20/57
