mtllib StraightStairs.mtl

v 0.0000000e+0 0.83333333 0.0000000e+0
v 1.00000000 0.83333333 0.0000000e+0
v 0.0000000e+0 0.0000000e+0 0.0000000e+0
v 1.00000000 0.0000000e+0 0.0000000e+0
v 0.0000000e+0 0.83333333 0.25000000
v 1.00000000 0.83333333 0.25000000
v 0.0000000e+0 0.99888043 0.50000000
v 0.0000000e+0 0.99888043 0.25000000
v 1.00000000 0.99888043 0.50000000
v 1.00000000 0.99888043 0.25000000
v 0.0000000e+0 1.16666666 0.75000000
v 0.0000000e+0 1.16666666 0.50000000
v 1.00000000 1.16666666 0.75000000
v 1.00000000 1.16666666 0.50000000
v 0.0000000e+0 1.33333333 1.00000000
v 1.00000000 1.33333333 1.00000000
v 1.00000000 1.33333333 0.75000000
v 0.0000000e+0 1.33333333 0.75000000
v 1.00000000 0.0000000e+0 1.00000000
v 0.0000000e+0 0.0000000e+0 1.00000000
v 0.0000000e+0 0.0000000e+0 0.25000000
v 0.0000000e+0 0.0000000e+0 0.50000000
v 0.0000000e+0 0.0000000e+0 0.75000000
v 1.00000000 0.0000000e+0 0.25000000
v 1.00000000 0.0000000e+0 0.50000000
v 1.00000000 0.0000000e+0 0.75000000
vt 5.9000000e-2 0.81022222
vt 5.9000000e-2 0.52311111
vt 5.9000000e-2 7.8646342e-2
vt 5.9000000e-2 0.36575745
vt 0.11283333 7.8646342e-2
vt 0.11283333 0.36575745
vt 0.11283333 0.32986856
vt 0.16666667 7.8646342e-2
vt 0.16666667 0.29373859
vt 0.16666667 0.32986856
vt 0.22050000 7.8646342e-2
vt 0.22050000 0.29373859
vt 0.22050000 0.25809079
vt 0.27433333 0.52311111
vt 0.27433333 0.81022222
vt 0.27433333 7.8646342e-2
vt 0.27433333 0.25809079
vt 0.39233333 0.67305555
vt 0.39233333 0.73212161
vt 0.39233333 0.76825158
vt 0.39233333 0.78791824
vt 0.39233333 0.82356605
vt 0.39233333 0.49361111
vt 0.39233333 7.8646342e-2
vt 0.39233333 0.25809079
vt 0.44616667 7.8646342e-2
vt 0.44616667 0.25809079
vt 0.44616667 0.29373859
vt 0.50000000 7.8646342e-2
vt 0.50000000 0.29373859
vt 0.50000000 0.32986856
vt 0.55383333 7.8646342e-2
vt 0.55383333 0.32986856
vt 0.55383333 0.36575745
vt 0.60766667 0.73212161
vt 0.60766667 0.76825158
vt 0.60766667 0.78791824
vt 0.60766667 0.82356605
vt 0.60766667 0.49361111
vt 0.60766667 0.67305555
vt 0.60766667 7.8646342e-2
vt 0.60766667 0.36575745
vt 0.72566667 0.22050000
vt 0.72566667 0.27433333
vt 0.72566667 0.34808333
vt 0.72566667 0.40191667
vt 0.72566667 0.43141667
vt 0.72566667 0.48525000
vt 0.72566667 0.51475000
vt 0.72566667 0.56858333
vt 0.72566667 0.59808333
vt 0.72566667 0.65191667
vt 0.72566667 0.67650000
vt 0.72566667 0.71238889
vt 0.72566667 5.9000000e-2
vt 0.72566667 0.11283333
vt 0.72566667 0.16666667
vt 0.94100000 5.9000000e-2
vt 0.94100000 0.11283333
vt 0.94100000 0.16666667
vt 0.94100000 0.22050000
vt 0.94100000 0.27433333
vt 0.94100000 0.34808333
vt 0.94100000 0.40191667
vt 0.94100000 0.43141667
vt 0.94100000 0.48525000
vt 0.94100000 0.51475000
vt 0.94100000 0.56858333
vt 0.94100000 0.59808333
vt 0.94100000 0.65191667
vt 0.94100000 0.67650000
vt 0.94100000 0.71238889
vn 0.0000000e+0 0.0000000e+0 -1.00000000
vn 0.0000000e+0 0.0000000e+0 -1.00000000
vn -1.00000000 0.0000000e+0 0.0000000e+0
vn 0.0000000e+0 1.00000000 0.0000000e+0
vn 0.0000000e+0 0.0000000e+0 -1.00000000
vn 1.00000000 0.0000000e+0 0.0000000e+0
vn 0.0000000e+0 1.00000000 0.0000000e+0
vn 0.0000000e+0 1.00000000 0.0000000e+0
vn 0.0000000e+0 0.0000000e+0 -1.00000000
vn -1.00000000 0.0000000e+0 0.0000000e+0
vn -1.00000000 0.0000000e+0 0.0000000e+0
vn 0.0000000e+0 -1.00000000 0.0000000e+0
vn 0.0000000e+0 -1.00000000 0.0000000e+0
vn 0.0000000e+0 0.0000000e+0 -1.00000000
vn 0.0000000e+0 0.0000000e+0 -1.00000000
vn 1.00000000 0.0000000e+0 0.0000000e+0
vn 1.00000000 0.0000000e+0 0.0000000e+0
vn 0.0000000e+0 -1.00000000 0.0000000e+0
vn 0.0000000e+0 0.0000000e+0 -1.00000000
vn -1.00000000 0.0000000e+0 0.0000000e+0
vn -1.00000000 0.0000000e+0 0.0000000e+0
vn -1.00000000 0.0000000e+0 0.0000000e+0
vn 0.0000000e+0 1.00000000 0.0000000e+0
vn 0.0000000e+0 1.00000000 0.0000000e+0
vn 0.0000000e+0 0.0000000e+0 -1.00000000
vn 0.0000000e+0 0.0000000e+0 -1.00000000
vn 1.00000000 0.0000000e+0 0.0000000e+0
vn 1.00000000 0.0000000e+0 0.0000000e+0
vn 1.00000000 0.0000000e+0 0.0000000e+0
vn 0.0000000e+0 1.00000000 0.0000000e+0
vn 0.0000000e+0 0.0000000e+0 -1.00000000
vn 0.0000000e+0 1.00000000 0.0000000e+0
vn 0.0000000e+0 1.00000000 0.0000000e+0
vn -1.00000000 0.0000000e+0 0.0000000e+0
vn -1.00000000 0.0000000e+0 0.0000000e+0
vn -1.00000000 0.0000000e+0 0.0000000e+0
vn 0.0000000e+0 0.0000000e+0 -1.00000000
vn 0.0000000e+0 0.0000000e+0 -1.00000000
vn 0.0000000e+0 1.00000000 0.0000000e+0
vn -1.00000000 0.0000000e+0 0.0000000e+0
vn 0.0000000e+0 0.0000000e+0 -1.00000000
vn 0.0000000e+0 0.0000000e+0 -1.00000000
vn 0.0000000e+0 1.00000000 0.0000000e+0
vn 1.00000000 0.0000000e+0 0.0000000e+0
vn 1.00000000 0.0000000e+0 0.0000000e+0
vn 1.00000000 0.0000000e+0 0.0000000e+0
vn 0.0000000e+0 0.0000000e+0 -1.00000000
vn 0.0000000e+0 1.00000000 0.0000000e+0
vn 0.0000000e+0 1.00000000 0.0000000e+0
vn 1.00000000 0.0000000e+0 0.0000000e+0
vn 0.0000000e+0 0.0000000e+0 -1.00000000
vn 0.0000000e+0 1.00000000 0.0000000e+0
vn 0.0000000e+0 1.00000000 0.0000000e+0
vn -1.00000000 0.0000000e+0 0.0000000e+0
vn -1.00000000 0.0000000e+0 0.0000000e+0
vn -1.00000000 0.0000000e+0 0.0000000e+0
vn 0.0000000e+0 0.0000000e+0 -1.00000000
vn 0.0000000e+0 0.0000000e+0 -1.00000000
vn 0.0000000e+0 1.00000000 0.0000000e+0
vn -1.00000000 0.0000000e+0 0.0000000e+0
vn 0.0000000e+0 0.0000000e+0 -1.00000000
vn 0.0000000e+0 0.0000000e+0 -1.00000000
vn 0.0000000e+0 1.00000000 0.0000000e+0
vn 1.00000000 0.0000000e+0 0.0000000e+0
vn 1.00000000 0.0000000e+0 0.0000000e+0
vn 1.00000000 0.0000000e+0 0.0000000e+0
vn 0.0000000e+0 0.0000000e+0 -1.00000000
vn 0.0000000e+0 1.00000000 0.0000000e+0
vn 0.0000000e+0 1.00000000 0.0000000e+0
vn 1.00000000 0.0000000e+0 0.0000000e+0
vn 0.0000000e+0 0.0000000e+0 1.00000000
vn 0.0000000e+0 0.0000000e+0 1.00000000
vn -1.00000000 0.0000000e+0 0.0000000e+0
vn -1.00000000 0.0000000e+0 0.0000000e+0
vn 0.0000000e+0 1.00000000 0.0000000e+0
vn 0.0000000e+0 1.00000000 0.0000000e+0
vn 0.0000000e+0 0.0000000e+0 1.00000000
vn 1.00000000 0.0000000e+0 0.0000000e+0
vn 1.00000000 0.0000000e+0 0.0000000e+0
vn 0.0000000e+0 1.00000000 0.0000000e+0
vn 0.0000000e+0 0.0000000e+0 -1.00000000
vn 1.00000000 0.0000000e+0 0.0000000e+0
vn 0.0000000e+0 1.00000000 0.0000000e+0
vn 0.0000000e+0 1.00000000 0.0000000e+0
vn 0.0000000e+0 0.0000000e+0 -1.00000000
vn 0.0000000e+0 0.0000000e+0 -1.00000000
vn -1.00000000 0.0000000e+0 0.0000000e+0
vn 0.0000000e+0 1.00000000 0.0000000e+0
vn 0.0000000e+0 0.0000000e+0 1.00000000
vn 0.0000000e+0 0.0000000e+0 1.00000000
vn 1.00000000 0.0000000e+0 0.0000000e+0
vn 0.0000000e+0 -1.00000000 0.0000000e+0
vn 0.0000000e+0 -1.00000000 0.0000000e+0
vn 0.0000000e+0 0.0000000e+0 1.00000000
vn -1.00000000 0.0000000e+0 0.0000000e+0
vn 0.0000000e+0 -1.00000000 0.0000000e+0
vn -1.00000000 0.0000000e+0 0.0000000e+0
vn -1.00000000 0.0000000e+0 0.0000000e+0
vn -1.00000000 0.0000000e+0 0.0000000e+0
vn 0.0000000e+0 -1.00000000 0.0000000e+0
vn -1.00000000 0.0000000e+0 0.0000000e+0
vn -1.00000000 0.0000000e+0 0.0000000e+0
vn -1.00000000 0.0000000e+0 0.0000000e+0
vn 0.0000000e+0 -1.00000000 0.0000000e+0
vn -1.00000000 0.0000000e+0 0.0000000e+0
vn -1.00000000 0.0000000e+0 0.0000000e+0
vn -1.00000000 0.0000000e+0 0.0000000e+0
vn 0.0000000e+0 -1.00000000 0.0000000e+0
vn 1.00000000 0.0000000e+0 0.0000000e+0
vn 1.00000000 0.0000000e+0 0.0000000e+0
vn 1.00000000 0.0000000e+0 0.0000000e+0
vn 0.0000000e+0 -1.00000000 0.0000000e+0
vn 1.00000000 0.0000000e+0 0.0000000e+0
vn 1.00000000 0.0000000e+0 0.0000000e+0
vn 1.00000000 0.0000000e+0 0.0000000e+0
vn 0.0000000e+0 -1.00000000 0.0000000e+0
vn 1.00000000 0.0000000e+0 0.0000000e+0
vn 1.00000000 0.0000000e+0 0.0000000e+0
vn 1.00000000 0.0000000e+0 0.0000000e+0
vn 0.0000000e+0 -1.00000000 0.0000000e+0

usemtl StraightStairs
s 1
f 1/46/4 5/45/23 2/64/7
f 3/62/12 19/55/92 20/58/96 23/59/108 22/60/104 21/61/100
f 4/44/18 24/43/112 25/57/116 26/56/120 19/55/93 3/62/13
f 5/45/24 6/63/30 2/64/8
f 7/35/31 12/36/57 9/19/41
f 11/71/51 18/72/85 13/53/61
f 12/36/58 14/20/67 9/19/42
f 13/53/62 18/72/86 17/54/81
s 2
f 1/40/1 4/23/14 3/39/9
f 2/18/5 4/23/15 1/40/2
f 5/37/19 8/38/37 6/21/25
f 8/38/38 10/22/47 6/21/26
f 11/49/52 14/68/68 12/50/59
f 13/67/63 14/68/69 11/49/53
f 16/65/80 17/66/84 15/47/76
f 17/66/83 18/48/88 15/47/75
s 3
f 2/17/6 6/13/27 4/16/16
f 3/24/10 5/27/20 1/25/3
f 3/24/11 21/26/98 5/27/22
f 5/27/21 21/26/97 7/30/34 8/28/40
f 6/13/28 24/11/109 4/16/17
f 7/30/35 22/29/101 11/33/54 12/31/60
f 9/9/46 25/8/114 24/11/111
f 10/12/50 9/9/44 24/11/110 6/13/29
f 11/33/55 23/32/105 15/42/73 18/34/87
f 13/7/66 26/5/119 25/8/115
f 14/10/70 13/7/64 25/8/113 9/9/45
f 15/42/74 23/32/106 20/41/95
f 17/6/82 16/4/78 26/5/117 13/7/65
f 19/3/91 26/5/118 16/4/79
f 21/26/99 22/29/102 7/30/36
f 22/29/103 23/32/107 11/33/56
s 4
f 7/51/32 10/70/48 8/52/39
f 9/69/43 10/70/49 7/51/33
f 15/1/71 19/14/89 16/15/77
f 15/1/72 20/2/94 19/14/90
