mtllib SpiralStairsR1m.mtl

v 0.0000000e+0 0.0000000e+0 0.0000000e+0
v 0.0000000e+0 0.0000000e+0 1.00000000
v 0.41421288 0.0000000e+0 1.00000000
v 1.00000000 0.0000000e+0 1.00000000
v 1.00000000 0.0000000e+0 0.41421288
v 1.00000000 0.0000000e+0 0.0000000e+0
v 0.0000000e+0 1.50000000 0.0000000e+0
v 0.0000000e+0 1.50000000 1.00000000
v 0.41421288 1.50000000 1.00000000
v 0.0000000e+0 1.66666700 0.0000000e+0
v 0.41421288 1.66666700 1.00000000
v 1.00000000 1.66666700 1.00000000
v 0.0000000e+0 1.83333300 0.0000000e+0
v 1.00000000 1.83333300 1.00000000
v 1.00000000 1.83333300 0.41421288
v 0.0000000e+0 2.00000000 0.0000000e+0
v 1.00000000 2.00000000 0.41421288
v 1.00000000 2.00000000 0.0000000e+0
vt 2.5363641e-2 5.0727282e-2
vt 2.5363641e-2 0.58350011
vt 2.5363641e-2 0.49472736
vt 2.5363641e-2 0.91650017
vt 3.5869605e-2 0.99577274
vt 3.5869605e-2 0.95877288
vt 0.24736368 5.0727282e-2
vt 0.24736368 0.49472736
vt 0.24736368 0.58350011
vt 0.24736368 0.91650017
vt 0.28323327 5.0727282e-2
vt 0.28323327 0.49472736
vt 0.28323327 0.58350011
vt 0.28323327 0.91650017
vt 0.34982507 0.99577274
vt 0.34982507 0.95877288
vt 0.37518855 5.0727282e-2
vt 0.37518855 0.49472736
vt 0.37518855 0.58350011
vt 0.37518855 0.91650017
vt 0.40055219 4.6500000e-2
vt 0.40055219 0.45350000
vt 0.40755615 0.65822559
vt 0.40755615 0.78827036
vt 0.40755615 0.88022563
vt 0.41314789 0.59513657
vt 0.41314789 0.63213665
vt 0.41314789 0.54968193
vt 0.41314789 0.58668201
vt 0.53059695 4.6500000e-2
vt 0.53059695 0.45350000
vt 0.53760091 0.65822559
vt 0.56031234 4.2272743e-2
vt 0.56031234 0.41227288
vt 0.62955619 0.65822559
vt 0.62955619 0.88022563
vt 0.65343895 0.59513657
vt 0.65343895 0.63213665
vt 0.65343895 0.54968193
vt 0.65343895 0.58668201
vt 0.69035710 4.2272743e-2
vt 0.69035710 0.41227288
vt 0.71221876 0.67533091
vt 0.71221876 0.89733095
vt 0.72912786 0.62460363
vt 0.73903299 0.24881426
vt 0.73903299 0.37869053
vt 0.80417404 0.67533091
vt 0.82108313 0.40260359
vt 0.95112790 0.40260359
vt 0.96103303 2.6814223e-2
vt 0.96103303 0.15685899
vt 0.96103303 0.28673525
vt 0.96103303 0.37869053
vn 0.0000000e+0 -1.00000000 0.0000000e+0
vn 0.0000000e+0 -1.00000000 0.0000000e+0
vn 0.0000000e+0 -1.00000000 0.0000000e+0
vn 0.0000000e+0 -1.00000000 0.0000000e+0
vn -1.00000000 0.0000000e+0 0.0000000e+0
vn -1.00000000 0.0000000e+0 0.0000000e+0
vn 0.0000000e+0 0.0000000e+0 -1.00000000
vn 0.0000000e+0 0.0000000e+0 1.00000000
vn 0.0000000e+0 0.0000000e+0 1.00000000
vn 0.0000000e+0 -1.00000000 0.0000000e+0
vn -1.00000000 0.0000000e+0 0.0000000e+0
vn 0.0000000e+0 0.0000000e+0 1.00000000
vn 0.0000000e+0 -1.00000000 0.0000000e+0
vn 0.0000000e+0 -1.00000000 0.0000000e+0
vn 0.0000000e+0 0.0000000e+0 1.00000000
vn 0.0000000e+0 0.0000000e+0 1.00000000
vn 0.0000000e+0 -1.00000000 0.0000000e+0
vn 0.0000000e+0 -1.00000000 0.0000000e+0
vn 1.00000000 0.0000000e+0 0.0000000e+0
vn 1.00000000 0.0000000e+0 0.0000000e+0
vn 0.0000000e+0 0.0000000e+0 1.00000000
vn 1.00000000 0.0000000e+0 0.0000000e+0
vn 1.00000000 0.0000000e+0 0.0000000e+0
vn 0.0000000e+0 -1.00000000 0.0000000e+0
vn 0.0000000e+0 -1.00000000 0.0000000e+0
vn 1.00000000 0.0000000e+0 0.0000000e+0
vn 1.00000000 0.0000000e+0 0.0000000e+0
vn 0.0000000e+0 -1.00000000 0.0000000e+0
vn 0.0000000e+0 0.0000000e+0 -1.00000000
vn 0.0000000e+0 0.0000000e+0 -1.00000000
vn -0.92387976 0.0000000e+0 0.38268289
vn -0.92387976 0.0000000e+0 0.38268289
vn 0.0000000e+0 1.00000000 0.0000000e+0
vn -1.00000000 0.0000000e+0 0.0000000e+0
vn 0.0000000e+0 0.0000000e+0 1.00000000
vn 0.0000000e+0 1.00000000 0.0000000e+0
vn -1.00000000 0.0000000e+0 0.0000000e+0
vn -1.00000000 0.0000000e+0 0.0000000e+0
vn 0.0000000e+0 0.0000000e+0 1.00000000
vn 0.0000000e+0 0.0000000e+0 1.00000000
vn -0.92387976 0.0000000e+0 0.38268289
vn 0.0000000e+0 1.00000000 0.0000000e+0
vn -0.92387976 0.0000000e+0 0.38268289
vn -0.70710678 0.0000000e+0 0.70710678
vn -0.70710678 0.0000000e+0 0.70710678
vn 0.0000000e+0 1.00000000 0.0000000e+0
vn -0.92387976 0.0000000e+0 0.38268289
vn -0.92387976 0.0000000e+0 0.38268289
vn 0.0000000e+0 1.00000000 0.0000000e+0
vn 0.0000000e+0 0.0000000e+0 1.00000000
vn -0.70710678 0.0000000e+0 0.70710678
vn 0.0000000e+0 1.00000000 0.0000000e+0
vn 0.0000000e+0 0.0000000e+0 1.00000000
vn 0.0000000e+0 0.0000000e+0 1.00000000
vn 0.0000000e+0 1.00000000 0.0000000e+0
vn -0.70710678 0.0000000e+0 0.70710678
vn -0.38268289 0.0000000e+0 0.92387976
vn -0.38268289 0.0000000e+0 0.92387976
vn 0.0000000e+0 1.00000000 0.0000000e+0
vn -0.70710678 0.0000000e+0 0.70710678
vn -0.70710678 0.0000000e+0 0.70710678
vn 1.00000000 0.0000000e+0 0.0000000e+0
vn 0.0000000e+0 1.00000000 0.0000000e+0
vn -0.38268289 0.0000000e+0 0.92387976
vn 1.00000000 0.0000000e+0 0.0000000e+0
vn 1.00000000 0.0000000e+0 0.0000000e+0
vn -0.38268289 0.0000000e+0 0.92387976
vn 0.0000000e+0 1.00000000 0.0000000e+0
vn 0.0000000e+0 0.0000000e+0 -1.00000000
vn 0.0000000e+0 0.0000000e+0 -1.00000000
vn 1.00000000 0.0000000e+0 0.0000000e+0
vn -0.38268289 0.0000000e+0 0.92387976
vn -0.38268289 0.0000000e+0 0.92387976
vn 0.0000000e+0 1.00000000 0.0000000e+0
vn 1.00000000 0.0000000e+0 0.0000000e+0
vn 1.00000000 0.0000000e+0 0.0000000e+0
vn 0.0000000e+0 1.00000000 0.0000000e+0
vn 0.0000000e+0 0.0000000e+0 -1.00000000

usemtl SpiralStairsR1m
s 1
f 1/36/1 3/32/13 2/35/10
f 1/36/2 4/23/17 3/32/14
f 1/36/3 5/24/24 4/23/18
f 1/36/4 6/25/28 5/24/25
f 8/43/36 9/48/42 7/44/33
f 11/49/49 12/50/52 10/45/46
f 14/51/59 15/52/63 13/46/55
f 17/53/74 18/54/77 16/47/68
s 2
f 1/2/5 8/10/37 7/4/34
f 1/7/7 16/8/69 6/1/29
f 2/9/11 8/10/38 1/2/6
f 2/13/8 9/20/39 8/14/35
f 3/19/12 9/20/40 2/13/9
f 3/33/15 12/42/53 11/34/50
f 4/41/21 12/42/54 3/33/16
f 4/21/19 15/31/65 14/22/62
f 5/30/26 15/31/66 4/21/20
f 5/11/22 18/18/75 17/12/71
f 6/17/27 18/18/76 5/11/23
f 7/26/31 11/38/47 10/27/43
f 9/37/41 11/38/48 7/26/32
f 10/6/44 14/15/60 13/5/56
f 12/16/51 14/15/61 10/6/45
f 13/28/57 17/40/72 16/29/67
f 15/39/64 17/40/73 13/28/58
f 16/8/70 18/3/78 6/1/30
