mtllib SpiralStairsR1m.mtl

v 1.00000000 0.66666666 0.0000000e+0
v 0.0000000e+0 0.83333333 0.0000000e+0
v 1.00000000 0.83333333 0.0000000e+0
v 0.0000000e+0 0.66666666 1.00000000
v 0.0000000e+0 0.66666666 0.41421288
v 1.00000000 0.50000000 0.0000000e+0
v 0.0000000e+0 0.66666666 0.0000000e+0
v 0.0000000e+0 1.00000000 0.41421288
v 1.00000000 1.00000000 0.0000000e+0
v 0.0000000e+0 0.83333333 1.00000000
v 0.58578711 0.83333333 1.00000000
v 0.0000000e+0 1.16666666 1.00000000
v 1.00000000 1.16666666 0.0000000e+0
v 0.58578711 1.00000000 1.00000000
v 1.00000000 1.00000000 1.00000000
v 0.58578711 1.33333333 1.00000000
v 1.00000000 1.33333333 0.0000000e+0
v 1.00000000 1.16666666 1.00000000
v 1.00000000 1.33333333 1.00000000
v 0.0000000e+0 0.83333333 0.41421288
v 0.0000000e+0 0.50000000 0.0000000e+0
v 0.0000000e+0 0.50000000 0.41421288
v 0.0000000e+0 1.00000000 1.00000000
v 0.58578711 1.16666666 1.00000000
vt 0.0000000e+0 4.8815535e-2
vt 0.0000000e+0 9.7631072e-2
vt 0.0000000e+0 0.14644661
vt 0.0000000e+0 0.14644661
vt 0.0000000e+0 0.19526215
vt 0.0000000e+0 0.24407768
vt 0.0000000e+0 0.29289322
vt 0.0000000e+0 0.39052429
vt 0.0000000e+0 0.48815537
vt 0.0000000e+0 0.60947553
vt 0.0000000e+0 0.90236875
vt 2.7755576e-17 0.0000000e+0
vt 2.7755576e-17 4.8815535e-2
vt 2.7755576e-17 0.24407768
vt 5.5511151e-17 0.19526215
vt 1.3877788e-16 9.7631072e-2
vt 6.1329467e-9 0.43933984
vt 6.1329468e-9 0.34170875
vt 7.8606206e-9 0.39052430
vt 7.8606208e-9 0.29289322
vt 0.12132015 0.60947553
vt 0.29289322 0.73079567
vt 0.29289322 0.60947553
vt 0.29289322 0.60947553
vt 0.29289322 0.73079567
vt 0.29289322 0.77961121
vt 0.29289322 0.82842675
vt 0.29289322 0.48815539
vt 0.29289322 0.60947553
vt 0.29289322 0.39052431
vt 0.29289322 0.48815539
vt 0.29289322 0.29289323
vt 0.29289322 0.39052430
vt 0.29289322 0.43933984
vt 0.29289322 0.43933985
vt 0.29289322 0.34170876
vt 0.29289322 0.34170875
vt 0.29289323 0.39052429
vt 0.29289323 0.39052430
vt 0.29289323 0.48815538
vt 0.29289323 0.29289322
vt 0.31702526 0.24407768
vt 0.31702526 0.29289322
vt 0.31702526 0.19526215
vt 0.31702526 0.24407768
vt 0.31702526 0.14644661
vt 0.31702526 0.19526215
vt 0.31702526 9.7631072e-2
vt 0.31702526 0.14644661
vt 0.41421337 0.43933984
vt 0.41421337 0.39052430
vt 0.41421337 0.48815537
vt 0.41421337 0.34170875
vt 0.41421337 0.29289322
vt 0.41421337 0.39052429
vt 0.41421356 4.8815535e-2
vt 0.41421356 9.7631072e-2
vt 0.41421356 4.8815535e-2
vt 0.41421356 0.17157308
vt 0.41421356 0.58578644
vt 0.41421356 0.0000000e+0
vt 0.46446629 0.73079567
vt 0.46446629 0.77961121
vt 0.46446629 0.82842675
vt 0.58578644 0.90236875
vt 0.58578644 0.60947553
vt 0.58578644 0.73079567
vt 0.70710658 0.60947553
vt 0.70710678 0.29289322
vt 0.70710678 0.29289322
vt 0.70710678 0.46446629
vt 0.70710678 0.58578644
vt 0.70710678 0.0000000e+0
vt 0.70710678 0.29289322
vt 0.70710678 0.63460198
vt 0.70710678 0.68341751
vt 0.82842693 0.29289322
vt 0.82842693 0.58578644
vt 0.87867985 0.0000000e+0
vt 0.87867985 0.63460197
vt 0.87867986 0.58578644
vt 0.87867986 0.68341751
vt 1.00000000 0.29289322
vn 0.0000000e+0 -1.00000000 0.0000000e+0
vn 0.38268289 0.0000000e+0 0.92387976
vn 0.70710678 0.0000000e+0 0.70710678
vn 0.38268289 0.0000000e+0 0.92387976
vn 0.0000000e+0 0.0000000e+0 -1.00000000
vn 0.0000000e+0 0.0000000e+0 -1.00000000
vn 0.0000000e+0 0.0000000e+0 -1.00000000
vn 0.0000000e+0 1.00000000 0.0000000e+0
vn -1.00000000 0.0000000e+0 0.0000000e+0
vn 0.0000000e+0 0.0000000e+0 -1.00000000
vn 0.0000000e+0 0.0000000e+0 -1.00000000
vn 0.0000000e+0 1.00000000 0.0000000e+0
vn 0.0000000e+0 -1.00000000 0.0000000e+0
vn 0.70710678 0.0000000e+0 0.70710678
vn 0.70710678 0.0000000e+0 0.70710678
vn -0.38268289 0.0000000e+0 -0.92387976
vn -0.38268289 0.0000000e+0 -0.92387976
vn 0.0000000e+0 0.0000000e+0 -1.00000000
vn 0.92387975 0.0000000e+0 0.38268290
vn 0.0000000e+0 -1.00000000 0.0000000e+0
vn 0.70710678 0.0000000e+0 0.70710678
vn 0.70710678 0.0000000e+0 0.70710678
vn -1.00000000 0.0000000e+0 0.0000000e+0
vn 0.0000000e+0 -1.00000000 0.0000000e+0
vn 0.38268289 0.0000000e+0 0.92387976
vn -1.00000000 0.0000000e+0 0.0000000e+0
vn -1.00000000 0.0000000e+0 0.0000000e+0
vn -1.00000000 0.0000000e+0 0.0000000e+0
vn -1.00000000 0.0000000e+0 0.0000000e+0
vn -1.00000000 0.0000000e+0 0.0000000e+0
vn 0.0000000e+0 -1.00000000 0.0000000e+0
vn 0.38268289 0.0000000e+0 0.92387976
vn 0.0000000e+0 0.0000000e+0 -1.00000000
vn 0.0000000e+0 0.0000000e+0 -1.00000000
vn -1.00000000 0.0000000e+0 0.0000000e+0
vn -1.00000000 0.0000000e+0 0.0000000e+0
vn -1.00000000 0.0000000e+0 0.0000000e+0
vn 0.0000000e+0 0.0000000e+0 -1.00000000
vn 0.0000000e+0 0.0000000e+0 -1.00000000
vn 0.0000000e+0 0.0000000e+0 -1.00000000
vn 0.0000000e+0 1.00000000 0.0000000e+0
vn -0.38268289 0.0000000e+0 -0.92387976
vn -0.38268289 0.0000000e+0 -0.92387976
vn -1.00000000 0.0000000e+0 0.0000000e+0
vn 0.0000000e+0 1.00000000 0.0000000e+0
vn 0.0000000e+0 -1.00000000 0.0000000e+0
vn -0.38268289 0.0000000e+0 -0.92387976
vn -0.70710678 0.0000000e+0 -0.70710678
vn -0.70710678 0.0000000e+0 -0.70710678
vn 0.92387975 0.0000000e+0 0.38268290
vn 0.92387975 0.0000000e+0 0.38268290
vn 1.00000000 0.0000000e+0 0.0000000e+0
vn 0.0000000e+0 -1.00000000 0.0000000e+0
vn 0.70710678 0.0000000e+0 0.70710678
vn 0.0000000e+0 0.0000000e+0 1.00000000
vn 0.0000000e+0 0.0000000e+0 1.00000000
vn -1.00000000 0.0000000e+0 0.0000000e+0
vn -1.00000000 0.0000000e+0 0.0000000e+0
vn -1.00000000 0.0000000e+0 0.0000000e+0
vn 0.0000000e+0 -1.00000000 0.0000000e+0
vn 0.0000000e+0 0.0000000e+0 1.00000000
vn 0.92387975 0.0000000e+0 0.38268290
vn 0.92387975 0.0000000e+0 0.38268290
vn 0.0000000e+0 1.00000000 0.0000000e+0
vn -0.70710678 0.0000000e+0 -0.70710678
vn -0.70710678 0.0000000e+0 -0.70710678
vn 0.0000000e+0 0.0000000e+0 1.00000000
vn 0.0000000e+0 1.00000000 0.0000000e+0
vn -0.70710678 0.0000000e+0 -0.70710678
vn -0.92387975 0.0000000e+0 -0.38268290
vn -0.92387975 0.0000000e+0 -0.38268290
vn 1.00000000 0.0000000e+0 0.0000000e+0
vn 1.00000000 0.0000000e+0 0.0000000e+0
vn 1.00000000 0.0000000e+0 0.0000000e+0
vn 0.0000000e+0 -1.00000000 0.0000000e+0
vn 0.0000000e+0 0.0000000e+0 1.00000000
vn 0.0000000e+0 0.0000000e+0 1.00000000
vn 0.0000000e+0 0.0000000e+0 1.00000000
vn 0.0000000e+0 0.0000000e+0 1.00000000
vn 0.0000000e+0 0.0000000e+0 1.00000000
vn 0.92387975 0.0000000e+0 0.38268290
vn 0.0000000e+0 -1.00000000 0.0000000e+0
vn 0.0000000e+0 0.0000000e+0 1.00000000
vn 1.00000000 0.0000000e+0 0.0000000e+0
vn 1.00000000 0.0000000e+0 0.0000000e+0
vn 0.0000000e+0 1.00000000 0.0000000e+0
vn 0.0000000e+0 0.0000000e+0 1.00000000
vn -0.92387975 0.0000000e+0 -0.38268290
vn -0.92387975 0.0000000e+0 -0.38268290
vn 0.0000000e+0 1.00000000 0.0000000e+0
vn -0.92387975 0.0000000e+0 -0.38268290
vn 1.00000000 0.0000000e+0 0.0000000e+0
vn 1.00000000 0.0000000e+0 0.0000000e+0
vn 0.0000000e+0 0.0000000e+0 1.00000000
vn 0.0000000e+0 0.0000000e+0 1.00000000
vn 0.0000000e+0 0.0000000e+0 1.00000000
vn 1.00000000 0.0000000e+0 0.0000000e+0
vn 1.00000000 0.0000000e+0 0.0000000e+0
vn 1.00000000 0.0000000e+0 0.0000000e+0
vn 0.0000000e+0 1.00000000 0.0000000e+0
vn 0.0000000e+0 0.0000000e+0 1.00000000
vn 0.0000000e+0 0.0000000e+0 1.00000000
vn 1.00000000 0.0000000e+0 0.0000000e+0
vn 0.0000000e+0 1.00000000 0.0000000e+0
vn -0.38268289 0.0000000e+0 -0.92387976
vn -1.00000000 0.0000000e+0 0.0000000e+0
vn -1.00000000 0.0000000e+0 0.0000000e+0
vn -1.00000000 0.0000000e+0 0.0000000e+0
vn -1.00000000 0.0000000e+0 0.0000000e+0
vn -1.00000000 0.0000000e+0 0.0000000e+0
vn 0.0000000e+0 -1.00000000 0.0000000e+0
vn -1.00000000 0.0000000e+0 0.0000000e+0
vn -1.00000000 0.0000000e+0 0.0000000e+0
vn 0.0000000e+0 0.0000000e+0 -1.00000000
vn 0.0000000e+0 -1.00000000 0.0000000e+0
vn 0.38268289 0.0000000e+0 0.92387976
vn 0.38268289 0.0000000e+0 0.92387976
vn -1.00000000 0.0000000e+0 0.0000000e+0
vn 0.0000000e+0 1.00000000 0.0000000e+0
vn -0.70710678 0.0000000e+0 -0.70710678
vn 0.0000000e+0 0.0000000e+0 1.00000000
vn 0.0000000e+0 0.0000000e+0 1.00000000
vn 0.0000000e+0 0.0000000e+0 1.00000000
vn -1.00000000 0.0000000e+0 0.0000000e+0
vn -1.00000000 0.0000000e+0 0.0000000e+0
vn 0.0000000e+0 1.00000000 0.0000000e+0
vn 0.0000000e+0 0.0000000e+0 1.00000000
vn 0.0000000e+0 0.0000000e+0 1.00000000
vn 0.0000000e+0 0.0000000e+0 1.00000000
vn -0.92387975 0.0000000e+0 -0.38268290
vn 0.0000000e+0 0.0000000e+0 1.00000000
vn 0.0000000e+0 0.0000000e+0 1.00000000

usemtl SpiralStairsR1m
s 1
f 2/25/8 20/23/104 3/67/12
f 3/11/13 11/21/60 10/24/53
f 4/70/20 5/71/24 1/60/1
f 6/10/31 22/28/115 21/29/111
f 8/59/41 23/61/119 9/69/45
f 9/65/46 15/66/82 14/68/75
f 12/73/64 24/79/126 13/83/68
f 16/74/86 19/77/100 17/78/90
s 2
f 3/57/14 4/13/21 1/56/3
f 3/57/15 10/2/54 4/13/22
f 5/50/26 20/52/106 7/34/35
f 7/34/36 20/52/107 2/40/9
f 7/34/37 21/39/112 5/50/27
f 9/47/50 11/4/62 3/46/19
f 9/47/51 14/15/81 11/4/63
f 9/12/48 23/61/120 12/58/65
f 12/58/66 13/1/69 9/12/49
f 15/54/83 18/53/94 14/41/76
f 16/38/87 24/37/127 19/55/101
f 18/53/95 24/37/128 14/41/77
f 19/55/102 24/37/129 18/53/96
f 21/39/113 22/51/118 5/50/28
s 3
f 1/17/5 7/35/38 2/31/10
f 2/31/11 3/9/18 1/17/6
f 4/62/23 10/63/57 5/22/29
f 6/19/33 7/35/39 1/17/7
f 6/19/34 21/30/114 7/35/40
f 10/63/58 20/26/108 5/22/30
f 10/63/59 23/64/124 20/26/109
f 13/36/72 15/20/84 9/32/52
f 13/36/73 18/18/97 15/20/85
f 17/33/92 18/18/98 13/36/74
f 17/33/93 19/8/103 18/18/99
f 20/26/110 23/64/125 8/27/44
s 4
f 1/43/2 22/14/116 6/42/32
f 3/5/16 20/44/105 8/45/42
f 5/7/25 22/14/117 1/43/4
f 8/45/43 9/6/47 3/5/17
f 11/81/61 14/80/78 10/72/55
f 13/16/70 24/48/130 16/49/88
f 14/80/79 23/75/121 10/72/56
f 14/80/80 24/82/131 23/75/122
f 16/49/89 17/3/91 13/16/71
f 23/75/123 24/82/132 12/76/67
