mtllib SpiralStairsR1m.mtl

v 1.00000000 0.0000000e+0 1.00000000
v 1.00000000 0.16666666 0.0000000e+0
v 1.00000000 0.16666666 1.00000000
v 0.58578711 0.0000000e+0 0.0000000e+0
v 1.00000000 0.0000000e+0 0.0000000e+0
v 0.0000000e+0 0.0000000e+0 0.0000000e+0
v 0.58578711 0.33333333 0.0000000e+0
v 1.00000000 0.33333333 1.00000000
v 0.0000000e+0 0.16666666 0.0000000e+0
v 0.0000000e+0 0.16666666 0.58578711
v 0.0000000e+0 0.50000000 0.0000000e+0
v 1.00000000 0.50000000 1.00000000
v 0.0000000e+0 0.33333333 0.58578711
v 0.0000000e+0 0.33333333 1.00000000
v 0.0000000e+0 0.66666666 0.58578711
v 1.00000000 0.66666666 1.00000000
v 0.0000000e+0 0.50000000 1.00000000
v 0.0000000e+0 0.66666666 1.00000000
v 0.58578711 0.16666666 0.0000000e+0
v 0.0000000e+0 0.33333333 0.0000000e+0
v 0.0000000e+0 0.50000000 0.58578711
vt 0.0000000e+0 4.9999998e-2
vt 0.0000000e+0 4.9999998e-2
vt 0.0000000e+0 9.9999998e-2
vt 0.0000000e+0 9.9999998e-2
vt 0.0000000e+0 0.20000000
vt 0.0000000e+0 0.20000000
vt 0.0000000e+0 0.25000000
vt 0.0000000e+0 0.25000001
vt 0.0000000e+0 0.35000001
vt 0.0000000e+0 0.65000000
vt 0.0000000e+0 0.70000000
vt 5.5511151e-17 0.15000000
vt 5.5511151e-17 0.65000000
vt 8.3266727e-17 0.0000000e+0
vt 6.2817569e-9 0.30000001
vt 8.0513512e-9 0.35000001
vt 0.12426387 0.65000000
vt 0.30000000 0.82426387
vt 0.30000000 0.70000000
vt 0.30000000 1.00000000
vt 0.30000000 0.65000000
vt 0.30000000 0.65000000
vt 0.30000000 0.70000000
vt 0.30000000 0.25000000
vt 0.30000000 0.35000000
vt 0.30000000 0.30000000
vt 0.30000000 0.30000000
vt 0.30000000 0.25000000
vt 0.30000001 0.35000000
vt 0.32471758 0.20000000
vt 0.32471758 0.25000000
vt 0.32471758 0.20000000
vt 0.32471758 9.9999998e-2
vt 0.32471758 0.15000000
vt 0.32471758 0.15000000
vt 0.42426386 0.35000001
vt 0.42426386 0.65000000
vt 0.42426386 0.70000000
vt 0.42426387 0.30000000
vt 0.42426387 0.25000000
vt 0.42426387 0.34999999
vt 0.42426407 9.9999998e-2
vt 0.42426407 4.9999998e-2
vt 0.42426407 4.9999998e-2
vt 0.42426407 0.30000000
vt 0.42426407 0.42426386
vt 0.42426407 0.64852773
vt 0.42426407 1.7347235e-17
vt 0.42426407 0.12426387
vt 0.42426407 0.30000000
vt 0.42426407 0.42426386
vt 0.42426407 0.59852773
vt 0.42426407 0.54852773
vt 0.47573613 1.00000000
vt 0.60000000 0.70000000
vt 0.60000020 0.59852773
vt 0.60000020 0.54852773
vt 0.60000020 0.64852773
vt 0.72426406 0.42426386
vt 0.72426406 0.54852773
vt 0.72426406 0.0000000e+0
vt 0.72426406 0.30000000
vt 0.72426406 2.0816682e-17
vt 0.72426406 5.0000001e-2
vt 0.72426406 0.10000000
vt 0.90000019 0.0000000e+0
vt 0.90000019 5.0000001e-2
vt 0.90000019 0.10000000
vn 0.0000000e+0 -1.00000000 0.0000000e+0
vn 0.0000000e+0 -1.00000000 0.0000000e+0
vn -0.70710678 0.0000000e+0 0.70710678
vn 1.00000000 0.0000000e+0 0.0000000e+0
vn 1.00000000 0.0000000e+0 0.0000000e+0
vn 0.0000000e+0 1.00000000 0.0000000e+0
vn 0.0000000e+0 0.0000000e+0 -1.00000000
vn 1.00000000 0.0000000e+0 0.0000000e+0
vn 1.00000000 0.0000000e+0 0.0000000e+0
vn 0.0000000e+0 1.00000000 0.0000000e+0
vn 0.0000000e+0 -1.00000000 0.0000000e+0
vn -0.70710678 0.0000000e+0 0.70710678
vn -0.70710678 0.0000000e+0 0.70710678
vn 0.92387975 0.0000000e+0 -0.38268290
vn 0.92387975 0.0000000e+0 -0.38268290
vn 1.00000000 0.0000000e+0 0.0000000e+0
vn -0.38268290 0.0000000e+0 0.92387975
vn 0.0000000e+0 -1.00000000 0.0000000e+0
vn 0.0000000e+0 -1.00000000 0.0000000e+0
vn 0.0000000e+0 0.0000000e+0 -1.00000000
vn 0.0000000e+0 0.0000000e+0 -1.00000000
vn 0.0000000e+0 0.0000000e+0 -1.00000000
vn 0.0000000e+0 -1.00000000 0.0000000e+0
vn 0.0000000e+0 0.0000000e+0 -1.00000000
vn 0.0000000e+0 0.0000000e+0 -1.00000000
vn 1.00000000 0.0000000e+0 0.0000000e+0
vn 0.0000000e+0 -1.00000000 0.0000000e+0
vn -0.70710678 0.0000000e+0 0.70710678
vn -0.70710678 0.0000000e+0 0.70710678
vn 0.0000000e+0 0.0000000e+0 -1.00000000
vn 0.0000000e+0 1.00000000 0.0000000e+0
vn 0.92387975 0.0000000e+0 -0.38268290
vn 0.92387975 0.0000000e+0 -0.38268290
vn 0.0000000e+0 0.0000000e+0 -1.00000000
vn 0.0000000e+0 1.00000000 0.0000000e+0
vn 0.0000000e+0 -1.00000000 0.0000000e+0
vn 0.92387975 0.0000000e+0 -0.38268290
vn 0.70710678 0.0000000e+0 -0.70710678
vn 0.70710678 0.0000000e+0 -0.70710678
vn -0.38268290 0.0000000e+0 0.92387975
vn -0.38268290 0.0000000e+0 0.92387975
vn 0.0000000e+0 0.0000000e+0 1.00000000
vn 0.0000000e+0 -1.00000000 0.0000000e+0
vn -0.70710678 0.0000000e+0 0.70710678
vn -1.00000000 0.0000000e+0 0.0000000e+0
vn -1.00000000 0.0000000e+0 0.0000000e+0
vn 0.0000000e+0 0.0000000e+0 -1.00000000
vn 0.0000000e+0 0.0000000e+0 -1.00000000
vn 0.0000000e+0 0.0000000e+0 -1.00000000
vn 0.0000000e+0 -1.00000000 0.0000000e+0
vn -1.00000000 0.0000000e+0 0.0000000e+0
vn -0.38268290 0.0000000e+0 0.92387975
vn -0.38268290 0.0000000e+0 0.92387975
vn 0.0000000e+0 1.00000000 0.0000000e+0
vn 0.70710678 0.0000000e+0 -0.70710678
vn 0.70710678 0.0000000e+0 -0.70710678
vn -1.00000000 0.0000000e+0 0.0000000e+0
vn 0.0000000e+0 1.00000000 0.0000000e+0
vn 0.70710678 0.0000000e+0 -0.70710678
vn 0.38268290 0.0000000e+0 -0.92387975
vn 0.38268290 0.0000000e+0 -0.92387975
vn 0.0000000e+0 0.0000000e+0 1.00000000
vn 0.0000000e+0 0.0000000e+0 1.00000000
vn 0.0000000e+0 0.0000000e+0 1.00000000
vn 0.0000000e+0 -1.00000000 0.0000000e+0
vn -1.00000000 0.0000000e+0 0.0000000e+0
vn -1.00000000 0.0000000e+0 0.0000000e+0
vn -1.00000000 0.0000000e+0 0.0000000e+0
vn -1.00000000 0.0000000e+0 0.0000000e+0
vn -1.00000000 0.0000000e+0 0.0000000e+0
vn -0.38268290 0.0000000e+0 0.92387975
vn 0.0000000e+0 -1.00000000 0.0000000e+0
vn -1.00000000 0.0000000e+0 0.0000000e+0
vn 0.0000000e+0 0.0000000e+0 1.00000000
vn 0.0000000e+0 0.0000000e+0 1.00000000
vn 0.0000000e+0 1.00000000 0.0000000e+0
vn -1.00000000 0.0000000e+0 0.0000000e+0
vn 0.38268290 0.0000000e+0 -0.92387975
vn 0.38268290 0.0000000e+0 -0.92387975
vn 0.0000000e+0 1.00000000 0.0000000e+0
vn 0.38268290 0.0000000e+0 -0.92387975
vn 0.0000000e+0 0.0000000e+0 1.00000000
vn 0.0000000e+0 0.0000000e+0 1.00000000
vn -1.00000000 0.0000000e+0 0.0000000e+0
vn -1.00000000 0.0000000e+0 0.0000000e+0
vn -1.00000000 0.0000000e+0 0.0000000e+0
vn 0.0000000e+0 0.0000000e+0 1.00000000
vn 0.0000000e+0 0.0000000e+0 1.00000000
vn 0.0000000e+0 0.0000000e+0 1.00000000
vn 0.0000000e+0 1.00000000 0.0000000e+0
vn -1.00000000 0.0000000e+0 0.0000000e+0
vn -1.00000000 0.0000000e+0 0.0000000e+0
vn 0.0000000e+0 0.0000000e+0 1.00000000
vn 0.0000000e+0 1.00000000 0.0000000e+0
vn 0.92387975 0.0000000e+0 -0.38268290
vn 0.0000000e+0 0.0000000e+0 -1.00000000
vn 0.0000000e+0 0.0000000e+0 -1.00000000
vn 0.0000000e+0 0.0000000e+0 -1.00000000
vn 0.0000000e+0 0.0000000e+0 -1.00000000
vn 0.0000000e+0 0.0000000e+0 -1.00000000
vn 0.0000000e+0 1.00000000 0.0000000e+0
vn 0.70710678 0.0000000e+0 -0.70710678
vn -1.00000000 0.0000000e+0 0.0000000e+0
vn -1.00000000 0.0000000e+0 0.0000000e+0
vn -1.00000000 0.0000000e+0 0.0000000e+0
vn 0.0000000e+0 0.0000000e+0 -1.00000000
vn 0.0000000e+0 0.0000000e+0 -1.00000000
vn 0.0000000e+0 1.00000000 0.0000000e+0
vn -1.00000000 0.0000000e+0 0.0000000e+0
vn -1.00000000 0.0000000e+0 0.0000000e+0
vn -1.00000000 0.0000000e+0 0.0000000e+0
vn 0.38268290 0.0000000e+0 -0.92387975
vn -1.00000000 0.0000000e+0 0.0000000e+0
vn -1.00000000 0.0000000e+0 0.0000000e+0

usemtl SpiralStairsR1m
s 1
f 1/9/1 6/22/27 4/17/18
f 2/37/6 19/21/94 3/36/10
f 3/11/11 10/18/50 9/20/43
f 4/17/19 5/13/23 1/9/2
f 7/54/31 20/20/101 8/55/35
f 8/51/36 14/59/72 13/60/65
f 11/45/54 21/49/108 12/61/58
f 15/46/76 18/50/90 16/62/80
s 2
f 1/10/4 5/22/26 2/19/8
f 2/19/9 3/11/16 1/10/5
f 6/57/30 9/56/47 4/53/21
f 8/34/40 10/4/52 3/33/17
f 8/34/41 13/12/71 10/4/53
f 9/56/48 19/52/98 4/53/22
f 9/56/49 20/58/106 19/52/99
f 12/27/62 14/8/74 8/24/42
f 12/27/63 17/15/87 14/8/75
f 16/25/82 17/15/88 12/27/64
f 16/25/83 18/16/93 17/15/89
f 19/52/100 20/58/107 7/47/34
s 3
f 3/44/12 6/14/28 1/48/3
f 3/44/13 9/1/44 6/14/29
f 3/12/14 19/35/95 7/32/32
f 4/37/20 19/38/96 5/21/24
f 5/21/25 19/38/97 2/23/7
f 7/32/33 8/5/37 3/12/15
f 8/2/38 20/43/102 11/42/55
f 11/42/56 12/3/59 8/2/39
f 14/40/73 17/39/84 13/28/66
f 15/29/77 21/26/109 18/41/91
f 17/39/85 21/26/110 13/28/67
f 18/41/92 21/26/111 17/39/86
s 4
f 10/66/51 13/67/68 9/63/45
f 12/6/60 21/30/112 15/31/78
f 13/67/69 20/64/103 9/63/46
f 13/67/70 21/68/113 20/64/104
f 15/31/79 16/7/81 12/6/61
f 20/64/105 21/68/114 11/65/57
