mtllib SpiralStairsR1m.mtl

v 0.0000000e+0 1.83333333 1.00000000
v 1.00000000 2.00000000 1.00000000
v 0.0000000e+0 2.00000000 1.00000000
v 1.00000000 1.83333333 0.58578711
v 1.00000000 1.83333333 1.00000000
v 1.00000000 2.00000000 0.58578711
vt 8.3252555e-2 0.90803651
vt 8.3252555e-2 0.96650170
vt 0.13399318 0.63807302
vt 0.13399318 0.49277081
vt 0.20098977 0.84103992
vt 0.20098977 0.78257473
vt 0.21754971 3.3498296e-2
vt 0.21754971 9.1963488e-2
vt 0.22855477 0.90803651
vt 0.22855477 0.96650170
vt 0.26798637 0.18096349
vt 0.48478433 0.49277081
vt 0.55178092 0.78257473
vt 0.55178092 0.84103992
vt 0.59724322 3.3498296e-2
vt 0.59724322 9.1963488e-2
vt 0.61877751 0.18096349
vt 0.61877751 0.32626570
vn 0.0000000e+0 0.0000000e+0 1.00000000
vn 0.0000000e+0 0.0000000e+0 1.00000000
vn -0.38268290 0.0000000e+0 -0.92387975
vn 0.0000000e+0 -1.00000000 0.0000000e+0
vn 0.0000000e+0 0.0000000e+0 1.00000000
vn 0.0000000e+0 0.0000000e+0 1.00000000
vn 0.0000000e+0 1.00000000 0.0000000e+0
vn 1.00000000 0.0000000e+0 0.0000000e+0
vn 0.0000000e+0 0.0000000e+0 1.00000000
vn 0.0000000e+0 1.00000000 0.0000000e+0
vn -0.38268290 0.0000000e+0 -0.92387975
vn -0.38268290 0.0000000e+0 -0.92387975
vn -0.38268290 0.0000000e+0 -0.92387975
vn -0.38268290 0.0000000e+0 -0.92387975
vn 0.0000000e+0 -1.00000000 0.0000000e+0
vn 1.00000000 0.0000000e+0 0.0000000e+0
vn 0.0000000e+0 0.0000000e+0 1.00000000
vn 0.0000000e+0 -1.00000000 0.0000000e+0
vn 1.00000000 0.0000000e+0 0.0000000e+0
vn 1.00000000 0.0000000e+0 0.0000000e+0
vn 0.0000000e+0 1.00000000 0.0000000e+0
vn -0.38268290 0.0000000e+0 -0.92387975
vn 1.00000000 0.0000000e+0 0.0000000e+0
vn 1.00000000 0.0000000e+0 0.0000000e+0

usemtl SpiralStairsR1m
s 1
f 2/17/7 6/18/21 3/11/10
f 4/3/15 5/4/18 1/12/4
s 2
f 3/16/11 4/7/13 1/15/3
f 3/16/12 6/8/22 4/7/14
s 3
f 4/9/16 6/10/23 5/1/19
f 5/1/20 6/10/24 2/2/8
s 4
f 1/6/1 5/13/17 2/14/5
f 2/14/6 3/5/9 1/6/2
