mtllib StraightStairs.mtl

v 1.00000000 1.16666666 0.00000000
v 1.00000000 1.16666666 1.00000000
v 0.00000000 1.16666666 1.00000000
v 0.00000000 1.16666666 0.00000000
v 1.00000000 1.33333333 0.00000000
v 1.00000000 1.33333333 1.00000000
v 0.00000000 1.33333333 1.00000000
v 0.00000000 1.33333333 0.00000000

vt 0.13000000 0.37000000
vt 0.13000000 0.63000000
vt 0.13000000 0.13000000
vt 0.13000000 0.87000000
vt 0.37000000 0.37000000
vt 0.37000000 0.63000000
vt 0.37000000 0.13000000
vt 0.37000000 0.87000000
vt 0.63000000 2.1666666e-2
vt 0.63000000 6.1666664e-2
vt 0.63000000 0.10500000
vt 0.63000000 0.14499999
vt 0.63000000 0.18833333
vt 0.63000000 0.22833332
vt 0.63000000 0.27166666
vt 0.63000000 0.31166665
vt 0.87000000 2.1666666e-2
vt 0.87000000 6.1666664e-2
vt 0.87000000 0.10500000
vt 0.87000000 0.14499999
vt 0.87000000 0.18833333
vt 0.87000000 0.22833332
vt 0.87000000 0.27166666
vt 0.87000000 0.31166665
vn 0.00000000 0.00000000 -1.00000000
vn 1.00000000 0.00000000 0.00000000
vn 0.00000000 -1.00000000 0.00000000
vn 0.00000000 0.00000000 1.00000000
vn 1.00000000 0.00000000 0.00000000
vn 0.00000000 -1.00000000 0.00000000
vn 0.00000000 0.00000000 1.00000000
vn -1.00000000 0.00000000 0.00000000
vn 0.00000000 -1.00000000 0.00000000
vn 0.00000000 0.00000000 -1.00000000
vn -1.00000000 0.00000000 0.00000000
vn 0.00000000 -1.00000000 0.00000000
vn 0.00000000 0.00000000 -1.00000000
vn 1.00000000 0.00000000 0.00000000
vn 0.00000000 1.00000000 0.00000000
vn 0.00000000 0.00000000 1.00000000
vn 1.00000000 0.00000000 0.00000000
vn 0.00000000 1.00000000 0.00000000
vn 0.00000000 0.00000000 1.00000000
vn -1.00000000 0.00000000 0.00000000
vn 0.00000000 1.00000000 0.00000000
vn 0.00000000 0.00000000 -1.00000000
vn -1.00000000 0.00000000 0.00000000
vn 0.00000000 1.00000000 0.00000000


usemtl StraightStairs
s 1
f 2/3/6 3/7/9 4/5/12 1/1/3
f 5/8/15 8/4/24 7/2/21 6/6/18
s 2
f 1/19/2 5/20/14 6/12/17 2/11/5
f 3/21/8 7/22/20 8/14/23 4/13/11
s 3
f 2/17/4 6/18/16 7/10/19 3/9/7
f 4/23/10 8/24/22 5/16/13 1/15/1
