mtllib SpiralStairsR1m.mtl

v 0.92388000 2.00000000 0.61731700
v 1.00000000 2.00000000 1.00000000
v 0.0000000e+0 1.83333300 1.00000000
v 0.0000000e+0 2.00000000 1.00000000
v 0.92388000 1.83333300 0.61731700
v 1.00000000 1.83333300 1.00000000
v 0.92388000 2.00000000 0.61731700
v 1.00000000 2.00000000 1.00000000
v 0.0000000e+0 0.0000000e+0 0.0000000e+0
v 0.38268300 0.0000000e+0 7.6120000e-2
v 0.70710700 0.0000000e+0 0.29289300
v 0.92388000 0.0000000e+0 0.61731700
v 1.00000000 0.0000000e+0 1.00000000
v 0.0000000e+0 2.00000000 0.0000000e+0
v 0.38268300 2.00000000 7.6120000e-2
v 0.70710700 2.00000000 0.29289300
v 1.00000000 0.0000000e+0 0.0000000e+0
v 1.00000000 2.00000000 0.0000000e+0
vt 0.0000000e+0 0.0000000e+0
vt 0.0000000e+0 0.56168400
vt 0.10747300 0.58306100
vt 0.19858500 0.64394000
vt 0.24167200 0.14159200
vt 0.25144800 0.23312700
vt 0.25946400 0.73505200
vt 0.26317100 0.27066100
vt 0.28084200 0.0000000e+0
vt 0.28084200 0.56168400
vt 0.28084200 0.84252600
vt 0.30222000 0.73505200
vt 0.36309800 0.64394000
vt 0.45421000 0.58306100
vt 0.46405000 0.23504000
vt 0.46405000 0.27436200
vt 0.47665000 0.16278800
vt 0.48837300 0.20032200
vt 0.52867600 0.16131200
vt 0.52867600 0.20063400
vt 0.55610600 0.23504000
vt 0.55610600 0.27436200
vt 0.56168400 0.0000000e+0
vt 0.56168400 0.56168400
vt 0.67126300 0.0000000e+0
vt 0.67126300 0.56168400
vt 0.74664900 0.29092100
vt 0.76460800 0.16131200
vt 0.76460800 0.20063400
vt 0.78084200 0.0000000e+0
vt 0.78084200 0.56168400
vt 0.89042100 0.0000000e+0
vt 0.89042100 0.56168400
vt 1.00000000 0.0000000e+0
vt 1.00000000 0.56168400
vn -0.38268290 0.0000000e+0 -0.92387975
vn 0.87724119 0.44721360 -0.17449325
vn 0.87724119 0.44721360 -0.17449325
vn 0.87724119 0.44721360 -0.17449325
vn 0.42929284 0.43770310 0.79001497
vn 0.42929284 0.43770310 0.79001497
vn 0.42929284 0.43770310 0.79001497
vn 0.42929284 0.43770310 0.79001497
vn -0.38268290 0.0000000e+0 -0.92387975
vn 0.0000000e+0 0.0000000e+0 1.00000000
vn 0.0000000e+0 0.0000000e+0 1.00000000
vn 0.0000000e+0 -1.00000000 0.0000000e+0
vn -0.38268290 0.0000000e+0 -0.92387975
vn -0.38268290 0.0000000e+0 -0.92387975
vn 0.0000000e+0 1.00000000 0.0000000e+0
vn 0.0000000e+0 0.0000000e+0 1.00000000
vn -0.38268290 0.0000000e+0 -0.92387975
vn -0.38268290 0.0000000e+0 -0.92387975
vn 0.98078547 0.0000000e+0 -0.19508938
vn 0.0000000e+0 -1.00000000 0.0000000e+0
vn 0.95491824 0.0000000e+0 0.29686891
vn 0.95491824 0.0000000e+0 0.29686891
vn 0.95491824 0.0000000e+0 0.29686891
vn 0.0000000e+0 -1.00000000 0.0000000e+0
vn -0.74197812 0.56131261 0.36660145
vn -0.74197812 0.56131261 0.36660145
vn -0.74197812 0.56131261 0.36660145
vn -0.74197812 0.56131261 0.36660145
vn -0.74197812 0.56131261 0.36660145
vn 1.00000000 0.0000000e+0 0.0000000e+0
vn -0.87724119 0.44721360 0.17449325
vn -0.87724119 0.44721360 0.17449325
vn -0.87724119 0.44721360 0.17449325
vn 0.0000000e+0 0.0000000e+0 -1.00000000
vn 0.0000000e+0 0.0000000e+0 -1.00000000
vn 0.0000000e+0 -1.00000000 0.0000000e+0
vn -0.19508938 0.0000000e+0 0.98078547
vn -0.19508938 0.0000000e+0 0.98078547
vn 0.0000000e+0 -1.00000000 0.0000000e+0
vn 0.0000000e+0 -1.00000000 0.0000000e+0
vn -0.44296731 0.0000000e+0 0.89653777
vn -0.44296731 0.0000000e+0 0.89653777
vn -0.44296731 0.0000000e+0 0.89653777
vn 0.0000000e+0 -1.00000000 0.0000000e+0
vn 0.0000000e+0 -1.00000000 0.0000000e+0
vn -0.75233905 0.0000000e+0 0.65877610
vn -0.75233905 0.0000000e+0 0.65877610
vn -0.75233905 0.0000000e+0 0.65877610
vn 0.0000000e+0 -1.00000000 0.0000000e+0
vn 0.0000000e+0 -1.00000000 0.0000000e+0
vn -0.94717355 0.0000000e+0 0.32072146
vn -0.94717355 0.0000000e+0 0.32072146
vn -0.94717355 0.0000000e+0 0.32072146
vn 1.00000000 0.0000000e+0 0.0000000e+0
vn 1.00000000 0.0000000e+0 0.0000000e+0
vn 0.0000000e+0 -1.00000000 0.0000000e+0
vn -0.98078547 0.0000000e+0 0.19508938
vn 0.0000000e+0 0.0000000e+0 -1.00000000
vn -0.19508938 0.0000000e+0 0.98078547
vn 0.0000000e+0 1.00000000 0.0000000e+0
vn -0.32072146 0.0000000e+0 0.94717355
vn -0.32072146 0.0000000e+0 0.94717355
vn -0.32072146 0.0000000e+0 0.94717355
vn 0.0000000e+0 1.00000000 0.0000000e+0
vn 0.0000000e+0 1.00000000 0.0000000e+0
vn -0.65877610 0.0000000e+0 0.75233905
vn -0.65877610 0.0000000e+0 0.75233905
vn -0.65877610 0.0000000e+0 0.75233905
vn 0.0000000e+0 1.00000000 0.0000000e+0
vn 0.0000000e+0 1.00000000 0.0000000e+0
vn 1.00000000 0.0000000e+0 0.0000000e+0
vn 0.0000000e+0 0.0000000e+0 -1.00000000
vn 0.0000000e+0 -1.00000000 0.0000000e+0
vn 0.0000000e+0 -1.00000000 0.0000000e+0
vn 0.0000000e+0 -1.00000000 0.0000000e+0
vn 0.0000000e+0 -1.00000000 0.0000000e+0
vn 1.00000000 0.0000000e+0 0.0000000e+0
vn 1.00000000 0.0000000e+0 0.0000000e+0
vn 0.0000000e+0 0.0000000e+0 -1.00000000
vn 0.0000000e+0 0.0000000e+0 -1.00000000
vn 0.0000000e+0 1.00000000 0.0000000e+0
vn 0.0000000e+0 1.00000000 0.0000000e+0
vn 0.0000000e+0 1.00000000 0.0000000e+0
vn 0.0000000e+0 1.00000000 0.0000000e+0

usemtl SpiralStairsR1m
s 1
f 1/27/2 4/20/15 2/29/5
f 1/22/3 6/15/21 5/21/19
f 2/29/6 4/20/16 3/19/10
f 2/16/7 6/15/22 1/22/4
f 3/19/11 6/28/23 2/29/8
f 9/1/34 18/10/79 17/9/72
f 14/2/58 18/10/80 9/1/35
s 2
f 5/6/20 6/5/24 3/17/12
f 13/23/54 18/10/77 8/24/30
f 17/9/71 18/10/78 13/23/55
s 3
f 1/8/1 5/6/17 4/18/13
f 4/18/14 5/6/18 3/17/9
f 7/26/27 12/25/52 8/24/31
f 7/26/25 16/31/68 11/30/47
f 7/14/28 18/10/83 16/13/70
f 8/24/33 18/10/84 7/14/29
f 9/34/37 15/33/61 14/35/59
f 10/32/41 15/33/62 9/34/38
f 10/32/42 16/31/66 15/33/63
f 11/30/48 12/25/51 7/26/26
f 11/30/46 16/31/67 10/32/43
f 12/25/53 13/23/57 8/24/32
f 15/12/64 18/10/81 14/11/60
f 16/13/69 18/10/82 15/12/65
s 4
f 9/11/36 17/10/73 10/7/39
f 10/7/40 17/10/74 11/4/44
f 11/4/45 17/10/75 12/3/49
f 12/3/50 17/10/76 13/2/56
