mtllib SpiralStairsR1m.mtl

v 1.00000000 0.0000000e+0 0.0000000e+0
v 0.61731700 0.0000000e+0 7.6120000e-2
v 0.29289300 0.0000000e+0 0.29289300
v 7.6120000e-2 0.0000000e+0 0.61731700
v 0.0000000e+0 0.0000000e+0 1.00000000
v 1.00000000 2.00000000 0.0000000e+0
v 0.61731700 2.00000000 7.6120000e-2
v 0.29289300 2.00000000 0.29289300
v 7.6120000e-2 2.00000000 0.61731700
v 0.0000000e+0 2.00000000 1.00000000
v 0.0000000e+0 0.0000000e+0 0.0000000e+0
v 0.0000000e+0 2.00000000 0.0000000e+0
v 1.00000000 0.0000000e+0 0.0000000e+0
v 0.61731700 0.0000000e+0 7.6120000e-2
v 0.29289300 0.0000000e+0 0.29289300
v 7.6120000e-2 0.0000000e+0 0.61731700
v 0.0000000e+0 0.0000000e+0 1.00000000
v 1.00000000 0.0000000e+0 1.00000000
v 1.00000000 0.16666700 1.00000000
v 1.00000000 0.16666700 0.0000000e+0
v 0.61731700 0.16666700 7.6120000e-2
v 1.00000000 0.33333300 1.00000000
v 0.61731700 0.33333300 7.6120000e-2
v 0.29289300 0.33333300 0.29289300
v 1.00000000 0.50000000 1.00000000
v 0.29289300 0.50000000 0.29289300
v 7.6120000e-2 0.50000000 0.61731700
v 1.00000000 0.66666700 1.00000000
v 7.6120000e-2 0.66666700 0.61731700
v 0.0000000e+0 0.66666700 1.00000000
vt 0.0000000e+0 0.0000000e+0
vt 0.0000000e+0 0.56168400
vt 0.0000000e+0 0.84252600
vt 7.4595000e-2 0.66145500
vt 7.4595000e-2 0.83374300
vt 0.10385100 0.24069800
vt 0.10747300 0.82114800
vt 0.10957900 0.0000000e+0
vt 0.10957900 0.56168400
vt 0.13380200 0.49738800
vt 0.14663200 0.23570600
vt 0.17658400 0.49239700
vt 0.18424700 0.21472300
vt 0.19858500 0.76026900
vt 0.21096900 0.18094200
vt 0.21915800 0.0000000e+0
vt 0.21915800 0.56168400
vt 0.22272900 0.13950600
vt 0.25946400 0.66915700
vt 0.27253500 0.46139500
vt 0.28084200 0.56168400
vt 0.28084200 0.84252600
vt 0.30222000 0.66915700
vt 0.31015000 0.44041200
vt 0.32873700 0.0000000e+0
vt 0.32873700 0.56168400
vt 0.33302600 0.66145500
vt 0.33302600 0.83374300
vt 0.36309800 0.76026900
vt 0.38693300 0.37505100
vt 0.41365500 0.34127000
vt 0.43672600 0.66145500
vt 0.43672600 0.83374300
vt 0.43831600 0.0000000e+0
vt 0.43831600 0.56168400
vt 0.45421000 0.82114800
vt 0.45958200 0.25150100
vt 0.47134100 0.21006500
vt 0.47941900 0.10955400
vt 0.53756100 0.66145500
vt 0.53756100 0.83374300
vt 0.56168400 0.84252600
vt 0.59577200 0.62415800
vt 0.59577200 0.66723000
vt 0.62148400 0.44491800
vt 0.62148400 0.57413400
vt 0.66663400 7.4935000e-2
vt 0.68630500 0.17383200
vt 0.69660700 0.62415800
vt 0.69660700 0.66723000
vt 0.71915800 0.0000000e+0
vt 0.71915800 0.56168400
vt 0.72232000 0.44491800
vt 0.72232000 0.57413400
vt 0.74232600 0.25767400
vt 0.78053000 0.43248600
vt 0.78053000 0.51863000
vt 0.82616800 0.31369500
vt 0.88136600 0.43248600
vt 0.88136600 0.51863000
vt 0.92506500 7.4935000e-2
vt 0.92506500 0.33336600
vt 1.00000000 0.0000000e+0
vt 1.00000000 0.56168400
vn 0.36660145 -0.56131261 0.74197812
vn 0.62263870 -0.56131261 0.54520565
vn 0.78388450 -0.56131261 0.26543032
vn -0.36660145 -0.56131261 -0.74197812
vn -0.62263870 -0.56131261 -0.54520565
vn -0.78388450 -0.56131261 -0.26543032
vn 0.0000000e+0 0.0000000e+0 -1.00000000
vn 0.0000000e+0 0.0000000e+0 -1.00000000
vn 0.17449325 -0.44721360 0.87724119
vn 0.17449325 -0.44721360 0.87724119
vn 0.17449325 -0.44721360 0.87724119
vn 0.69352005 -0.70710678 0.13794902
vn -1.00000000 0.0000000e+0 0.0000000e+0
vn -1.00000000 0.0000000e+0 0.0000000e+0
vn 0.69352005 -0.70710678 0.13794902
vn 0.0000000e+0 0.0000000e+0 -1.00000000
vn 0.0000000e+0 1.00000000 0.0000000e+0
vn 0.19508938 0.0000000e+0 0.98078547
vn 0.0000000e+0 1.00000000 0.0000000e+0
vn 0.0000000e+0 1.00000000 0.0000000e+0
vn 0.32072146 0.0000000e+0 0.94717355
vn 0.32072146 0.0000000e+0 0.94717355
vn 0.32072146 0.0000000e+0 0.94717355
vn 0.0000000e+0 1.00000000 0.0000000e+0
vn 0.0000000e+0 1.00000000 0.0000000e+0
vn 0.65877610 0.0000000e+0 0.75233905
vn 0.65877610 0.0000000e+0 0.75233905
vn 0.65877610 0.0000000e+0 0.75233905
vn 0.0000000e+0 1.00000000 0.0000000e+0
vn 0.0000000e+0 1.00000000 0.0000000e+0
vn 0.89653777 0.0000000e+0 0.44296731
vn 0.89653777 0.0000000e+0 0.44296731
vn 0.89653777 0.0000000e+0 0.44296731
vn 0.0000000e+0 1.00000000 0.0000000e+0
vn -1.00000000 0.0000000e+0 0.0000000e+0
vn 0.98078547 0.0000000e+0 0.19508938
vn 0.98078547 0.0000000e+0 0.19508938
vn 0.0000000e+0 0.0000000e+0 -1.00000000
vn 0.0000000e+0 -1.00000000 0.0000000e+0
vn 0.0000000e+0 -1.00000000 0.0000000e+0
vn 0.0000000e+0 -1.00000000 0.0000000e+0
vn 0.0000000e+0 -1.00000000 0.0000000e+0
vn -1.00000000 0.0000000e+0 0.0000000e+0
vn 0.0000000e+0 0.0000000e+0 -1.00000000
vn 0.0000000e+0 0.0000000e+0 -1.00000000
vn 0.0000000e+0 1.00000000 0.0000000e+0
vn 0.0000000e+0 1.00000000 0.0000000e+0
vn 0.0000000e+0 1.00000000 0.0000000e+0
vn 0.0000000e+0 1.00000000 0.0000000e+0
vn -1.00000000 0.0000000e+0 0.0000000e+0
vn -1.00000000 0.0000000e+0 0.0000000e+0
vn 0.26692065 -0.43770310 -0.85858568
vn 0.26692065 -0.43770310 -0.85858568
vn 0.26692065 -0.43770310 -0.85858568
vn 0.26692065 -0.43770310 -0.85858568
vn -0.42929284 -0.43770310 0.79001497
vn -0.42929284 -0.43770310 0.79001497
vn -0.42929284 -0.43770310 0.79001497
vn -0.42929284 -0.43770310 0.79001497
vn 0.0000000e+0 -1.00000000 0.0000000e+0
vn 0.0000000e+0 -1.00000000 0.0000000e+0
vn 0.0000000e+0 -1.00000000 0.0000000e+0
vn 0.0000000e+0 -1.00000000 0.0000000e+0
vn 1.00000000 0.0000000e+0 0.0000000e+0
vn 0.0000000e+0 0.0000000e+0 1.00000000
vn 1.00000000 0.0000000e+0 0.0000000e+0
vn 0.0000000e+0 1.00000000 0.0000000e+0
vn 1.00000000 0.0000000e+0 0.0000000e+0
vn 0.92387975 0.0000000e+0 -0.38268290
vn 0.92387975 0.0000000e+0 -0.38268290
vn 0.0000000e+0 1.00000000 0.0000000e+0
vn 0.87865396 0.0000000e+0 -0.47745912
vn 0.87865396 0.0000000e+0 -0.47745912
vn 0.87865396 0.0000000e+0 -0.47745912
vn 0.0000000e+0 1.00000000 0.0000000e+0
vn -0.19508938 0.0000000e+0 -0.98078547
vn -0.19508938 0.0000000e+0 -0.98078547
vn 0.92387975 0.0000000e+0 -0.38268290
vn 0.0000000e+0 1.00000000 0.0000000e+0
vn 0.92387975 0.0000000e+0 -0.38268290
vn 0.70710678 0.0000000e+0 -0.70710678
vn 0.70710678 0.0000000e+0 -0.70710678
vn 0.0000000e+0 1.00000000 0.0000000e+0
vn -0.55556990 0.0000000e+0 -0.83146983
vn 0.92387975 0.0000000e+0 -0.38268290
vn 0.92387975 0.0000000e+0 -0.38268290
vn 0.0000000e+0 1.00000000 0.0000000e+0
vn -0.55556990 0.0000000e+0 -0.83146983
vn -0.55556990 0.0000000e+0 -0.83146983
vn 0.70710678 0.0000000e+0 -0.70710678
vn 0.0000000e+0 1.00000000 -2.9011469e-16
vn 0.70710678 0.0000000e+0 -0.70710678
vn 0.38268290 0.0000000e+0 -0.92387975
vn 0.38268290 0.0000000e+0 -0.92387975
vn 0.0000000e+0 1.00000000 -2.9011469e-16
vn -0.83146983 0.0000000e+0 -0.55556990
vn 0.70710678 0.0000000e+0 -0.70710678
vn 0.70710678 0.0000000e+0 -0.70710678
vn 0.0000000e+0 1.00000000 -2.9011469e-16
vn -0.83146983 0.0000000e+0 -0.55556990
vn -0.83146983 0.0000000e+0 -0.55556990
vn 0.38268290 0.0000000e+0 -0.92387975
vn 0.0000000e+0 1.00000000 5.8023117e-16
vn 0.0000000e+0 0.0000000e+0 1.00000000
vn 0.38268290 0.0000000e+0 -0.92387975
vn 0.0000000e+0 0.0000000e+0 1.00000000
vn 0.0000000e+0 1.00000000 5.8023117e-16
vn -0.98078547 0.0000000e+0 -0.19508938
vn 0.38268290 0.0000000e+0 -0.92387975
vn 0.38268290 0.0000000e+0 -0.92387975
vn 0.0000000e+0 1.00000000 5.8023117e-16
vn -0.95491824 0.0000000e+0 0.29686891
vn -0.95491824 0.0000000e+0 0.29686891
vn -0.95491824 0.0000000e+0 0.29686891

usemtl SpiralStairsR1m
s 1
f 1/34/7 12/52/44 6/35/16
f 11/51/38 12/52/45 1/34/8
f 20/12/71 21/20/75 19/11/67
f 23/24/83 24/30/87 22/13/79
f 26/31/95 27/37/99 25/15/91
f 29/38/107 30/39/111 28/18/103
s 2
f 1/34/10 7/26/21 2/25/1
f 2/25/1 8/17/26 3/16/2
f 2/7/1 11/22/39 1/3/9
f 3/16/2 9/9/31 4/8/3
f 3/14/2 11/22/40 2/7/1
f 4/8/3 10/2/36 5/1/15
f 4/19/3 11/22/41 3/14/2
f 5/21/12 11/22/42 4/19/3
f 6/35/18 7/26/22 1/34/11
f 7/26/23 8/17/27 2/25/1
f 8/17/28 9/9/32 3/16/2
f 9/9/33 10/2/37 4/8/3
f 19/11/69 23/24/85 22/13/80
f 21/20/78 23/24/86 19/11/70
f 22/13/81 26/31/97 25/15/92
f 24/30/90 26/31/98 22/13/82
f 25/15/93 29/38/109 28/18/105
f 27/37/102 29/38/110 25/15/94
s 3
f 6/42/17 12/22/46 7/36/19
f 7/36/20 12/22/47 8/29/24
f 8/29/25 12/22/48 9/23/29
f 9/23/30 12/22/49 10/21/34
f 13/62/52 18/61/60 14/58/4
f 13/10/53 20/12/73 18/6/66
f 13/49/54 21/44/76 20/50/74
f 14/58/4 18/61/61 15/55/5
f 14/43/4 21/44/77 13/49/55
f 14/59/4 24/57/88 23/60/84
f 15/55/5 18/61/62 16/48/6
f 15/56/5 24/57/89 14/59/4
f 15/53/5 27/46/100 26/54/96
f 16/48/6 18/61/63 17/47/56
f 16/45/6 27/46/101 15/53/5
f 16/40/6 30/33/112 29/41/108
f 17/32/58 30/33/113 16/40/6
f 18/6/64 20/12/72 19/11/68
f 18/4/65 28/5/104 17/27/57
f 28/5/106 30/28/114 17/27/59
s 4
f 5/63/13 12/52/50 11/51/43
f 10/64/35 12/52/51 5/63/14
