mtllib SpiralStairsR1m.mtl

v 0.92388000 0.0000000e+0 0.38268300
v 0.92388000 2.00000000 0.38268300
v 1.00000000 2.00000000 0.0000000e+0
v 0.0000000e+0 0.0000000e+0 1.00000000
v 0.38268300 0.0000000e+0 0.92388000
v 0.70710700 0.0000000e+0 0.70710700
v 0.92388000 0.0000000e+0 0.38268300
v 1.00000000 0.0000000e+0 0.0000000e+0
v 0.92388000 2.00000000 0.38268300
v 1.00000000 2.00000000 0.0000000e+0
v 0.0000000e+0 0.0000000e+0 0.0000000e+0
v 0.0000000e+0 1.50000000 0.0000000e+0
v 0.0000000e+0 1.50000000 1.00000000
v 0.38268300 1.50000000 0.92388000
v 0.0000000e+0 1.66666700 0.0000000e+0
v 0.38268300 1.66666700 0.92388000
v 0.70710700 1.66666700 0.70710700
v 0.0000000e+0 1.83333300 0.0000000e+0
v 0.70710700 1.83333300 0.70710700
v 0.92388000 1.83333300 0.38268300
v 0.0000000e+0 2.00000000 0.0000000e+0
v 0.0000000e+0 0.0000000e+0 1.00000000
v 0.38268300 0.0000000e+0 0.92388000
v 0.70710700 0.0000000e+0 0.70710700
v 0.92388000 0.0000000e+0 0.38268300
v 1.00000000 0.0000000e+0 0.0000000e+0
v 0.0000000e+0 2.00000000 1.00000000
v 0.38268300 2.00000000 0.92388000
v 0.70710700 2.00000000 0.70710700
v 0.92388000 2.00000000 0.38268300
v 1.00000000 2.00000000 0.0000000e+0
v 1.00000000 0.0000000e+0 1.00000000
v 1.00000000 2.00000000 1.00000000
v 0.92388000 0.0000000e+0 0.38268300
v 1.00000000 0.0000000e+0 0.0000000e+0
v 0.92388000 2.00000000 0.38268300
v 1.00000000 2.00000000 0.0000000e+0
v 0.92388000 0.0000000e+0 0.38268300
v 1.00000000 0.0000000e+0 0.0000000e+0
v 1.00000000 2.00000000 0.0000000e+0
vt 0.0000000e+0 0.0000000e+0
vt 0.0000000e+0 0.37579900
vt 0.0000000e+0 0.50000000
vt 0.0000000e+0 0.74790000
vt 0.0000000e+0 0.75000000
vt 0.0000000e+0 1.00000000
vt 8.3300000e-3 0.47381000
vt 1.9030000e-2 0.90432900
vt 1.9987000e-2 0.51417700
vt 4.2101000e-2 0.0000000e+0
vt 6.5190000e-2 0.60154000
vt 7.3223000e-2 0.82322300
vt 9.1407000e-2 0.63437300
vt 9.5671000e-2 0.51903000
vt 9.6474000e-2 0.76709000
vt 9.7545000e-2 0.0000000e+0
vt 9.7545000e-2 0.50000000
vt 0.15432900 0.76903000
vt 0.16660200 0.69778800
vt 0.17677700 0.57322300
vt 0.17826200 0.82173800
vt 0.19509000 0.0000000e+0
vt 0.19509000 0.50000000
vt 0.20338900 0.71808900
vt 0.23097000 0.65432900
vt 0.23291000 0.90352600
vt 0.25000000 0.50000000
vt 0.25000000 0.75000000
vt 0.25053300 0.40386600
vt 0.25210000 1.00000000
vt 0.26219000 0.44423400
vt 0.28840700 0.47706700
vt 0.29263400 2.8068000e-2
vt 0.29263600 0.0000000e+0
vt 0.29263600 0.50000000
vt 0.29712700 0.74790000
vt 0.32519400 0.0000000e+0
vt 0.32519400 0.49736800
vt 0.32519400 0.50420000
vt 0.39018100 0.0000000e+0
vt 0.39018100 0.50000000
vt 0.57729400 0.0000000e+0
vt 0.57729400 0.50420000
vt 0.64018100 0.0000000e+0
vt 0.64018100 0.50000000
vt 0.67565900 0.0000000e+0
vt 0.67565900 0.46218300
vt 0.67565900 0.50420000
vt 0.77402300 0.0000000e+0
vt 0.77402300 0.42016600
vt 0.77402300 0.46218300
vt 0.87238800 0.0000000e+0
vt 0.87238800 0.37815000
vt 0.87238800 0.42016600
vt 0.89018100 0.0000000e+0
vt 0.89018100 0.50000000
vt 0.97075200 0.0000000e+0
vt 0.97075200 0.37815000
vn 0.98078547 0.0000000e+0 0.19508938
vn 0.98078547 0.0000000e+0 0.19508938
vn 0.98078547 0.0000000e+0 0.19508938
vn 0.36660145 -0.56131261 0.74197812
vn 0.62263870 -0.56131261 0.54520565
vn 0.37184461 -0.89442719 0.24845841
vn -0.36660145 -0.56131261 -0.74197812
vn -0.62263870 -0.56131261 -0.54520565
vn -0.37184461 -0.89442719 -0.24845841
vn -0.98078547 0.0000000e+0 -0.19508938
vn -0.98078547 0.0000000e+0 -0.19508938
vn -0.98078547 0.0000000e+0 -0.19508938
vn -0.98078547 0.0000000e+0 -0.19508938
vn 0.98078547 0.0000000e+0 0.19508938
vn 0.98078547 0.0000000e+0 0.19508938
vn 0.98078547 0.0000000e+0 0.19508938
vn -0.26692065 -0.43770310 0.85858568
vn -0.26692065 -0.43770310 0.85858568
vn -0.26692065 -0.43770310 0.85858568
vn -0.26692065 -0.43770310 0.85858568
vn 0.0000000e+0 -1.00000000 0.0000000e+0
vn 0.0000000e+0 0.0000000e+0 -1.00000000
vn 0.0000000e+0 0.0000000e+0 -1.00000000
vn 0.0000000e+0 1.00000000 0.0000000e+0
vn -0.38268290 0.0000000e+0 0.92387975
vn -0.38268290 0.0000000e+0 0.92387975
vn 0.0000000e+0 1.00000000 0.0000000e+0
vn 0.0000000e+0 0.0000000e+0 -1.00000000
vn 0.0000000e+0 -1.00000000 0.0000000e+0
vn 0.0000000e+0 -1.00000000 0.0000000e+0
vn 0.0000000e+0 -1.00000000 0.0000000e+0
vn 0.0000000e+0 -1.00000000 0.0000000e+0
vn -1.00000000 0.0000000e+0 0.0000000e+0
vn 0.0000000e+0 0.0000000e+0 -1.00000000
vn -1.00000000 0.0000000e+0 0.0000000e+0
vn 0.0000000e+0 1.00000000 0.0000000e+0
vn -1.00000000 0.0000000e+0 0.0000000e+0
vn -0.92387975 0.0000000e+0 0.38268290
vn -0.92387975 0.0000000e+0 0.38268290
vn 0.0000000e+0 1.00000000 0.0000000e+0
vn -0.87865396 0.0000000e+0 0.47745912
vn -0.87865396 0.0000000e+0 0.47745912
vn -0.87865396 0.0000000e+0 0.47745912
vn 0.0000000e+0 1.00000000 0.0000000e+0
vn 0.19508938 0.0000000e+0 0.98078547
vn 0.19508938 0.0000000e+0 0.98078547
vn -0.92387975 0.0000000e+0 0.38268290
vn 0.0000000e+0 1.00000000 5.8022937e-16
vn -0.92387975 0.0000000e+0 0.38268290
vn -0.70710678 0.0000000e+0 0.70710678
vn -0.70710678 0.0000000e+0 0.70710678
vn 0.0000000e+0 1.00000000 5.8022937e-16
vn 0.55556990 0.0000000e+0 0.83146983
vn -0.92387975 0.0000000e+0 0.38268290
vn -0.92387975 0.0000000e+0 0.38268290
vn 0.0000000e+0 1.00000000 5.8022937e-16
vn 0.55556990 0.0000000e+0 0.83146983
vn 0.55556990 0.0000000e+0 0.83146983
vn -0.70710678 0.0000000e+0 0.70710678
vn 0.0000000e+0 1.00000000 -1.1604587e-15
vn -0.70710678 0.0000000e+0 0.70710678
vn -0.38268290 0.0000000e+0 0.92387975
vn -0.38268290 0.0000000e+0 0.92387975
vn 0.0000000e+0 1.00000000 -1.1604587e-15
vn 0.83146983 0.0000000e+0 0.55556990
vn -0.70710678 0.0000000e+0 0.70710678
vn -0.70710678 0.0000000e+0 0.70710678
vn 0.0000000e+0 1.00000000 -1.1604587e-15
vn 0.83146983 0.0000000e+0 0.55556990
vn 0.83146983 0.0000000e+0 0.55556990
vn -0.38268290 0.0000000e+0 0.92387975
vn 0.0000000e+0 1.00000000 0.0000000e+0
vn 0.0000000e+0 0.0000000e+0 -1.00000000
vn -0.38268290 0.0000000e+0 0.92387975
vn 0.0000000e+0 0.0000000e+0 -1.00000000
vn 0.0000000e+0 0.0000000e+0 1.00000000
vn 0.0000000e+0 0.0000000e+0 1.00000000
vn -0.17449325 -0.44721360 -0.87724119
vn -0.17449325 -0.44721360 -0.87724119
vn -0.17449325 -0.44721360 -0.87724119
vn 0.0000000e+0 -1.00000000 0.0000000e+0
vn 1.00000000 0.0000000e+0 0.0000000e+0
vn 1.00000000 0.0000000e+0 0.0000000e+0
vn 0.0000000e+0 0.0000000e+0 1.00000000
vn 0.0000000e+0 1.00000000 0.0000000e+0
vn -0.19508938 0.0000000e+0 -0.98078547
vn 0.0000000e+0 1.00000000 0.0000000e+0
vn 0.0000000e+0 1.00000000 0.0000000e+0
vn -0.32072146 0.0000000e+0 -0.94717355
vn -0.32072146 0.0000000e+0 -0.94717355
vn -0.32072146 0.0000000e+0 -0.94717355
vn 0.0000000e+0 1.00000000 0.0000000e+0
vn 0.0000000e+0 1.00000000 0.0000000e+0
vn -0.65877610 0.0000000e+0 -0.75233905
vn -0.65877610 0.0000000e+0 -0.75233905
vn -0.65877610 0.0000000e+0 -0.75233905
vn 0.0000000e+0 1.00000000 0.0000000e+0
vn 0.0000000e+0 1.00000000 0.0000000e+0
vn -0.83146983 0.0000000e+0 -0.55556990
vn -0.83146983 0.0000000e+0 -0.55556990
vn 0.0000000e+0 1.00000000 0.0000000e+0
vn 1.00000000 0.0000000e+0 0.0000000e+0
vn 0.0000000e+0 0.0000000e+0 1.00000000
vn 0.0000000e+0 -1.00000000 0.0000000e+0
vn 0.0000000e+0 -1.00000000 0.0000000e+0
vn 0.0000000e+0 -1.00000000 0.0000000e+0
vn 0.0000000e+0 -1.00000000 0.0000000e+0
vn 1.00000000 0.0000000e+0 0.0000000e+0
vn 0.0000000e+0 0.0000000e+0 1.00000000
vn 0.0000000e+0 0.0000000e+0 1.00000000
vn 0.0000000e+0 1.00000000 0.0000000e+0
vn 0.0000000e+0 1.00000000 0.0000000e+0
vn 0.0000000e+0 1.00000000 0.0000000e+0
vn 0.0000000e+0 1.00000000 0.0000000e+0
vn 1.00000000 0.0000000e+0 0.0000000e+0
vn 1.00000000 0.0000000e+0 0.0000000e+0

usemtl SpiralStairsR1m
s 1
f 1/46/1 3/43/3 2/48/2
f 9/24/25 21/38/74 18/32/62
f 12/29/38 16/9/54 15/31/49
f 14/7/47 16/9/55 12/29/39
f 15/31/50 19/13/66 18/32/61
f 17/11/59 19/13/67 15/31/51
f 18/32/63 20/19/71 9/24/26
f 22/40/76 33/45/109 27/41/84
f 32/44/103 33/45/110 22/40/77
f 34/16/10 37/3/13 35/1/11
f 36/17/12 37/3/13 34/16/10
f 39/42/15 40/43/16 38/46/14
s 2
f 8/42/23 21/39/75 10/43/28
f 11/37/34 21/39/73 8/42/22
f 13/2/40 14/7/44 12/29/36
f 16/9/52 17/11/56 15/31/48
f 19/13/64 20/19/68 18/32/60
f 22/40/79 28/35/89 23/34/7
f 23/34/7 29/23/94 24/22/8
f 23/18/7 32/5/104 22/28/78
f 24/22/8 30/17/99 25/16/9
f 24/12/8 32/5/105 23/18/7
f 25/8/9 32/5/106 24/12/8
f 26/6/81 32/5/107 25/8/9
f 26/55/82 33/45/115 32/44/108
f 27/41/86 28/35/90 22/40/80
f 27/3/85 33/27/111 28/14/87
f 28/35/91 29/23/95 23/34/7
f 28/14/88 33/27/112 29/20/92
f 29/23/96 30/17/100 24/22/8
f 29/20/93 33/27/113 30/25/97
f 30/25/98 33/27/114 31/28/101
f 31/56/102 33/45/116 26/55/83
s 3
f 4/4/17 11/6/29 5/15/4
f 4/10/18 13/2/42 11/33/35
f 4/57/19 14/53/45 13/58/43
f 5/15/4 11/6/30 6/21/5
f 5/52/4 14/53/46 4/57/20
f 5/52/4 17/50/57 16/54/53
f 6/21/5 11/6/31 7/26/6
f 6/49/5 17/50/58 5/52/4
f 6/49/5 20/47/69 19/51/65
f 7/26/6 11/6/32 8/30/21
f 7/46/6 20/47/70 6/49/5
f 10/36/27 21/38/72 9/24/24
f 11/33/33 13/2/41 12/29/37
