mtllib SpiralStairsR1m.mtl

v 0.0000000e+0 0.0000000e+0 0.0000000e+0
v 7.6120000e-2 0.0000000e+0 0.38268300
v 0.29289300 0.0000000e+0 0.70710700
v 0.61731700 0.0000000e+0 0.92388000
v 1.00000000 0.0000000e+0 1.00000000
v 0.0000000e+0 2.00000000 0.0000000e+0
v 7.6120000e-2 2.00000000 0.38268300
v 0.29289300 2.00000000 0.70710700
v 0.61731700 2.00000000 0.92388000
v 1.00000000 2.00000000 1.00000000
v 0.0000000e+0 0.0000000e+0 1.00000000
v 0.0000000e+0 2.00000000 1.00000000
v 0.0000000e+0 0.0000000e+0 0.0000000e+0
v 7.6120000e-2 0.0000000e+0 0.38268300
v 0.29289300 0.0000000e+0 0.70710700
v 0.61731700 0.0000000e+0 0.92388000
v 1.00000000 0.0000000e+0 1.00000000
v 1.00000000 0.0000000e+0 0.0000000e+0
v 1.00000000 0.83333300 0.0000000e+0
v 0.0000000e+0 0.83333300 0.0000000e+0
v 7.6120000e-2 0.83333300 0.38268300
v 1.00000000 1.00000000 0.0000000e+0
v 7.6120000e-2 1.00000000 0.38268300
v 0.29289300 1.00000000 0.70710700
v 1.00000000 1.16666700 0.0000000e+0
v 0.29289300 1.16666700 0.70710700
v 0.61731700 1.16666700 0.92388000
v 1.00000000 1.33333300 0.0000000e+0
v 0.61731700 1.33333300 0.92388000
v 1.00000000 1.33333300 1.00000000
vt 0.0000000e+0 0.0000000e+0
vt 0.0000000e+0 0.56168400
vt 1.8281000e-2 0.98155100
vt 2.3394000e-2 0.26678000
vt 3.0454000e-2 0.36967700
vt 3.8403000e-2 0.88039400
vt 4.1987000e-2 0.41219700
vt 5.1478000e-2 4.8298000e-2
vt 8.7887000e-2 0.50456000
vt 9.5704000e-2 0.79463700
vt 0.10747300 0.58306100
vt 0.11481300 0.53942900
vt 0.18146100 0.73733600
vt 0.19256500 0.60719600
vt 0.19858500 0.64394000
vt 0.23078600 0.62910700
vt 0.25946400 0.73505200
vt 0.28084200 0.0000000e+0
vt 0.28084200 0.56168400
vt 0.28084200 0.84252600
vt 0.28261800 0.71721500
vt 0.28261800 0.98155100
vt 0.28557300 0.30048100
vt 0.29710600 0.34300100
vt 0.30222000 0.73505200
vt 0.30823200 0.71729900
vt 0.30823200 0.98163500
vt 0.31365700 8.1998000e-2
vt 0.32403200 0.37787100
vt 0.32855200 0.66196100
vt 0.36225300 0.39978200
vt 0.36309800 0.64394000
vt 0.39311000 2.4487000e-2
vt 0.39311000 0.37693500
vt 0.39311000 0.41672600
vt 0.39311000 0.63700600
vt 0.41137100 0.71729900
vt 0.41137100 0.98163500
vt 0.45421000 0.58306100
vt 0.49624900 2.4487000e-2
vt 0.49624900 0.37693500
vt 0.49624900 0.41672600
vt 0.49624900 0.63700600
vt 0.52178000 2.4487000e-2
vt 0.52178000 0.37693500
vt 0.56168400 0.0000000e+0
vt 0.56168400 0.56168400
vt 0.67126300 0.0000000e+0
vt 0.67126300 0.56168400
vt 0.78084200 0.0000000e+0
vt 0.78084200 0.56168400
vt 0.78611600 2.4487000e-2
vt 0.78611600 0.37693500
vt 0.81164700 2.1426000e-2
vt 0.81164700 0.32981800
vt 0.89042100 0.0000000e+0
vt 0.89042100 0.56168400
vt 0.91478600 2.1426000e-2
vt 0.91478600 0.32981800
vt 1.00000000 0.0000000e+0
vt 1.00000000 0.56168400
vn 0.74197812 -0.56131261 -0.36660145
vn 0.54520565 -0.56131261 -0.62263870
vn 0.26543032 -0.56131261 -0.78388450
vn -0.74197812 -0.56131261 0.36660145
vn -0.54520565 -0.56131261 0.62263870
vn -0.26543032 -0.56131261 0.78388450
vn -1.00000000 0.0000000e+0 0.0000000e+0
vn -1.00000000 0.0000000e+0 0.0000000e+0
vn 0.87724119 -0.44721360 -0.17449325
vn 0.87724119 -0.44721360 -0.17449325
vn 0.87724119 -0.44721360 -0.17449325
vn 0.13794902 -0.70710678 -0.69352005
vn 0.0000000e+0 0.0000000e+0 1.00000000
vn 0.0000000e+0 0.0000000e+0 1.00000000
vn 0.13794902 -0.70710678 -0.69352005
vn -1.00000000 0.0000000e+0 0.0000000e+0
vn 0.0000000e+0 1.00000000 0.0000000e+0
vn 0.98078547 0.0000000e+0 -0.19508938
vn 0.0000000e+0 1.00000000 0.0000000e+0
vn 0.0000000e+0 1.00000000 0.0000000e+0
vn 0.94717355 0.0000000e+0 -0.32072146
vn 0.94717355 0.0000000e+0 -0.32072146
vn 0.94717355 0.0000000e+0 -0.32072146
vn 0.0000000e+0 1.00000000 0.0000000e+0
vn 0.0000000e+0 1.00000000 0.0000000e+0
vn 0.75233905 0.0000000e+0 -0.65877610
vn 0.75233905 0.0000000e+0 -0.65877610
vn 0.75233905 0.0000000e+0 -0.65877610
vn 0.0000000e+0 1.00000000 0.0000000e+0
vn 0.0000000e+0 1.00000000 0.0000000e+0
vn 0.44296731 0.0000000e+0 -0.89653777
vn 0.44296731 0.0000000e+0 -0.89653777
vn 0.44296731 0.0000000e+0 -0.89653777
vn 0.0000000e+0 1.00000000 0.0000000e+0
vn 0.0000000e+0 0.0000000e+0 1.00000000
vn 0.19508938 0.0000000e+0 -0.98078547
vn 0.19508938 0.0000000e+0 -0.98078547
vn -1.00000000 0.0000000e+0 0.0000000e+0
vn 0.0000000e+0 -1.00000000 0.0000000e+0
vn 0.0000000e+0 -1.00000000 0.0000000e+0
vn 0.0000000e+0 -1.00000000 0.0000000e+0
vn 0.0000000e+0 -1.00000000 0.0000000e+0
vn 0.0000000e+0 0.0000000e+0 1.00000000
vn -1.00000000 0.0000000e+0 0.0000000e+0
vn -1.00000000 0.0000000e+0 0.0000000e+0
vn 0.0000000e+0 1.00000000 0.0000000e+0
vn 0.0000000e+0 1.00000000 0.0000000e+0
vn 0.0000000e+0 1.00000000 0.0000000e+0
vn 0.0000000e+0 1.00000000 0.0000000e+0
vn 0.0000000e+0 0.0000000e+0 1.00000000
vn 0.0000000e+0 0.0000000e+0 1.00000000
vn -0.87724119 -0.44721360 0.17449325
vn 0.0000000e+0 0.0000000e+0 -1.00000000
vn -0.87724119 -0.44721360 0.17449325
vn -0.87724119 -0.44721360 0.17449325
vn 0.79001497 -0.43770310 0.42929284
vn 0.79001497 -0.43770310 0.42929284
vn 0.79001497 -0.43770310 0.42929284
vn 0.79001497 -0.43770310 0.42929284
vn 0.0000000e+0 -1.00000000 0.0000000e+0
vn 0.0000000e+0 -1.00000000 0.0000000e+0
vn 0.0000000e+0 -1.00000000 0.0000000e+0
vn 0.0000000e+0 -1.00000000 0.0000000e+0
vn 0.0000000e+0 0.0000000e+0 -1.00000000
vn 1.00000000 0.0000000e+0 0.0000000e+0
vn 0.0000000e+0 0.0000000e+0 -1.00000000
vn 0.0000000e+0 1.00000000 0.0000000e+0
vn 0.0000000e+0 0.0000000e+0 -1.00000000
vn -0.38268290 0.0000000e+0 -0.92387975
vn -0.38268290 0.0000000e+0 -0.92387975
vn 0.0000000e+0 1.00000000 0.0000000e+0
vn 0.0000000e+0 0.0000000e+0 -1.00000000
vn 0.0000000e+0 0.0000000e+0 -1.00000000
vn -0.98078547 0.0000000e+0 0.19508938
vn 0.0000000e+0 1.00000000 0.0000000e+0
vn -0.98078547 0.0000000e+0 0.19508938
vn -0.98078547 0.0000000e+0 0.19508938
vn -0.38268290 0.0000000e+0 -0.92387975
vn 0.0000000e+0 1.00000000 5.8022937e-16
vn -0.38268290 0.0000000e+0 -0.92387975
vn -0.70710678 0.0000000e+0 -0.70710678
vn -0.70710678 0.0000000e+0 -0.70710678
vn 0.0000000e+0 1.00000000 5.8022937e-16
vn -0.83146983 0.0000000e+0 0.55556990
vn -0.38268290 0.0000000e+0 -0.92387975
vn -0.38268290 0.0000000e+0 -0.92387975
vn 0.0000000e+0 1.00000000 5.8022937e-16
vn -0.83146983 0.0000000e+0 0.55556990
vn -0.83146983 0.0000000e+0 0.55556990
vn -0.70710678 0.0000000e+0 -0.70710678
vn 0.0000000e+0 1.00000000 -5.8022937e-16
vn -0.70710678 0.0000000e+0 -0.70710678
vn -0.92387975 0.0000000e+0 -0.38268290
vn -0.92387975 0.0000000e+0 -0.38268290
vn 0.0000000e+0 1.00000000 -5.8022937e-16
vn -0.55556990 0.0000000e+0 0.83146983
vn -0.70710678 0.0000000e+0 -0.70710678
vn -0.70710678 0.0000000e+0 -0.70710678
vn 0.0000000e+0 1.00000000 -5.8022937e-16
vn -0.55556990 0.0000000e+0 0.83146983
vn -0.55556990 0.0000000e+0 0.83146983
vn -0.92387975 0.0000000e+0 -0.38268290
vn 0.0000000e+0 1.00000000 0.0000000e+0
vn 1.00000000 0.0000000e+0 0.0000000e+0
vn -0.92387975 0.0000000e+0 -0.38268290
vn 1.00000000 0.0000000e+0 0.0000000e+0
vn 0.0000000e+0 1.00000000 0.0000000e+0
vn -0.19508938 0.0000000e+0 0.98078547
vn -0.92387975 0.0000000e+0 -0.38268290
vn -0.92387975 0.0000000e+0 -0.38268290
vn 0.0000000e+0 1.00000000 0.0000000e+0
vn 0.29686891 0.0000000e+0 0.95491824
vn 0.29686891 0.0000000e+0 0.95491824
vn 0.29686891 0.0000000e+0 0.95491824

usemtl SpiralStairsR1m
s 1
f 1/1/7 12/19/44 6/2/16
f 11/18/38 12/19/45 1/1/8
f 13/8/53 20/4/73 18/28/66
f 18/28/64 20/4/72 19/23/68
f 23/7/83 24/9/87 22/24/79
f 26/12/95 27/14/99 25/29/91
f 29/16/107 30/30/111 28/31/103
s 2
f 1/60/10 7/57/21 2/56/1
f 2/56/1 8/51/26 3/50/2
f 2/17/1 11/19/39 1/20/9
f 3/50/2 9/49/31 4/48/3
f 3/15/2 11/19/40 2/17/1
f 4/48/3 10/47/36 5/46/15
f 4/11/3 11/19/41 3/15/2
f 5/2/12 11/19/42 4/11/3
f 6/61/18 7/57/22 1/60/11
f 7/57/23 8/51/27 2/56/1
f 8/51/28 9/49/32 3/50/2
f 9/49/33 10/47/37 4/48/3
f 20/4/71 21/5/75 19/23/67
f 22/24/81 26/12/97 25/29/92
f 24/9/90 26/12/98 22/24/82
f 25/29/93 29/16/109 28/31/105
f 27/14/102 29/16/110 25/29/94
s 3
f 6/20/17 12/19/46 7/25/19
f 7/25/20 12/19/47 8/32/24
f 8/32/25 12/19/48 9/39/29
f 9/39/30 12/19/49 10/47/34
f 19/23/69 23/7/85 22/24/80
f 21/5/78 23/7/86 19/23/70
s 4
f 5/46/13 12/19/50 11/18/43
f 10/47/35 12/19/51 5/46/14
f 13/3/52 18/22/60 14/6/4
f 13/42/54 21/36/76 20/43/74
f 14/6/4 18/22/61 15/10/5
f 14/35/4 21/36/77 13/42/55
f 14/37/4 24/27/88 23/38/84
f 15/10/5 18/22/62 16/13/6
f 15/26/5 24/27/89 14/37/4
f 15/58/5 27/55/100 26/59/96
f 16/13/6 18/22/63 17/21/56
f 16/54/6 27/55/101 15/58/5
f 16/40/6 30/34/112 29/41/108
f 17/33/58 30/34/113 16/40/6
f 18/44/65 28/45/104 17/52/57
f 28/45/106 30/53/114 17/52/59
