mtllib ../materials/wall.mtl

v 0.44066815 0.0000000e+0 0.25000000
v 0.44066815 0.0000000e+0 0.75000000
v 0.0000000e+0 0.0000000e+0 0.75000000
v 0.0000000e+0 0.0000000e+0 0.25000000
v 0.44066815 1.24722062 0.25000000
v 0.44066815 1.24722062 0.75000000
v 0.0000000e+0 1.74791763 0.75000000
v 0.0000000e+0 1.74791763 0.25000000
vt 2.0000000e-4 2.0000000e-4
vt 2.0000000e-4 0.99980000
vt 0.22888182 -0.72942010
vt 0.22888182 -0.42136956
vt 0.22888182 1.42136956
vt 0.22888182 1.72942010
vt 0.23268657 -0.43448370
vt 0.23268657 1.43448370
vt 0.76731343 -0.43448370
vt 0.76731343 1.43448370
vt 0.77111818 -0.42136956
vt 0.77111818 -0.11331902
vt 0.77111818 1.11331902
vt 0.77111818 1.42136956
vt 0.99980000 2.0000000e-4
vt 0.99980000 0.99980000
vn 0.0000000e+0 0.0000000e+0 -1.00000000
vn 1.00000000 0.0000000e+0 0.0000000e+0
vn 0.0000000e+0 -1.00000000 0.0000000e+0
vn 0.0000000e+0 0.0000000e+0 1.00000000
vn 1.00000000 0.0000000e+0 0.0000000e+0
vn 0.0000000e+0 -1.00000000 0.0000000e+0
vn 0.0000000e+0 0.0000000e+0 1.00000000
vn -1.00000000 0.0000000e+0 0.0000000e+0
vn 0.0000000e+0 -1.00000000 0.0000000e+0
vn 0.0000000e+0 0.0000000e+0 -1.00000000
vn -1.00000000 0.0000000e+0 0.0000000e+0
vn 0.0000000e+0 -1.00000000 0.0000000e+0
vn 0.0000000e+0 0.0000000e+0 -1.00000000
vn 1.00000000 0.0000000e+0 0.0000000e+0
vn 0.75067278 0.66067419 0.0000000e+0
vn 0.0000000e+0 0.0000000e+0 1.00000000
vn 1.00000000 0.0000000e+0 0.0000000e+0
vn 0.75067278 0.66067419 0.0000000e+0
vn 0.0000000e+0 0.0000000e+0 1.00000000
vn -1.00000000 0.0000000e+0 0.0000000e+0
vn 0.75067278 0.66067419 0.0000000e+0
vn 0.0000000e+0 0.0000000e+0 -1.00000000
vn -1.00000000 0.0000000e+0 0.0000000e+0
vn 0.75067278 0.66067419 0.0000000e+0

usemtl Material/RockyWall
s 1
f 2/2/6 3/16/9 4/15/12 1/1/3
f 5/1/15 8/2/24 7/16/21 6/15/18
s 2
f 1/1/2 5/2/14 6/16/17 2/15/5
f 3/9/8 7/10/20 8/8/23 4/7/11
s 3
f 2/11/4 6/13/16 7/6/19 3/4/7
f 4/5/10 8/3/22 5/12/13 1/14/1
