mtllib ../materials/wall.mtl

v 0.0000000e+0 2.00000000 0.99978764
v 0.0000000e+0 0.0000000e+0 0.99978764
v 0.0000000e+0 2.00000000 2.0014451e-5
v 0.0000000e+0 0.0000000e+0 2.0014451e-5
v 0.33008864 2.00000000 2.0014451e-5
v 0.33008864 6.2975039e-18 2.0014451e-5
v 0.11690739 2.00000000 0.49177489
v 0.11690739 3.4299423e-19 0.49177489
v 4.9112195e-2 2.00000000 0.74984573
v 4.9112195e-2 1.8293026e-19 0.74984573
v 0.20996136 2.00000000 0.23793532
v 0.20996136 4.5732564e-19 0.23793532
v 0.27002500 1.00000000 0.11897766
v 8.3009792e-2 1.00000000 0.62081031
v 0.16343438 1.00000000 0.36485511
v 2.4556097e-2 1.00000000 0.87481669
vt -0.52205232 -0.67310786
vt -0.52205232 0.33338080
vt -0.45766672 -0.16986366
vt -0.39386513 -0.67318224
vt -0.39386501 0.33345511
vt -0.32646090 -0.16986368
vt -0.25958568 -0.67325280
vt -0.25958546 0.33352559
vt -0.22087666 -0.46006888
vt -0.22087666 4.3216537e-2
vt -0.19615347 -0.33424752
vt -0.19137042 -0.16986371
vt -0.16202520 -0.20433404
vt -0.12352920 -0.67330335
vt -0.12352890 0.33357603
vt -0.11518161 -7.6550598e-2
vt -5.6409260e-2 -0.16986375
vt -5.4709254e-2 4.3216537e-2
vt 1.0596946e-2 -0.67331852
vt 1.0597301e-2 0.33359105
vt 0.14548264 1.9257594e-3
vt 0.14548264 0.99865980
vt 0.16237411 -6.6016864e-3
vt 0.16237411 1.00020309
vt 0.30998793 1.9257594e-3
vt 0.30998793 0.99865980
vt 0.66565953 -6.6016864e-3
vt 0.66565953 1.00020309
vt 0.89182415 -0.29014590
vt 0.95229651 -0.40991304
vt 0.99914011 -0.53769648
vt 1.03326837 -0.66760996
vt 1.05799157 -0.79343132
vt 1.05799157 -0.29014590
vn 0.90296819 0.0000000e+0 0.42970741
vn 0.96574213 0.0000000e+0 0.25950365
vn 0.93766147 0.0000000e+0 0.34754994
vn 0.97867475 0.0000000e+0 0.20541601
vn -1.00000000 0.0000000e+0 0.0000000e+0
vn 0.0000000e+0 1.00000000 0.0000000e+0
vn 0.98123659 2.3670969e-10 0.19280753
vn 0.98123659 2.3670969e-10 0.19280753
vn -1.00000000 0.0000000e+0 0.0000000e+0
vn 3.7247421e-18 -1.00000000 0.0000000e+0
vn 0.98123659 -2.3670969e-10 0.19280753
vn 0.98123659 -2.3670969e-10 0.19280753
vn -1.00000000 0.0000000e+0 0.0000000e+0
vn 0.0000000e+0 1.00000000 0.0000000e+0
vn 0.0000000e+0 1.00000000 0.0000000e+0
vn 0.0000000e+0 1.00000000 0.0000000e+0
vn 0.0000000e+0 1.00000000 0.0000000e+0
vn 0.0000000e+0 0.0000000e+0 -1.00000000
vn -1.00000000 0.0000000e+0 0.0000000e+0
vn 6.8339006e-18 -1.00000000 -3.6492461e-18
vn 6.8339006e-18 -1.00000000 -3.6492461e-18
vn 6.8339006e-18 -1.00000000 -3.6492461e-18
vn 6.8339006e-18 -1.00000000 -3.6492461e-18
vn 0.0000000e+0 0.0000000e+0 -1.00000000
vn 0.0000000e+0 1.00000000 0.0000000e+0
vn 0.89266491 -1.1268023e-9 0.45072093
vn 0.89266491 -1.1268023e-9 0.45072093
vn 0.0000000e+0 0.0000000e+0 -1.00000000
vn 1.9078221e-17 -1.00000000 -1.4914398e-17
vn 0.89266491 1.1268023e-9 0.45072093
vn 0.89266491 1.1268023e-9 0.45072093
vn 0.0000000e+0 0.0000000e+0 -1.00000000
vn 0.0000000e+0 1.00000000 0.0000000e+0
vn 0.0000000e+0 1.00000000 0.0000000e+0
vn 0.95407334 2.1153425e-3 0.29956567
vn 0.95407334 2.1153425e-3 0.29956567
vn 0.95407334 2.1153425e-3 0.29956567
vn 2.2663199e-18 -1.00000000 1.5870647e-19
vn 2.2663199e-18 -1.00000000 1.5870647e-19
vn 0.95407334 -2.1153425e-3 0.29956567
vn 0.95407334 -2.1153425e-3 0.29956567
vn 0.95407334 -2.1153425e-3 0.29956567
vn 0.0000000e+0 1.00000000 0.0000000e+0
vn 0.0000000e+0 1.00000000 0.0000000e+0
vn 0.97463626 1.3657806e-3 0.22379075
vn 0.97463626 1.3657806e-3 0.22379075
vn 0.97463626 1.3657806e-3 0.22379075
vn 3.1789485e-18 -1.00000000 3.5748471e-20
vn 3.1789485e-18 -1.00000000 3.5748471e-20
vn 0.97463626 -1.3657806e-3 0.22379075
vn 0.97463626 -1.3657806e-3 0.22379075
vn 0.97463626 -1.3657806e-3 0.22379075
vn 0.0000000e+0 1.00000000 0.0000000e+0
vn 0.0000000e+0 1.00000000 0.0000000e+0
vn 0.91738281 2.6006536e-3 0.39799750
vn 0.91738281 2.6006536e-3 0.39799750
vn 0.91738281 2.6006536e-3 0.39799750
vn 1.0488853e-17 -1.00000000 -7.3342408e-18
vn 1.0488853e-17 -1.00000000 -7.3342408e-18
vn 0.91738281 -2.6006536e-3 0.39799750
vn 0.91738281 -2.6006536e-3 0.39799750
vn 0.91738281 -2.6006536e-3 0.39799750

usemtl Material/RockyWall
s 1
f 3/24/13 4/23/19 2/27/9 1/28/5
s 2
f 1/9/6 9/11/43 3/10/14
f 3/10/15 9/11/44 7/13/33
f 3/10/16 11/16/53 5/18/25
f 4/34/20 10/32/48 2/33/10
f 4/34/21 12/30/58 8/31/38
f 6/29/29 12/30/59 4/34/22
f 7/13/34 11/16/54 3/10/17
f 8/31/39 10/32/49 4/34/23
s 3
f 3/21/18 5/25/28 6/26/32 4/22/24
s 4
f 1/2/8 2/1/12 16/3/4
f 1/2/7 16/3/4 9/5/45
f 5/20/27 13/17/1 6/19/31
f 6/19/30 13/17/1 12/14/60
f 7/8/35 15/12/3 11/15/55
f 8/7/40 14/6/2 10/4/50
f 8/7/42 15/12/3 14/6/2
f 9/5/46 14/6/2 7/8/36
f 9/5/47 16/3/4 14/6/2
f 10/4/51 16/3/4 2/1/11
f 11/15/56 13/17/1 5/20/26
f 11/15/57 15/12/3 13/17/1
f 12/14/61 15/12/3 8/7/41
f 13/17/1 15/12/3 12/14/62
f 14/6/2 15/12/3 7/8/37
f 14/6/2 16/3/4 10/4/52
