mtllib ../materials/wall.mtl

v 0.62498320 2.00000000 0.62487177
v 0.62498320 2.2866282e-19 0.62487177
v 0.0000000e+0 0.0000000e+0 0.0000000e+0
v 0.0000000e+0 2.00000000 0.0000000e+0
v 0.0000000e+0 2.00000000 1.00000000
v 0.0000000e+0 0.0000000e+0 1.00000000
v 0.33008864 2.00000000 1.00000000
v 0.33008864 6.2975039e-18 1.00000000
v 0.42816335 -8.8873819e-19 0.83753122
v 0.42816335 2.00000000 0.83753122
v 0.0000000e+0 2.00000000 0.50000000
v 0.0000000e+0 0.0000000e+0 0.50000000
v 0.37912599 1.00000000 0.91876561
v 0.48154630 1.00000000 0.77592250
v 0.99999998 2.00000000 -1.7830869e-4
v 0.99999998 0.0000000e+0 -1.7830869e-4
v 1.00005884 2.00000000 0.32991033
v 1.00005884 6.2975039e-18 0.32991033
v 0.83760755 -8.8873819e-19 0.42801400
v 0.83760755 2.00000000 0.42801400
v 0.49999999 2.00000000 -8.9154343e-5
v 0.49999999 0.0000000e+0 -8.9154343e-5
v 0.91883320 1.00000000 0.37896217
v 0.77600835 1.00000000 0.48140794
vt -0.34102828 -6.6016864e-3
vt -0.34102828 1.00020309
vt -0.22087666 4.3216537e-2
vt -0.22087666 0.29491773
vt -0.22087666 0.54661893
vt -8.9327083e-2 -6.6016864e-3
vt -8.9327083e-2 1.00020309
vt -5.4709254e-2 4.3216537e-2
vt -5.3382104e-3 0.12500371
vt 1.0596946e-2 -0.67331852
vt 1.0597301e-2 0.33359105
vt 3.0824527e-2 0.54666381
vt 5.8502011e-2 -0.16986379
vt 8.8401170e-2 -2.1043333e-3
vt 8.8401170e-2 0.99776313
vt 9.3741372e-2 0.23205698
vt 0.10609991 -0.67334766
vt 0.10610029 0.33362010
vt 0.14703614 -0.16986382
vt 0.16237411 -6.6016864e-3
vt 0.16237411 1.00020309
vt 0.20077698 0.33115565
vt 0.25192240 -0.67333681
vt 0.25192280 0.33360909
vt 0.25342362 -2.1043333e-3
vt 0.25342362 0.99776313
vt 0.28252572 0.54670869
vt 0.28255535 0.38054128
vt 0.35173508 6.1045501e-3
vt 0.35173508 1.00352274
vt 0.35680906 -0.16986390
vt 0.39774491 -0.67334782
vt 0.39774529 0.33361993
vt 0.44534319 -0.16986394
vt 0.49324790 -0.67331878
vt 0.49324825 0.33359079
vt 0.49555293 -6.6016864e-3
vt 0.49555293 1.00020309
vt 0.51635329 6.1045501e-3
vt 0.51635329 1.00352274
vt 0.55455955 4.7178842e-2
vt 0.55458918 0.21334625
vt 0.63633792 -2.2067836e-3
vt 0.74337353 -0.10130545
vt 0.74725412 -6.6016864e-3
vt 0.74725412 1.00020309
vt 0.80629037 0.21330137
vt 0.84245311 -0.20835873
vt 0.89182415 -0.29014590
vt 0.99895532 -6.6016864e-3
vt 0.99895532 1.00020309
vt 1.05799157 0.21325649
vt 1.05799157 -0.29014590
vt 1.05799157 -3.8444706e-2
vn 0.83936780 0.0000000e+0 0.54356388
vn 0.75308102 0.0000000e+0 0.65792779
vn 0.54371354 -6.5924290e-20 0.83927087
vn 0.65806206 1.4491400e-19 0.75296370
vn 0.0000000e+0 1.00000000 0.0000000e+0
vn 0.0000000e+0 1.00000000 0.0000000e+0
vn 0.0000000e+0 1.00000000 0.0000000e+0
vn 0.0000000e+0 1.00000000 0.0000000e+0
vn 0.70716982 8.9335874e-6 0.70704374
vn 0.70716982 8.9335874e-6 0.70704374
vn 0.70716982 8.9335874e-6 0.70704374
vn -6.4692980e-19 -1.00000000 -6.4681446e-19
vn -6.4692980e-19 -1.00000000 -6.4681446e-19
vn -6.4692980e-19 -1.00000000 -6.4681446e-19
vn -6.4692980e-19 -1.00000000 -6.4681446e-19
vn 0.70716982 -8.9335874e-6 0.70704374
vn 0.70716982 -8.9335874e-6 0.70704374
vn 0.70716982 -8.9335874e-6 0.70704374
vn 1.8296779e-19 -1.00000000 1.8293517e-19
vn -1.00000000 0.0000000e+0 0.0000000e+0
vn 1.8296779e-19 -1.00000000 1.8293517e-19
vn -1.7830869e-4 1.6940659e-21 -0.99999998
vn -1.00000000 0.0000000e+0 0.0000000e+0
vn 0.0000000e+0 1.00000000 0.0000000e+0
vn -1.7830869e-4 1.6940659e-21 -0.99999998
vn 0.0000000e+0 1.00000000 0.0000000e+0
vn -1.00000000 0.0000000e+0 0.0000000e+0
vn 0.0000000e+0 1.00000000 0.0000000e+0
vn 0.0000000e+0 1.00000000 0.0000000e+0
vn 0.0000000e+0 0.0000000e+0 1.00000000
vn -1.00000000 0.0000000e+0 0.0000000e+0
vn 8.5012609e-18 -1.00000000 2.7874072e-17
vn 8.5012609e-18 -1.00000000 2.7874072e-17
vn 0.0000000e+0 0.0000000e+0 1.00000000
vn 0.0000000e+0 1.00000000 0.0000000e+0
vn 0.85611025 0.0000000e+0 0.51679322
vn 0.85611025 0.0000000e+0 0.51679322
vn 0.0000000e+0 0.0000000e+0 1.00000000
vn 1.9078221e-17 -1.00000000 5.5748145e-17
vn 0.85611025 0.0000000e+0 0.51679322
vn 0.85611025 0.0000000e+0 0.51679322
vn 0.0000000e+0 0.0000000e+0 1.00000000
vn 6.0657635e-18 -1.00000000 1.7199836e-17
vn 6.0657635e-18 -1.00000000 1.7199836e-17
vn 6.0657635e-18 -1.00000000 1.7199836e-17
vn 0.80372204 -1.6104659e-3 0.59500276
vn 0.80372204 -1.6104659e-3 0.59500276
vn 0.80372204 -1.6104659e-3 0.59500276
vn 0.0000000e+0 1.00000000 0.0000000e+0
vn 0.0000000e+0 1.00000000 0.0000000e+0
vn 0.0000000e+0 1.00000000 0.0000000e+0
vn 0.80372204 1.6104659e-3 0.59500276
vn 0.80372204 1.6104659e-3 0.59500276
vn 0.80372204 1.6104659e-3 0.59500276
vn -1.00000000 0.0000000e+0 0.0000000e+0
vn 0.0000000e+0 1.00000000 0.0000000e+0
vn 0.0000000e+0 1.00000000 0.0000000e+0
vn 0.0000000e+0 1.00000000 0.0000000e+0
vn -1.7168658e-19 -1.00000000 -1.3828789e-18
vn -1.00000000 0.0000000e+0 0.0000000e+0
vn -1.7168658e-19 -1.00000000 -1.3828789e-18
vn -1.7168658e-19 -1.00000000 -1.3828789e-18
vn -1.7830869e-4 1.6940659e-21 -0.99999998
vn 0.0000000e+0 1.00000000 0.0000000e+0
vn 0.0000000e+0 1.00000000 0.0000000e+0
vn 0.99999998 0.0000000e+0 -1.7830869e-4
vn -1.7830869e-4 1.6940659e-21 -0.99999998
vn 2.7875588e-17 -1.00000000 8.4962905e-18
vn 2.7875588e-17 -1.00000000 8.4962905e-18
vn 0.99999998 0.0000000e+0 -1.7830869e-4
vn 0.0000000e+0 1.00000000 0.0000000e+0
vn 0.51694587 -7.3127381e-17 0.85601809
vn 0.51694587 -7.3127381e-17 0.85601809
vn 0.99999998 0.0000000e+0 -1.7830869e-4
vn 5.5751546e-17 -1.00000000 1.9068280e-17
vn 0.51694587 7.3127381e-17 0.85601809
vn 0.51694587 7.3127381e-17 0.85601809
vn 0.99999998 0.0000000e+0 -1.7830869e-4
vn 1.7200917e-17 -1.00000000 6.0626965e-18
vn 1.7200917e-17 -1.00000000 6.0626965e-18
vn 1.7200917e-17 -1.00000000 6.0626965e-18
vn 0.59514606 -1.6104659e-3 0.80361594
vn 0.59514606 -1.6104659e-3 0.80361594
vn 0.59514606 -1.6104659e-3 0.80361594
vn 0.0000000e+0 1.00000000 0.0000000e+0
vn 0.0000000e+0 1.00000000 0.0000000e+0
vn 0.0000000e+0 1.00000000 0.0000000e+0
vn 0.59514606 1.6104659e-3 0.80361594
vn 0.59514606 1.6104659e-3 0.80361594
vn 0.59514606 1.6104659e-3 0.80361594
vn -1.7830869e-4 1.6940659e-21 -0.99999998
vn 0.0000000e+0 1.00000000 0.0000000e+0
vn 0.0000000e+0 1.00000000 0.0000000e+0
vn 0.0000000e+0 1.00000000 0.0000000e+0
vn -1.3829095e-18 -1.00000000 -1.7144000e-19
vn -1.7830869e-4 1.6940659e-21 -0.99999998
vn -1.3829095e-18 -1.00000000 -1.7144000e-19
vn -1.3829095e-18 -1.00000000 -1.7144000e-19

usemtl Material/RockyWall
s 1
f 6/14/34 8/25/42 7/26/38 5/15/30
f 15/40/66 17/30/74 18/29/78 16/39/70
s 2
f 3/1/20 12/6/60 6/20/31 5/21/27 11/7/55 4/2/23
f 7/11/37 13/13/1 10/18/53
f 8/10/40 13/13/1 7/11/36
f 9/17/48 2/23/18 14/19/2
f 9/17/46 13/13/1 8/10/41
f 13/13/1 9/17/47 14/19/2
f 14/19/2 1/24/9 10/18/54
f 14/19/2 2/23/17 24/31/4
f 14/19/2 10/18/52 13/13/1
f 17/36/72 23/34/3 18/35/76
f 18/35/77 23/34/3 19/32/84
f 20/33/90 1/24/11 24/31/4
f 20/33/89 23/34/3 17/36/73
f 23/34/3 20/33/88 24/31/4
f 24/31/4 1/24/10 14/19/2
f 24/31/4 2/23/16 19/32/82
f 24/31/4 19/32/83 23/34/3
s 3
f 1/16/8 20/22/86 21/12/93
f 1/16/7 21/12/92 4/5/26
f 2/44/13 9/48/45 12/54/62
f 2/44/12 12/54/59 3/52/19
f 3/52/21 22/47/95 2/44/14
f 4/5/24 11/4/56 1/16/5
f 6/53/32 9/48/43 8/49/39
f 6/53/33 12/54/61 9/48/44
f 7/8/35 10/9/49 5/3/28
f 10/9/51 11/4/58 5/3/29
f 11/4/57 10/9/50 1/16/6
f 15/27/64 20/22/85 17/28/71
f 15/27/65 21/12/94 20/22/87
f 18/41/75 19/43/79 16/42/68
f 19/43/80 22/47/97 16/42/69
f 22/47/98 19/43/81 2/44/15
s 4
f 4/51/25 21/46/91 15/38/63 16/37/67 22/45/96 3/50/22
