mtllib ../materials/wall.mtl

v 0.44066815 0.0000000e+0 0.25000000
v 0.44066815 0.0000000e+0 0.75000000
v 0.0000000e+0 0.0000000e+0 0.75000000
v 0.0000000e+0 0.0000000e+0 0.25000000
v 0.44066815 2.00000000 0.25000000
v 0.44066815 2.00000000 0.75000000
v 0.0000000e+0 2.00000000 0.75000000
v 0.0000000e+0 2.00000000 0.25000000
vt 2.0000000e-4 2.0000000e-4
vt 2.0000000e-4 0.99980000
vt 0.25010000 -0.49960000
vt 0.25010000 1.49960000
vt 0.26539510 -0.56476905
vt 0.26539510 1.56476905
vt 0.73460490 -0.56476905
vt 0.73460490 1.56476905
vt 0.74990000 -0.49960000
vt 0.74990000 1.49960000
vt 0.99980000 2.0000000e-4
vt 0.99980000 0.99980000
vn 0.0000000e+0 0.0000000e+0 -1.00000000
vn 1.00000000 0.0000000e+0 0.0000000e+0
vn 0.0000000e+0 -1.00000000 0.0000000e+0
vn 0.0000000e+0 0.0000000e+0 1.00000000
vn 1.00000000 0.0000000e+0 0.0000000e+0
vn 0.0000000e+0 -1.00000000 0.0000000e+0
vn 0.0000000e+0 0.0000000e+0 1.00000000
vn -1.00000000 0.0000000e+0 0.0000000e+0
vn 0.0000000e+0 -1.00000000 0.0000000e+0
vn 0.0000000e+0 0.0000000e+0 -1.00000000
vn -1.00000000 0.0000000e+0 0.0000000e+0
vn 0.0000000e+0 -1.00000000 0.0000000e+0
vn 0.0000000e+0 0.0000000e+0 -1.00000000
vn 1.00000000 0.0000000e+0 0.0000000e+0
vn 0.0000000e+0 1.00000000 0.0000000e+0
vn 0.0000000e+0 0.0000000e+0 1.00000000
vn 1.00000000 0.0000000e+0 0.0000000e+0
vn 0.0000000e+0 1.00000000 0.0000000e+0
vn 0.0000000e+0 0.0000000e+0 1.00000000
vn -1.00000000 0.0000000e+0 0.0000000e+0
vn 0.0000000e+0 1.00000000 0.0000000e+0
vn 0.0000000e+0 0.0000000e+0 -1.00000000
vn -1.00000000 0.0000000e+0 0.0000000e+0
vn 0.0000000e+0 1.00000000 0.0000000e+0

usemtl Material/RockyWall
s 1
f 2/2/6 3/12/9 4/11/12 1/1/3
f 5/1/15 8/2/24 7/12/21 6/11/18
s 2
f 1/9/2 5/10/14 6/4/17 2/3/5
f 3/9/8 7/10/20 8/4/23 4/3/11
s 3
f 2/7/4 6/8/16 7/6/19 3/5/7
f 4/6/10 8/5/22 5/7/13 1/8/1
